<svg xmlns="http://www.w3.org/2000/svg" xmlns:xlink="http://www.w3.org/1999/xlink" id="svg" version="1.1" width="400" height="400" viewBox="0, 0, 400,400"><g id="svgg"><path id="path0" d="M155.625 67.234 C 107.035 70.956,62.946 103.349,47.416 146.736 C 34.432 183.012,41.046 221.381,65.758 253.128 C 70.463 259.173,71.179 261.042,70.459 265.400 C 69.230 272.843,64.721 278.426,56.238 283.010 C 46.745 288.140,44.436 291.809,44.408 301.806 C 44.390 308.117,46.292 309.104,63.400 311.664 C 89.772 315.610,109.697 312.255,129.977 300.455 C 135.734 297.105,136.912 296.907,143.431 298.189 C 170.127 303.439,202.356 298.891,227.290 286.355 C 237.909 281.016,252.457 270.297,261.252 261.334 C 288.575 233.485,299.497 193.595,289.952 156.510 C 275.459 100.203,218.595 62.410,155.625 67.234 M182.414 90.156 C 244.211 99.861,283.264 153.748,267.527 207.600 C 260.261 232.465,241.712 253.678,215.982 266.548 C 198.650 275.217,180.390 278.850,160.400 277.606 C 152.558 277.118,150.954 276.878,140.200 274.588 C 130.615 272.547,130.037 272.652,123.402 277.640 C 115.722 283.413,106.911 287.557,98.800 289.212 C 86.931 291.633,85.094 290.144,88.902 281.189 C 92.550 272.609,93.681 267.253,93.754 258.200 C 93.812 251.180,93.789 251.130,86.757 242.800 C 75.727 229.733,70.451 219.904,66.254 204.600 C 51.401 150.448,96.035 94.550,158.200 89.451 C 162.477 89.101,178.701 89.572,182.414 90.156 M320.600 157.662 C 311.469 162.378,312.401 171.607,322.825 179.677 C 337.337 190.913,340.915 199.856,340.958 225.000 C 340.996 247.147,337.195 256.989,322.941 271.647 C 316.834 277.928,316.009 279.147,316.002 281.899 C 316.000 282.914,319.731 297.546,320.649 300.122 C 322.212 304.505,322.112 307.884,320.394 308.803 C 317.207 310.509,301.715 306.228,294.032 301.519 C 289.548 298.771,288.223 298.665,281.800 300.543 C 273.126 303.080,259.789 303.626,250.800 301.812 C 242.951 300.228,237.971 302.148,235.354 307.767 C 232.296 314.336,236.493 320.729,246.035 324.037 C 250.058 325.431,270.400 325.676,278.871 324.433 C 285.760 323.421,285.641 323.404,295.800 326.925 C 311.529 332.378,333.114 335.012,344.600 332.880 C 360.558 329.918,361.327 328.674,353.804 318.000 C 347.225 308.665,341.528 295.379,341.442 289.171 C 341.394 285.678,341.649 285.177,346.502 279.257 C 355.548 268.221,360.852 256.004,362.851 241.600 C 363.539 236.645,363.537 215.086,362.849 208.800 C 360.976 191.691,355.762 180.083,345.232 169.580 C 334.222 158.597,326.254 154.742,320.600 157.662 " stroke="none" fill-rule="evenodd"/></g></svg>