<svg id="svg" xmlns="http://www.w3.org/2000/svg" xmlns:xlink="http://www.w3.org/1999/xlink" width="400" height="400" viewBox="0, 0, 400,400" version="1.1"><g id="svgg"><path id="path0" d="M156.400 67.187 C 153.870 67.367,150.630 67.722,149.200 67.974 C 139.596 69.669,131.545 71.468,127.493 72.824 C 124.905 73.691,122.592 74.400,122.355 74.400 C 122.117 74.400,119.735 75.310,117.062 76.421 C 85.076 89.721,58.082 116.370,48.406 144.200 C 47.794 145.960,46.902 148.378,46.423 149.574 C 45.417 152.090,42.287 165.809,41.581 170.800 C 40.958 175.209,40.953 192.013,41.573 196.400 C 42.320 201.681,45.468 215.306,46.536 217.883 C 47.064 219.157,47.807 221.190,48.186 222.400 C 49.140 225.445,52.532 232.687,55.024 237.000 C 59.193 244.215,60.835 246.691,64.574 251.400 C 69.861 258.057,70.540 259.249,70.728 262.209 C 71.246 270.333,65.911 278.036,56.294 283.053 C 46.381 288.225,44.437 291.475,44.407 302.926 C 44.392 308.695,48.000 309.917,73.600 312.817 C 79.264 313.459,89.913 313.265,94.848 312.430 C 97.352 312.007,101.007 311.456,102.971 311.206 C 105.098 310.935,107.928 310.215,109.971 309.426 C 111.857 308.697,114.120 307.880,115.000 307.611 C 118.912 306.415,126.702 302.451,133.000 298.454 C 135.360 296.956,138.467 296.864,143.861 298.132 C 151.299 299.880,163.568 300.596,175.600 299.985 C 198.836 298.805,225.008 289.888,241.600 277.498 C 259.216 264.343,266.380 257.218,274.676 244.600 C 278.964 238.077,284.360 227.809,285.605 223.800 C 285.878 222.920,286.553 221.120,287.105 219.800 C 294.885 201.185,294.885 166.015,287.105 147.400 C 286.553 146.080,285.878 144.280,285.605 143.400 C 284.342 139.335,279.001 129.167,274.679 122.600 C 266.417 110.048,259.416 103.068,241.831 89.848 C 234.492 84.331,218.237 76.023,211.227 74.207 C 209.822 73.843,207.514 73.109,206.099 72.576 C 203.408 71.564,190.668 68.836,183.800 67.802 C 179.013 67.082,162.930 66.720,156.400 67.187 M310.080 158.880 C 309.396 159.564,309.485 161.088,310.368 163.822 C 314.566 176.812,316.076 183.301,317.206 193.200 C 318.407 203.721,316.451 223.370,313.262 232.825 C 312.636 234.681,311.898 237.190,311.622 238.400 C 308.874 250.460,296.205 270.138,281.346 285.425 C 277.871 289.001,265.580 298.791,261.386 301.325 C 251.006 307.596,245.164 310.779,242.200 311.780 C 227.828 316.634,229.591 320.347,247.600 323.156 C 264.618 325.811,282.149 324.772,295.400 320.325 C 304.074 317.414,305.145 317.574,311.018 322.664 C 321.718 331.939,327.297 333.744,339.400 331.848 C 348.597 330.408,350.137 328.735,346.859 323.746 C 339.258 312.174,335.198 303.923,335.201 300.054 C 335.204 298.091,335.966 296.956,341.148 291.203 C 345.514 286.357,346.700 284.781,349.879 279.600 C 353.479 273.730,354.934 271.084,355.998 268.471 C 356.614 266.958,357.411 265.152,357.770 264.458 C 358.129 263.764,359.154 260.362,360.048 256.898 C 366.081 233.530,362.371 210.696,349.244 190.400 C 342.670 180.236,329.939 167.873,320.805 162.783 C 319.372 161.985,317.570 160.957,316.800 160.500 C 315.621 159.799,311.629 158.400,310.807 158.400 C 310.671 158.400,310.344 158.616,310.080 158.880 " stroke="none" fill-rule="evenodd"></path></g></svg>