<svg id="svg" version="1.1" xmlns="http://www.w3.org/2000/svg" xmlns:xlink="http://www.w3.org/1999/xlink" width="400" height="400" viewBox="0, 0, 400,400"><g id="svgg"><path id="path0" d="M185.600 78.243 C 140.895 81.924,105.190 116.428,100.792 160.200 C 99.997 168.110,100.477 271.105,101.325 274.530 C 106.119 293.905,119.426 306.682,138.594 310.316 C 143.441 311.235,254.627 311.375,260.362 310.469 C 280.782 307.244,295.564 292.776,299.256 272.400 C 300.034 268.111,300.058 163.601,299.284 158.200 C 293.340 116.768,262.777 85.710,221.288 78.943 C 217.590 78.339,190.808 77.815,185.600 78.243 M212.600 101.330 C 250.974 108.520,278.473 140.547,277.497 176.913 C 276.949 197.307,268.832 208.523,252.980 210.787 C 247.132 211.622,146.808 211.166,143.800 210.291 C 132.981 207.141,125.364 198.638,123.322 187.428 C 122.367 182.188,122.385 164.718,123.349 160.602 C 130.675 129.328,156.834 105.590,189.036 100.996 C 194.105 100.273,208.010 100.470,212.600 101.330 M163.953 146.128 C 157.933 148.379,156.200 151.749,156.200 161.208 L 156.200 167.817 157.518 170.494 C 162.374 180.359,174.773 178.260,177.209 167.160 C 177.780 164.557,177.538 155.826,176.831 153.527 C 175.136 148.020,168.733 144.341,163.953 146.128 M230.388 146.191 C 220.492 149.370,219.335 169.978,228.742 175.508 C 237.998 180.949,246.734 169.737,244.014 155.907 C 242.527 148.349,236.670 144.173,230.388 146.191 M64.687 179.228 C 60.968 180.125,58.104 182.978,56.724 187.159 C 54.974 192.463,55.207 253.314,56.998 258.453 C 60.254 267.802,72.026 268.012,76.364 258.800 L 77.400 256.600 77.400 222.600 C 77.400 190.863,77.352 188.462,76.678 186.532 C 74.886 181.395,69.445 178.081,64.687 179.228 M331.559 179.180 C 327.978 179.864,324.934 182.765,323.353 187.000 C 322.465 189.380,321.955 248.020,322.769 254.109 C 324.508 267.104,338.583 270.097,343.283 258.470 L 344.200 256.200 344.200 222.400 L 344.200 188.600 343.308 186.400 C 341.182 181.155,336.448 178.246,331.559 179.180 " stroke="none" fill-rule="evenodd"></path></g></svg>