<svg id="svg" version="1.1" xmlns="http://www.w3.org/2000/svg" xmlns:xlink="http://www.w3.org/1999/xlink" width="400" height="400" viewBox="0, 0, 400,400"><g id="svgg"><path id="path0" d="M181.200 78.431 C 140.470 82.778,106.325 116.798,100.735 158.600 C 99.825 165.406,99.963 268.151,100.889 273.037 C 104.556 292.390,118.977 306.826,138.301 310.488 C 142.402 311.266,257.732 311.232,262.000 310.452 C 280.772 307.022,294.837 293.184,299.253 273.800 C 300.205 269.621,300.046 161.190,299.080 155.725 C 291.982 115.582,263.350 86.771,222.800 78.966 C 218.828 78.202,187.166 77.795,181.200 78.431 M211.914 101.186 C 237.865 105.684,259.181 121.632,270.437 144.973 C 282.167 169.297,279.878 195.637,265.135 205.991 C 257.322 211.478,260.113 211.265,198.000 211.115 C 139.641 210.975,144.342 211.212,138.010 208.090 C 127.275 202.798,123.125 194.051,122.594 175.600 C 122.071 157.436,127.352 143.034,140.218 127.535 C 156.469 107.958,186.759 96.826,211.914 101.186 M162.585 146.146 C 157.451 148.537,155.795 152.276,155.831 161.400 C 155.873 172.123,159.375 177.188,166.754 177.198 C 174.146 177.207,177.762 171.952,177.762 161.200 C 177.762 150.527,174.116 145.208,166.800 145.208 C 165.331 145.208,163.930 145.520,162.585 146.146 M230.253 145.588 C 224.048 147.577,220.809 156.953,222.746 167.318 C 225.042 179.603,240.393 180.779,243.837 168.933 C 244.817 165.562,244.499 154.511,243.350 152.000 C 240.980 146.820,235.216 143.998,230.253 145.588 M63.354 179.047 C 59.636 180.365,56.779 184.173,56.026 188.812 C 55.478 192.190,55.463 251.940,56.009 255.718 C 58.073 269.991,75.728 269.506,77.596 255.124 C 78.093 251.297,78.107 193.987,77.613 189.683 C 76.667 181.456,70.188 176.623,63.354 179.047 M330.797 178.750 C 327.672 179.775,324.972 182.242,323.520 185.400 L 322.600 187.400 322.477 220.800 C 322.347 256.228,322.404 257.517,324.216 260.645 C 328.733 268.441,339.504 267.788,343.255 259.491 L 344.200 257.400 344.200 222.200 L 344.200 187.000 343.288 185.149 C 340.902 180.306,335.107 177.337,330.797 178.750 M131.184 229.410 C 142.235 233.544,142.743 233.575,200.000 233.575 C 255.824 233.575,257.788 233.471,267.200 230.004 C 275.248 227.041,275.791 227.030,277.200 229.815 C 277.958 231.311,278.301 259.995,277.640 266.562 C 276.542 277.479,269.013 286.139,258.600 288.464 C 254.421 289.397,144.267 289.239,140.850 288.295 C 132.934 286.108,126.487 280.101,123.507 272.134 C 122.666 269.885,122.629 269.140,122.489 251.600 C 122.280 225.448,122.064 225.999,131.184 229.410 " stroke="none" fill-rule="evenodd"></path></g></svg>