<svg id="svg" version="1.1" xmlns="http://www.w3.org/2000/svg" xmlns:xlink="http://www.w3.org/1999/xlink" width="400" height="400" viewBox="0, 0, 400,400"><g id="svgg"><path id="path0" d="M97.245 67.832 C 90.253 69.713,84.599 75.255,77.485 87.200 C 67.108 104.627,65.577 117.565,70.225 148.560 C 72.339 162.653,72.346 162.502,69.147 171.144 C 65.376 181.329,64.089 189.124,63.651 204.434 C 63.239 218.836,63.936 217.859,51.555 221.396 C 37.932 225.288,34.325 226.831,31.494 229.980 C 24.536 237.719,29.398 249.200,39.635 249.200 C 42.200 249.200,43.906 248.829,56.803 245.467 C 60.460 244.513,62.239 244.278,65.153 244.361 C 67.326 244.424,69.538 246.992,71.385 251.600 C 74.076 258.316,73.500 259.963,67.385 263.018 C 60.795 266.310,58.535 269.800,58.883 276.147 C 59.392 285.412,65.317 288.241,77.400 284.991 C 90.110 281.573,90.417 281.611,96.800 287.427 C 119.318 307.944,147.078 320.350,181.000 325.056 C 188.447 326.089,212.690 326.088,220.000 325.054 C 254.466 320.182,280.866 308.359,304.342 287.283 C 309.998 282.205,312.065 281.589,318.027 283.207 C 331.470 286.854,333.932 287.175,337.239 285.712 C 347.252 281.283,345.473 268.160,334.123 262.726 C 327.783 259.691,327.103 258.054,329.558 251.743 C 332.868 243.234,334.830 242.633,347.600 246.209 C 355.585 248.446,360.475 248.938,363.442 247.805 C 370.183 245.231,372.485 236.255,367.994 230.055 C 365.473 226.576,362.620 225.299,346.000 220.214 C 337.842 217.718,337.649 217.438,337.165 207.400 C 336.442 192.427,334.414 184.035,328.464 171.400 C 325.630 165.383,325.498 163.359,327.505 156.800 C 337.755 123.309,334.456 101.355,315.814 79.000 C 305.546 66.688,298.493 65.553,278.612 73.016 C 261.070 79.600,255.047 82.803,240.929 93.059 C 234.259 97.903,234.343 97.894,221.200 95.176 C 211.279 93.124,206.212 92.639,197.630 92.918 C 190.410 93.153,187.953 93.494,178.393 95.588 C 168.851 97.678,167.667 97.400,160.400 91.366 C 143.917 77.679,135.820 73.387,119.639 69.764 C 107.577 67.062,101.921 66.575,97.245 67.832 M116.353 91.601 C 128.852 94.681,135.411 98.688,152.400 113.621 C 162.202 122.236,163.043 122.576,169.655 120.600 C 191.493 114.075,202.129 113.462,220.800 117.653 C 224.650 118.517,229.321 119.685,231.179 120.249 C 238.784 122.556,239.837 122.223,249.600 114.433 C 261.961 104.570,268.420 100.743,281.416 95.582 C 296.030 89.779,297.319 90.033,303.916 100.000 C 310.899 110.550,312.917 122.248,310.049 135.555 C 308.520 142.652,307.165 144.398,302.409 145.398 C 290.445 147.915,288.536 157.153,297.896 167.239 C 309.029 179.235,313.541 188.945,314.864 203.758 C 315.747 213.654,314.817 215.306,307.842 216.222 C 291.863 218.320,288.817 234.854,303.554 239.501 C 309.323 241.320,309.314 245.604,303.525 253.400 C 301.750 255.791,301.136 256.290,295.778 259.692 C 292.679 261.659,290.850 264.005,289.220 268.104 C 286.112 275.919,272.595 285.548,253.477 293.568 C 241.196 298.719,224.770 302.675,211.639 303.644 C 180.860 305.916,150.498 298.302,126.195 282.217 C 117.454 276.431,115.621 274.516,112.955 268.380 C 110.426 262.558,109.102 261.082,104.004 258.402 C 99.251 255.903,97.294 253.947,94.852 249.254 C 92.169 244.097,92.597 242.122,96.862 239.968 C 108.717 233.984,105.841 219.450,92.354 217.182 C 85.853 216.088,84.973 213.584,85.964 199.000 C 87.137 181.735,90.047 174.598,100.251 163.963 C 106.338 157.618,106.986 156.487,106.987 152.200 C 106.990 146.446,103.693 142.846,97.265 141.581 C 90.917 140.332,89.822 137.544,89.813 122.600 L 89.807 114.200 91.293 109.800 C 93.472 103.345,98.194 94.631,100.874 92.120 C 103.749 89.427,107.081 89.315,116.353 91.601 M146.169 188.705 C 133.065 193.387,129.706 214.194,140.343 224.800 C 153.267 237.688,171.792 221.614,166.619 202.000 C 163.969 191.952,154.432 185.752,146.169 188.705 M245.232 188.634 C 231.997 193.443,228.573 214.143,239.242 224.837 C 253.592 239.220,273.390 217.874,263.983 198.162 C 260.228 190.296,252.068 186.149,245.232 188.634 M194.877 234.001 C 177.470 236.453,173.665 247.213,187.090 256.023 C 199.131 263.926,218.758 258.264,221.376 246.133 C 223.001 238.598,208.707 232.054,194.877 234.001 " stroke="none" fill-rule="evenodd"></path></g></svg>