<svg id="svg" version="1.1" xmlns="http://www.w3.org/2000/svg" xmlns:xlink="http://www.w3.org/1999/xlink" width="400" height="400" viewBox="0, 0, 400,400"><g id="svgg"><path id="path0" d="M96.600 67.760 C 88.501 70.321,80.017 80.284,73.165 95.278 C 66.326 110.244,65.900 122.150,71.047 154.481 C 72.187 161.641,71.908 163.856,68.892 171.598 C 65.366 180.645,63.851 190.349,63.400 206.783 C 63.067 218.910,63.879 218.106,47.600 222.427 C 32.788 226.358,27.114 231.300,28.181 239.338 C 29.494 249.236,36.413 251.519,51.400 247.000 C 63.427 243.374,67.444 243.516,69.505 247.641 C 74.782 258.202,74.460 259.749,66.209 263.467 C 55.016 268.511,56.300 285.289,67.986 286.673 C 70.173 286.932,73.771 286.222,81.000 284.105 C 89.122 281.727,90.537 281.991,96.080 286.922 C 103.003 293.081,105.714 295.148,114.600 301.045 C 126.849 309.173,138.118 314.721,149.200 318.078 C 150.630 318.511,153.780 319.468,156.200 320.204 C 160.656 321.560,171.432 323.745,180.200 325.071 C 187.858 326.229,214.490 326.118,222.000 324.896 C 231.962 323.276,240.173 321.628,243.600 320.560 C 245.470 319.978,248.440 319.091,250.200 318.590 C 267.517 313.657,289.962 300.665,304.800 286.986 C 310.509 281.722,311.849 281.446,320.063 283.837 C 333.156 287.648,336.946 287.592,340.614 283.532 C 346.692 276.804,343.934 266.716,335.000 263.000 C 327.697 259.962,326.987 258.601,329.419 252.285 C 333.016 242.940,335.125 242.349,349.222 246.733 C 363.071 251.040,370.957 247.195,370.315 236.447 C 369.918 229.809,365.869 226.156,355.400 222.990 C 336.074 217.146,337.731 218.637,337.181 206.600 C 336.532 192.394,334.521 184.076,328.867 172.200 C 325.519 165.170,325.402 163.597,327.692 156.400 C 328.496 153.870,329.450 150.270,329.810 148.400 C 330.171 146.530,330.888 143.290,331.404 141.200 C 336.191 121.817,333.049 103.715,322.033 87.200 C 310.151 69.388,301.868 65.282,287.200 69.937 C 268.013 76.026,255.694 82.109,241.805 92.353 C 234.152 97.997,234.244 97.987,219.800 94.795 C 212.005 93.073,207.410 92.675,198.045 92.910 C 189.664 93.121,187.407 93.416,179.000 95.400 C 168.739 97.822,168.169 97.675,159.281 90.339 C 141.843 75.947,132.516 71.621,110.615 67.767 C 106.684 67.075,98.777 67.071,96.600 67.760 M153.010 188.036 C 173.450 191.814,171.442 229.388,150.800 229.398 C 130.178 229.409,127.797 192.050,148.163 188.012 C 150.472 187.554,150.404 187.554,153.010 188.036 M251.827 188.035 C 266.680 190.756,271.664 213.143,260.018 224.826 C 248.309 236.570,231.399 225.021,232.956 206.344 C 233.815 196.052,239.940 189.008,249.227 187.634 C 249.351 187.615,250.521 187.796,251.827 188.035 M206.800 234.171 C 223.936 237.274,226.468 248.401,211.975 256.912 C 201.416 263.113,185.727 259.306,179.868 249.120 C 174.402 239.618,189.771 231.088,206.800 234.171 " stroke="none" fill-rule="evenodd"></path></g></svg>