<svg id="svg" version="1.1" xmlns="http://www.w3.org/2000/svg" xmlns:xlink="http://www.w3.org/1999/xlink" width="400" height="400" viewBox="0, 0, 400,400"><g id="svgg"><path id="path0" d="M291.800 93.792 C 280.517 96.276,244.614 116.926,236.897 125.371 C 233.314 129.290,233.600 123.656,233.600 190.400 C 233.600 260.446,232.675 252.562,241.742 259.818 C 250.429 266.772,281.335 283.057,290.004 285.249 C 305.034 289.049,320.063 278.859,321.981 263.566 C 322.532 259.167,322.557 121.615,322.007 116.831 C 320.245 101.504,306.027 90.660,291.800 93.792 M104.867 134.057 C 86.225 136.760,71.055 151.763,67.515 171.000 C 66.758 175.116,66.785 214.223,67.548 218.400 C 70.504 234.574,81.714 247.751,96.970 252.984 C 103.192 255.118,104.493 255.265,119.600 255.549 C 138.310 255.901,136.446 254.808,142.213 268.800 C 154.555 298.749,155.173 300.000,159.694 304.197 C 171.481 315.142,189.748 312.015,197.072 297.800 C 199.742 292.618,199.702 292.926,199.962 275.400 C 200.251 255.970,199.964 256.942,206.000 254.922 C 208.033 254.241,209.369 253.157,210.338 251.400 C 210.945 250.300,211.000 245.586,211.000 194.600 C 211.000 130.971,211.353 136.808,207.379 134.800 L 205.400 133.800 156.400 133.745 C 128.420 133.713,106.313 133.847,104.867 134.057 " stroke="none" fill-rule="evenodd"></path></g></svg>