<svg id="svg" version="1.1" xmlns="http://www.w3.org/2000/svg" xmlns:xlink="http://www.w3.org/1999/xlink" width="400" height="400" viewBox="0, 0, 400,400"><g id="svgg"><path id="path0" d="M285.600 96.120 C 282.487 96.968,277.220 99.248,260.000 107.202 C 256.590 108.777,252.270 110.749,250.400 111.584 C 235.311 118.321,229.245 121.962,223.027 128.012 C 216.809 134.061,224.578 133.366,160.400 133.617 C 105.409 133.832,104.976 133.840,101.800 134.689 C 84.719 139.256,73.387 150.120,68.648 166.472 C 65.985 175.663,65.989 212.351,68.655 221.550 C 74.816 242.811,90.386 254.456,114.106 255.543 C 125.312 256.057,124.339 255.024,131.671 274.200 C 137.810 290.256,140.371 295.179,145.151 300.114 C 161.359 316.850,187.369 313.471,196.825 293.400 C 199.536 287.648,199.659 286.814,199.944 272.382 C 200.297 254.450,199.072 255.800,214.983 255.800 C 227.754 255.800,226.737 255.585,233.800 259.781 C 237.295 261.858,240.742 263.522,255.800 270.403 C 259.760 272.213,266.690 275.394,271.200 277.472 C 284.723 283.702,289.928 285.124,296.516 284.385 C 310.204 282.850,320.611 271.985,321.991 257.792 C 322.529 252.264,322.529 127.565,321.991 121.898 C 320.232 103.348,303.242 91.313,285.600 96.120 M295.800 118.352 C 297.761 119.253,298.710 120.280,299.420 122.274 C 300.153 124.326,300.273 254.665,299.545 256.840 C 297.880 261.812,293.633 263.128,287.509 260.570 C 284.683 259.389,264.431 250.122,253.200 244.870 C 240.193 238.788,236.327 235.208,234.117 227.197 C 233.024 223.239,233.015 156.395,234.106 152.445 C 236.457 143.934,240.094 140.677,254.884 133.836 C 293.004 116.203,291.971 116.594,295.800 118.352 M208.646 156.482 C 211.315 157.944,211.200 156.233,211.199 194.460 C 211.199 232.659,211.334 230.617,208.672 232.572 C 207.599 233.359,206.894 233.410,194.453 233.600 C 176.110 233.880,178.000 231.072,178.000 258.054 C 178.000 271.029,177.842 279.041,177.554 280.697 C 176.119 288.937,166.847 291.114,160.858 284.617 C 158.328 281.871,158.198 281.575,148.220 255.800 C 138.743 231.318,141.626 233.884,123.219 233.547 C 112.159 233.344,108.924 233.162,107.017 232.631 C 98.929 230.378,91.971 223.359,89.710 215.170 C 88.763 211.742,88.630 177.281,89.549 173.600 C 91.772 164.696,99.675 157.313,108.363 156.023 C 113.242 155.299,207.271 155.729,208.646 156.482 " stroke="none" fill-rule="evenodd"></path></g></svg>