<svg id="svg" version="1.1" xmlns="http://www.w3.org/2000/svg" xmlns:xlink="http://www.w3.org/1999/xlink" width="400" height="400" viewBox="0, 0, 400,400"><g id="svgg"><path id="path0" d="M194.263 56.806 C 176.384 63.149,174.504 87.559,191.262 95.756 C 211.807 105.805,230.346 78.620,214.160 62.177 C 208.860 56.792,200.591 54.560,194.263 56.806 M60.391 107.285 C 45.906 112.362,41.399 130.330,51.802 141.524 C 66.297 157.122,91.344 142.695,86.006 121.823 C 83.088 110.416,71.013 103.562,60.391 107.285 M328.400 107.323 C 310.581 113.505,309.457 137.910,326.600 146.418 C 340.209 153.172,357.467 139.672,354.874 124.300 C 352.706 111.451,339.996 103.300,328.400 107.323 M200.163 122.001 C 193.325 123.404,193.413 123.274,175.598 158.600 C 151.972 205.452,151.893 205.572,144.800 205.587 C 140.505 205.597,140.530 205.613,116.200 186.608 C 96.304 171.066,95.484 170.465,91.842 168.761 C 78.776 162.647,64.142 173.305,65.387 188.030 C 65.762 192.468,67.736 200.682,78.216 241.400 C 79.462 246.240,80.983 252.270,81.596 254.800 C 82.209 257.330,83.916 264.080,85.390 269.800 C 86.865 275.520,88.573 282.270,89.187 284.800 C 90.246 289.164,93.290 301.060,95.959 311.270 C 99.348 324.235,103.844 329.030,115.679 332.303 C 119.628 333.395,280.818 333.379,284.800 332.287 C 295.943 329.229,300.852 323.772,303.948 311.000 C 304.588 308.360,308.753 291.800,313.203 274.200 C 317.653 256.600,321.734 240.310,322.272 238.000 C 322.809 235.690,323.677 232.270,324.200 230.400 C 324.723 228.530,325.592 225.110,326.131 222.800 C 326.670 220.490,328.579 212.840,330.373 205.800 C 336.294 182.570,334.690 175.146,322.442 169.076 L 319.062 167.400 314.231 167.406 C 306.088 167.416,304.805 168.183,284.800 185.004 C 261.634 204.483,261.140 204.834,256.499 205.133 C 246.870 205.751,236.491 188.319,220.219 144.200 C 215.811 132.248,214.387 128.986,212.564 126.663 C 209.736 123.060,204.533 121.104,200.163 122.001 " stroke="none" fill-rule="evenodd"></path></g></svg>