<svg id="svg" version="1.1" xmlns="http://www.w3.org/2000/svg" xmlns:xlink="http://www.w3.org/1999/xlink" width="400" height="400" viewBox="0, 0, 400,400"><g id="svgg"><path id="path0" d="M195.214 56.640 C 178.503 61.131,174.270 83.184,188.099 93.702 C 201.310 103.750,220.138 93.935,220.138 77.000 C 220.138 63.677,207.486 53.342,195.214 56.640 M61.525 106.988 C 44.471 111.685,40.774 134.215,55.375 144.468 C 66.925 152.580,82.383 146.341,86.026 132.098 C 89.811 117.298,75.890 103.031,61.525 106.988 M329.645 107.032 C 306.870 113.157,311.089 147.800,334.609 147.800 L 339.460 147.800 342.905 146.093 C 364.956 135.166,353.250 100.684,329.645 107.032 M198.279 122.578 C 192.739 124.554,192.918 124.263,174.073 161.800 C 152.755 204.264,151.810 205.680,144.796 205.680 C 140.405 205.680,140.218 205.555,114.800 185.624 C 92.092 167.817,90.625 166.963,83.263 167.272 C 71.881 167.749,64.143 177.394,65.630 189.251 C 66.211 193.886,68.004 201.259,78.408 241.800 C 79.763 247.080,81.284 253.110,81.786 255.200 C 82.289 257.290,83.907 263.680,85.382 269.400 C 86.856 275.120,88.567 281.870,89.182 284.400 C 89.798 286.930,91.511 293.680,92.990 299.400 C 94.469 305.120,96.037 311.240,96.473 313.000 C 98.971 323.061,103.755 328.209,113.800 331.643 L 116.600 332.600 200.200 332.600 C 294.010 332.600,284.451 332.905,291.095 329.700 C 299.645 325.575,301.101 322.675,307.211 297.600 C 307.827 295.070,311.160 281.840,314.617 268.200 C 318.074 254.560,321.479 240.970,322.185 238.000 C 322.890 235.030,323.770 231.571,324.141 230.313 C 324.512 229.055,325.331 225.815,325.962 223.113 C 326.593 220.411,328.463 212.890,330.118 206.400 C 334.317 189.935,334.752 185.967,332.942 180.587 C 329.776 171.171,318.468 165.106,309.173 167.839 C 303.710 169.444,302.034 170.640,284.000 185.804 C 261.659 204.590,260.670 205.280,256.096 205.280 C 248.101 205.280,239.889 193.392,227.992 164.600 C 225.875 159.476,222.424 150.449,217.593 137.400 C 212.680 124.129,206.730 119.563,198.279 122.578 M202.892 163.100 C 203.784 164.112,205.343 167.338,207.226 172.067 C 214.739 190.932,219.767 200.382,229.111 213.200 C 236.304 223.067,244.906 227.708,256.000 227.708 C 267.158 227.708,270.648 225.756,293.400 206.787 C 304.246 197.745,306.035 196.714,307.604 198.604 C 308.952 200.229,308.755 201.194,300.189 235.000 C 296.733 248.640,293.407 261.870,292.798 264.400 C 283.554 302.819,281.656 308.851,278.397 310.155 C 275.712 311.229,123.735 311.116,121.360 310.038 C 118.452 308.717,117.643 307.026,115.214 297.200 C 114.371 293.790,112.476 286.320,111.003 280.600 C 109.529 274.880,107.911 268.490,107.406 266.400 C 106.901 264.310,105.280 257.920,103.803 252.200 C 102.326 246.480,100.616 239.730,100.002 237.200 C 99.389 234.670,97.768 228.280,96.399 223.000 C 88.919 194.140,89.267 193.675,107.600 208.025 C 122.661 219.815,127.170 223.101,130.587 224.782 C 145.179 231.958,161.492 227.715,171.268 214.200 C 173.703 210.833,180.282 198.606,188.915 181.400 C 194.046 171.174,197.624 164.511,198.419 163.700 C 199.883 162.208,201.872 161.942,202.892 163.100 " stroke="none" fill-rule="evenodd"></path></g></svg>