<svg id="svg" version="1.1" xmlns="http://www.w3.org/2000/svg" xmlns:xlink="http://www.w3.org/1999/xlink" width="400" height="400" viewBox="0, 0, 400,400"><g id="svgg"><path id="path0" d="M99.531 100.418 C 83.943 101.764,71.561 112.637,67.677 128.390 C 66.855 131.724,66.417 272.806,67.208 279.749 C 68.917 294.771,79.003 305.979,94.547 310.131 L 97.800 311.000 200.200 311.000 L 302.600 311.000 305.865 310.128 C 322.605 305.658,332.149 293.794,333.239 276.102 C 333.960 264.405,333.476 166.902,332.680 163.294 C 330.083 151.538,321.369 141.384,310.517 137.469 C 303.494 134.936,306.233 135.068,255.600 134.823 C 209.415 134.600,209.399 134.600,207.542 133.741 C 205.162 132.641,203.801 130.885,197.800 121.170 C 189.860 108.316,184.057 103.682,172.410 100.896 C 169.438 100.185,106.973 99.775,99.531 100.418 M167.659 122.944 C 173.517 124.323,174.146 125.054,185.962 144.200 C 191.169 152.637,193.062 154.994,195.567 156.152 C 197.396 156.998,197.500 157.000,248.600 157.211 C 285.570 157.363,300.158 157.548,301.089 157.879 C 306.686 159.870,309.787 163.301,310.764 168.586 C 311.457 172.338,311.356 275.085,310.656 278.059 C 309.627 282.429,306.818 285.776,302.618 287.633 C 299.184 289.152,292.858 289.240,195.200 289.115 L 101.400 288.995 98.722 288.088 C 95.364 286.951,92.101 284.103,90.569 280.973 C 88.958 277.680,88.943 276.785,89.181 201.791 L 89.400 132.982 90.717 130.308 C 92.692 126.296,96.097 123.692,100.508 122.822 C 103.554 122.221,165.061 122.333,167.659 122.944 " stroke="none" fill-rule="evenodd"></path></g></svg>