<svg id="svg" version="1.1" xmlns="http://www.w3.org/2000/svg" xmlns:xlink="http://www.w3.org/1999/xlink" width="400" height="400" viewBox="0, 0, 400,400"><g id="svgg"><path id="path0" d="M279.562 117.225 C 266.523 118.625,254.715 126.604,249.113 137.800 C 247.511 141.002,246.224 142.656,244.679 143.500 C 243.479 144.157,238.977 144.212,171.400 144.403 C 89.024 144.635,96.881 144.242,92.817 148.336 C 87.000 154.194,89.128 162.788,97.200 166.037 C 98.379 166.511,109.944 166.632,170.600 166.800 L 242.600 167.000 244.506 167.938 C 245.904 168.627,246.691 169.372,247.463 170.738 C 254.646 183.460,262.651 190.368,273.200 192.948 C 309.807 201.901,336.958 160.977,313.823 131.720 C 305.692 121.436,292.462 115.839,279.562 117.225 M286.416 140.003 C 296.567 141.928,302.427 153.010,298.111 162.121 C 291.268 176.569,270.318 173.785,267.548 158.059 C 265.697 147.551,275.707 137.972,286.416 140.003 M113.000 217.245 C 87.326 219.739,71.390 245.715,80.797 269.738 C 93.212 301.446,136.668 302.657,152.150 271.725 C 153.122 269.782,154.741 268.194,156.600 267.359 C 157.058 267.154,188.289 266.914,229.600 266.800 L 301.800 266.600 303.800 265.680 C 314.656 260.688,312.189 246.554,300.158 244.815 C 298.412 244.562,271.943 244.412,228.000 244.406 C 180.831 244.399,158.116 244.261,157.089 243.976 C 154.964 243.386,153.144 241.641,151.601 238.714 C 143.757 223.834,129.097 215.681,113.000 217.245 M120.586 240.213 C 138.822 244.963,135.614 271.369,116.800 271.369 C 98.031 271.369,94.693 245.113,112.842 240.233 C 115.677 239.471,117.716 239.465,120.586 240.213 " stroke="none" fill="#f8f8f8" fill-rule="evenodd"></path></g></svg>