<svg id="svg" version="1.1" xmlns="http://www.w3.org/2000/svg" xmlns:xlink="http://www.w3.org/1999/xlink" width="400" height="400" viewBox="0, 0, 400,400"><g id="svgg"><path id="path0" d="M196.200 49.269 C 191.302 51.117,188.146 55.111,184.559 64.000 C 181.788 70.869,180.368 74.261,179.996 74.903 C 179.772 75.290,179.050 77.000,178.390 78.703 C 177.731 80.406,176.663 82.970,176.018 84.400 C 174.974 86.714,172.819 91.830,169.867 99.000 C 169.324 100.320,168.029 103.380,166.990 105.800 C 165.952 108.220,164.483 111.730,163.727 113.600 C 162.971 115.470,161.733 118.358,160.976 120.018 C 160.219 121.678,159.600 123.169,159.600 123.333 C 159.600 123.600,157.227 128.986,155.115 133.513 C 153.828 136.273,152.490 136.728,143.688 137.400 C 135.190 138.050,134.562 138.108,124.347 139.199 C 120.247 139.637,111.517 140.358,104.947 140.801 C 94.307 141.517,80.975 142.752,70.057 144.030 C 57.290 145.526,51.421 155.948,58.177 165.127 C 60.231 167.916,63.392 170.748,91.825 195.266 C 125.130 223.985,123.523 222.514,124.437 225.134 C 124.917 226.511,124.072 231.026,121.133 242.800 C 120.446 245.550,119.386 250.232,118.777 253.205 C 118.168 256.177,117.211 260.227,116.651 262.205 C 116.091 264.182,115.339 267.420,114.980 269.400 C 114.621 271.380,113.804 274.877,113.163 277.170 C 112.523 279.464,111.719 282.884,111.377 284.770 C 111.035 286.657,110.139 290.540,109.386 293.400 C 104.175 313.196,105.042 319.515,113.543 323.700 C 118.797 326.287,122.928 325.340,132.779 319.293 C 138.623 315.705,155.728 305.365,158.400 303.805 C 159.610 303.099,163.480 300.757,167.000 298.602 C 176.333 292.887,186.256 286.892,188.938 285.347 C 190.223 284.607,191.753 283.664,192.338 283.251 C 199.896 277.916,198.353 277.405,226.600 294.610 C 230.120 296.754,233.990 299.089,235.200 299.798 C 236.410 300.507,242.080 303.921,247.800 307.385 C 277.414 325.317,276.646 324.913,281.200 324.965 C 288.134 325.045,293.743 319.761,294.289 312.636 C 294.485 310.075,292.437 298.698,290.777 293.124 C 290.335 291.638,289.465 287.942,288.844 284.911 C 288.223 281.880,287.138 277.060,286.432 274.200 C 283.426 262.014,282.652 258.713,281.604 253.600 C 280.996 250.630,280.123 246.991,279.666 245.512 C 279.208 244.034,278.461 240.896,278.006 238.539 C 277.552 236.181,276.824 232.861,276.390 231.160 C 274.748 224.729,275.256 223.739,284.000 216.339 C 285.430 215.129,290.110 211.084,294.400 207.351 C 298.690 203.617,306.140 197.176,310.956 193.036 C 343.935 164.690,343.494 165.129,344.331 159.800 C 345.350 153.317,342.098 147.441,336.288 145.267 C 333.314 144.155,311.643 141.808,295.000 140.797 C 291.040 140.556,282.580 139.832,276.200 139.188 C 269.820 138.544,261.167 137.759,256.971 137.443 C 245.741 136.600,246.201 136.966,241.334 125.000 C 240.797 123.680,239.746 121.250,238.998 119.600 C 238.251 117.950,237.200 115.430,236.663 114.000 C 235.698 111.428,233.844 107.037,231.596 102.000 C 230.958 100.570,229.818 97.870,229.063 96.000 C 226.527 89.716,225.562 87.417,224.026 84.000 C 223.185 82.130,222.271 79.880,221.995 79.000 C 221.718 78.120,221.127 76.680,220.682 75.800 C 219.914 74.282,219.065 72.290,215.233 63.011 C 212.177 55.612,209.491 52.029,205.400 49.896 C 203.519 48.915,198.114 48.547,196.200 49.269 M201.772 89.700 C 202.718 90.538,204.947 95.166,207.601 101.800 C 208.217 103.340,209.338 106.040,210.092 107.800 C 210.846 109.560,211.873 111.990,212.375 113.200 C 212.878 114.410,214.057 117.200,214.995 119.400 C 215.934 121.600,217.115 124.390,217.620 125.600 C 218.125 126.810,219.154 129.240,219.908 131.000 C 220.662 132.760,221.783 135.460,222.401 137.000 C 227.781 150.426,229.709 153.426,234.664 156.089 C 238.481 158.140,241.201 158.633,252.808 159.377 C 258.202 159.723,267.832 160.537,274.208 161.184 C 280.583 161.832,289.783 162.637,294.651 162.972 C 308.018 163.894,309.221 165.254,302.131 171.431 C 300.849 172.548,295.570 177.118,290.400 181.587 C 266.176 202.526,257.866 209.830,256.682 211.220 C 251.728 217.037,251.103 221.835,253.927 232.400 C 254.603 234.930,255.440 238.530,255.786 240.400 C 256.132 242.270,256.941 245.690,257.583 248.000 C 258.226 250.310,259.043 253.820,259.400 255.800 C 259.757 257.780,260.662 261.740,261.412 264.600 C 262.161 267.460,263.224 271.870,263.773 274.400 C 264.322 276.930,265.138 280.338,265.586 281.973 C 266.468 285.193,266.647 288.792,265.986 290.026 C 264.996 291.877,264.043 291.436,248.200 281.808 C 242.480 278.332,236.720 274.867,235.400 274.109 C 234.080 273.351,232.820 272.582,232.600 272.400 C 232.380 272.218,231.120 271.449,229.800 270.691 C 228.480 269.933,224.070 267.270,220.000 264.773 C 201.546 253.451,199.170 253.199,186.200 261.181 C 184.880 261.994,182.810 263.254,181.600 263.982 C 164.062 274.532,154.685 280.190,149.400 283.409 C 136.543 291.240,135.477 291.701,134.253 289.955 C 133.307 288.603,133.441 286.656,134.848 281.327 C 135.534 278.727,136.588 274.260,137.190 271.400 C 137.792 268.540,138.860 263.860,139.564 261.000 C 142.233 250.161,144.054 242.445,144.991 238.000 C 145.525 235.470,146.359 232.050,146.846 230.400 C 147.519 228.118,147.739 226.299,147.765 222.800 C 147.828 214.469,147.406 213.962,122.793 192.800 C 93.736 167.818,93.592 167.680,94.165 165.397 C 94.522 163.973,96.259 163.605,105.600 162.972 C 110.330 162.652,115.910 162.218,118.000 162.008 C 120.090 161.798,125.310 161.267,129.600 160.829 C 133.890 160.390,141.720 159.748,147.000 159.402 C 166.037 158.154,169.764 156.212,174.386 145.127 C 175.241 143.077,176.785 139.420,177.817 137.000 C 178.850 134.580,180.307 131.070,181.055 129.200 C 181.804 127.330,182.943 124.630,183.586 123.200 C 185.690 118.524,187.656 113.862,188.987 110.387 C 189.706 108.511,190.679 106.220,191.150 105.298 C 191.621 104.375,192.433 102.491,192.956 101.110 C 197.172 89.970,199.164 87.391,201.772 89.700 " stroke="none" fill-rule="evenodd"></path></g></svg>