<svg id="svg" version="1.1" xmlns="http://www.w3.org/2000/svg" xmlns:xlink="http://www.w3.org/1999/xlink" width="400" height="400" viewBox="0, 0, 400,400"><g id="svgg"><path id="path0" d="M194.000 56.259 C 178.925 58.523,167.952 64.798,157.966 76.863 C 153.552 82.196,152.793 82.617,145.363 83.853 C 109.849 89.761,90.446 122.688,103.152 155.487 C 105.596 161.796,105.752 163.717,104.162 167.882 C 100.093 178.542,99.077 183.747,99.286 192.850 C 99.497 202.023,99.883 201.800,83.800 201.800 C 65.642 201.800,66.450 200.813,66.938 222.400 C 67.310 238.831,68.982 250.037,72.978 262.879 C 86.663 306.854,123.773 341.212,169.029 351.806 C 171.433 352.369,175.242 353.461,177.493 354.233 L 181.585 355.636 200.893 355.517 L 220.200 355.398 223.556 354.088 C 225.402 353.368,228.642 352.408,230.756 351.956 C 279.288 341.570,320.576 299.637,330.357 250.800 C 332.748 238.857,332.869 237.575,333.089 221.766 C 333.389 200.256,334.665 201.800,316.583 201.800 C 300.004 201.800,301.131 202.612,300.762 190.400 C 300.468 180.642,299.942 177.837,297.095 170.829 C 294.289 163.923,294.293 162.519,297.131 155.293 C 305.396 134.249,299.591 110.305,282.818 96.259 C 274.266 89.098,266.337 85.585,254.800 83.846 C 247.221 82.703,247.032 82.590,241.440 75.871 C 229.606 61.653,210.547 53.774,194.000 56.259 M209.004 79.389 C 220.053 83.097,226.952 90.347,229.947 101.394 C 231.794 108.206,232.432 108.476,241.800 106.408 C 272.230 99.690,291.120 135.565,268.900 157.876 C 264.178 162.617,264.168 163.686,268.804 168.200 C 292.013 190.796,271.823 226.879,240.129 219.448 C 232.424 217.642,231.763 217.981,229.996 224.651 C 221.593 256.353,178.360 255.667,169.977 223.698 C 168.532 218.188,167.543 217.750,160.197 219.369 C 147.427 222.185,138.677 219.861,130.188 211.400 C 117.982 199.235,118.741 179.118,131.830 167.860 C 136.018 164.258,135.895 162.731,131.004 157.563 C 109.002 134.318,128.362 99.565,159.393 106.604 C 166.833 108.291,168.613 107.827,169.579 103.946 C 174.424 84.468,191.833 73.624,209.004 79.389 M194.500 140.218 C 181.718 143.660,174.550 158.790,180.296 170.200 C 188.606 186.701,210.871 187.128,219.488 170.952 C 228.107 154.771,212.364 135.408,194.500 140.218 M105.103 225.218 C 128.010 228.398,145.272 236.726,165.550 254.380 C 168.196 256.684,178.447 268.656,181.664 273.200 C 187.324 281.196,193.133 293.788,196.425 305.200 C 198.926 313.872,201.475 313.670,203.998 304.600 C 214.646 266.321,249.326 233.896,287.600 226.433 C 309.556 222.152,312.576 223.805,310.193 238.800 C 305.505 268.300,292.277 290.723,268.200 309.980 C 237.767 334.320,196.782 339.964,157.808 325.181 C 122.103 311.638,93.813 274.339,89.596 235.246 C 88.441 224.533,90.513 223.193,105.103 225.218 " stroke="none" fill-rule="evenodd"></path></g></svg>