<svg id="svg" version="1.1" xmlns="http://www.w3.org/2000/svg" xmlns:xlink="http://www.w3.org/1999/xlink" width="400" height="400" viewBox="0, 0, 400,400"><g id="svgg"><path id="path0" d="M192.600 60.955 C 179.041 63.560,169.421 69.450,160.667 80.507 C 155.879 86.555,155.066 86.989,146.294 88.187 C 121.331 91.596,103.897 111.057,103.820 135.600 C 103.793 144.034,104.601 147.702,108.615 157.366 C 110.640 162.241,110.493 164.760,107.826 170.888 C 97.922 193.645,106.243 219.272,127.600 231.792 C 133.509 235.256,139.395 237.118,147.800 238.183 C 154.695 239.057,156.050 239.824,160.463 245.354 C 182.230 272.633,217.786 272.859,239.378 245.857 C 244.309 239.690,245.186 239.201,253.446 238.008 C 287.647 233.068,305.502 201.322,291.902 169.636 C 289.475 163.982,289.550 162.312,292.563 154.842 C 302.469 130.288,292.937 104.421,269.715 92.833 C 263.999 89.981,261.486 89.314,250.065 87.617 C 245.224 86.898,243.746 85.868,239.069 79.959 C 227.518 65.366,209.020 57.801,192.600 60.955 M206.622 140.436 C 209.845 141.431,213.297 143.718,216.000 146.647 C 235.044 167.285,204.646 196.274,184.786 176.414 C 168.836 160.463,185.037 133.769,206.622 140.436 M81.278 217.870 C 74.418 221.251,71.096 232.558,73.234 245.250 C 80.851 290.465,114.354 329.393,158.400 344.205 C 163.429 345.897,166.584 346.745,178.000 349.475 L 184.200 350.958 198.714 351.102 C 214.680 351.260,213.541 351.369,226.400 348.449 C 272.591 337.959,308.321 306.210,322.649 262.923 C 329.695 241.636,328.776 227.005,319.916 219.421 C 315.821 215.916,313.642 217.046,308.838 225.163 C 298.789 242.146,284.299 252.847,264.087 258.214 C 257.054 260.082,256.259 260.525,251.200 265.402 C 241.197 275.046,233.027 280.196,222.000 283.811 C 212.770 286.837,211.928 287.812,211.243 296.264 C 210.449 306.071,206.939 310.400,199.781 310.400 C 193.569 310.400,189.931 305.817,188.985 296.799 C 188.038 287.766,187.527 287.231,175.800 282.977 C 166.121 279.465,158.280 274.359,149.758 266.020 C 144.550 260.923,143.137 260.119,135.979 258.179 C 115.459 252.620,101.977 242.548,91.151 224.689 C 86.668 217.294,84.910 216.080,81.278 217.870 " stroke="none" fill-rule="evenodd"></path></g></svg>