<svg id="svg" version="1.1" xmlns="http://www.w3.org/2000/svg" xmlns:xlink="http://www.w3.org/1999/xlink" width="400" height="400" viewBox="0, 0, 400,400"><g id="svgg"><path id="path0" d="M131.800 89.469 C 116.909 90.827,101.658 97.953,91.190 108.445 C 78.991 120.672,73.100 133.945,70.261 155.600 C 69.698 159.890,68.701 167.180,68.044 171.800 C 65.646 188.670,64.744 195.150,63.787 202.400 C 63.249 206.470,62.265 213.490,61.601 218.000 C 60.936 222.510,59.866 230.250,59.222 235.200 C 58.578 240.150,57.647 246.720,57.152 249.800 C 55.779 258.360,55.844 269.515,57.297 274.892 C 66.072 307.339,100.559 320.903,128.000 302.699 C 130.159 301.267,135.187 296.515,145.943 285.740 C 156.834 274.828,161.443 270.476,162.943 269.685 L 165.000 268.600 199.462 268.491 C 233.875 268.383,233.927 268.384,236.262 269.244 C 238.453 270.050,239.557 271.067,253.800 285.397 C 269.941 301.637,272.099 303.460,278.847 306.559 C 296.453 314.647,316.606 311.064,330.217 297.424 C 341.976 285.640,346.259 270.363,343.230 251.000 C 342.783 248.140,342.045 243.010,341.590 239.600 C 341.135 236.190,340.223 229.620,339.562 225.000 C 338.901 220.380,337.835 212.538,337.193 207.573 C 336.551 202.608,335.665 196.299,335.224 193.552 C 334.784 190.805,334.050 185.508,333.594 181.779 C 333.139 178.051,332.240 171.490,331.598 167.200 C 330.956 162.910,330.065 156.597,329.619 153.172 C 325.156 118.910,305.450 96.711,273.607 90.074 C 270.816 89.493,137.770 88.925,131.800 89.469 M241.645 145.202 C 254.389 147.580,259.589 162.869,250.811 172.151 C 242.847 180.572,229.529 178.558,224.409 168.158 C 218.736 156.634,229.080 142.857,241.645 145.202 M149.104 146.227 C 153.373 148.354,155.094 151.507,155.597 158.121 C 156.160 165.523,157.341 166.792,163.680 166.798 C 171.860 166.806,177.242 171.142,177.271 177.746 C 177.300 184.533,172.650 188.400,163.712 189.022 C 157.157 189.478,156.094 190.453,155.760 196.321 C 155.226 205.726,151.441 210.563,144.600 210.585 C 137.750 210.608,134.345 206.487,133.414 197.049 C 132.701 189.814,132.492 189.626,124.355 188.877 C 116.747 188.177,112.682 185.021,111.798 179.129 C 110.795 172.437,116.033 167.502,124.837 166.845 C 132.269 166.291,132.692 165.873,133.434 158.354 C 134.492 147.627,141.316 142.346,149.104 146.227 M278.922 179.744 C 291.498 185.897,291.758 202.931,279.370 209.054 C 263.866 216.716,249.082 197.848,259.884 184.185 C 264.092 178.864,272.915 176.805,278.922 179.744 " stroke="none" fill-rule="evenodd"></path></g></svg>