<svg id="svg" version="1.1" xmlns="http://www.w3.org/2000/svg" xmlns:xlink="http://www.w3.org/1999/xlink" width="400" height="400" viewBox="0, 0, 400,400"><g id="svgg"><path id="path0" d="M131.600 89.456 C 98.253 92.762,74.855 117.638,70.399 154.521 C 69.953 158.218,69.147 163.978,68.610 167.321 C 68.072 170.665,67.262 176.550,66.809 180.400 C 66.357 184.250,65.459 190.730,64.814 194.800 C 64.169 198.870,63.358 204.720,63.011 207.800 C 62.664 210.880,61.854 216.730,61.210 220.800 C 60.566 224.870,59.748 230.791,59.391 233.958 C 59.034 237.125,58.206 243.065,57.550 247.158 C 54.392 266.877,56.148 278.335,64.176 290.393 C 72.946 303.568,86.065 310.530,102.200 310.574 L 110.200 310.596 115.800 308.703 C 125.951 305.272,129.135 302.895,144.462 287.306 C 159.805 271.702,160.556 270.977,162.692 269.722 L 164.600 268.600 199.545 268.491 L 234.491 268.383 236.745 269.409 C 238.679 270.288,241.132 272.586,254.000 285.570 C 269.596 301.307,271.629 303.048,278.200 306.300 C 302.105 318.130,331.591 306.165,341.017 280.810 C 344.615 271.133,345.156 262.724,343.025 249.600 C 342.436 245.970,341.516 239.400,340.982 235.000 C 340.448 230.600,339.560 224.210,339.010 220.800 C 338.459 217.390,337.638 211.450,337.186 207.600 C 336.733 203.750,335.837 197.270,335.195 193.200 C 334.553 189.130,333.657 182.650,333.206 178.800 C 332.754 174.950,332.034 169.730,331.606 167.200 C 331.178 164.670,330.387 159.090,329.848 154.800 C 325.355 118.996,305.881 96.672,273.262 89.932 C 271.173 89.500,135.741 89.045,131.600 89.456 M268.200 111.630 C 289.377 114.147,304.553 130.973,307.628 155.345 C 308.075 158.895,308.963 165.130,309.600 169.200 C 310.237 173.270,311.052 179.210,311.411 182.400 C 311.771 185.590,312.493 190.814,313.016 194.010 C 313.540 197.205,314.422 203.520,314.976 208.042 C 315.530 212.564,316.426 219.039,316.968 222.432 C 317.509 225.824,318.235 231.120,318.580 234.200 C 318.926 237.280,319.856 243.940,320.647 249.000 C 322.339 259.823,322.576 266.268,321.428 270.200 C 316.941 285.567,300.540 293.310,287.694 286.126 C 283.112 283.563,279.699 280.445,265.857 266.168 C 249.310 249.101,248.742 248.560,246.000 247.251 L 243.800 246.200 201.000 246.200 C 177.460 246.200,157.363 246.343,156.341 246.518 C 153.247 247.048,151.454 248.633,136.202 264.311 C 119.132 281.859,116.643 284.148,112.237 286.349 C 99.085 292.919,84.098 285.919,78.949 270.800 C 77.736 267.238,77.964 258.526,79.513 249.200 C 80.190 245.130,81.128 238.560,81.599 234.600 C 82.070 230.640,82.891 224.700,83.424 221.400 C 83.957 218.100,84.761 212.250,85.212 208.400 C 85.663 204.550,86.469 198.680,87.004 195.355 C 87.539 192.030,88.436 185.550,88.998 180.955 C 89.560 176.360,90.369 170.530,90.795 168.000 C 91.221 165.470,91.946 160.430,92.407 156.800 C 95.669 131.080,110.424 114.113,131.676 111.644 C 136.153 111.123,263.831 111.111,268.200 111.630 M140.096 146.227 C 135.683 148.426,134.002 151.630,133.583 158.638 C 133.141 166.043,132.788 166.420,125.887 166.856 C 117.276 167.399,113.151 170.125,111.959 176.062 C 110.544 183.110,115.700 188.185,124.902 188.800 C 132.885 189.334,133.133 189.571,133.593 197.092 C 134.145 206.102,137.824 210.605,144.600 210.564 C 151.388 210.523,155.021 206.048,155.557 197.067 C 155.999 189.662,156.342 189.323,163.872 188.823 C 172.864 188.227,177.214 184.683,177.191 177.974 C 177.167 170.823,171.840 166.811,162.360 166.802 C 156.814 166.797,156.004 165.869,155.562 159.017 C 155.211 153.556,154.859 152.105,153.364 149.948 C 150.263 145.473,144.725 143.920,140.096 146.227 M234.009 145.842 C 220.178 150.855,219.021 169.369,232.137 175.787 C 248.156 183.624,263.022 162.447,250.317 149.889 C 246.109 145.731,239.110 143.994,234.009 145.842 M267.332 179.150 C 253.527 184.276,252.307 202.568,265.340 209.009 C 279.073 215.796,293.758 200.804,286.622 187.282 C 282.904 180.236,274.242 176.585,267.332 179.150 " stroke="none" fill-rule="evenodd"></path></g></svg>