<svg id="svg" version="1.1" xmlns="http://www.w3.org/2000/svg" xmlns:xlink="http://www.w3.org/1999/xlink" width="400" height="400" viewBox="0, 0, 400,400"><g id="svgg"><path id="path0" d="M130.531 100.993 C 96.916 107.092,78.913 144.591,95.444 174.074 C 116.848 212.249,172.994 206.767,186.333 165.200 C 197.657 129.913,166.803 94.412,130.531 100.993 M260.867 122.816 C 233.228 126.290,215.548 155.868,225.394 182.157 C 238.528 217.223,286.571 221.125,305.154 188.636 C 323.186 157.109,297.052 118.268,260.867 122.816 M124.956 234.045 C 90.158 236.915,54.758 248.771,41.575 261.970 C 34.693 268.861,33.596 272.050,33.609 285.120 C 33.620 296.074,34.464 298.291,39.112 299.582 C 41.185 300.158,236.815 300.158,238.888 299.582 C 243.536 298.291,244.380 296.074,244.391 285.120 C 244.404 272.050,243.307 268.861,236.425 261.970 C 218.676 244.199,164.970 230.744,124.956 234.045 M252.038 234.123 C 248.892 235.226,249.335 237.140,253.508 240.473 C 261.768 247.071,268.500 255.138,271.113 261.571 C 273.690 267.915,273.682 267.850,273.969 282.800 C 274.256 297.721,274.349 298.339,276.458 299.430 C 277.892 300.172,358.344 300.288,361.000 299.552 C 366.005 298.166,366.600 296.578,366.600 284.600 C 366.600 273.994,366.361 272.694,363.517 267.851 C 356.314 255.582,334.555 244.978,302.600 238.163 C 285.947 234.612,257.196 232.314,252.038 234.123 " stroke="none" fill-rule="evenodd"></path></g></svg>