<svg id="svg" version="1.1" xmlns="http://www.w3.org/2000/svg" xmlns:xlink="http://www.w3.org/1999/xlink" width="400" height="400" viewBox="0, 0, 400,400"><g id="svgg"><path id="path0" d="M131.800 89.657 C 87.824 94.493,63.786 145.611,87.906 183.000 C 111.798 220.036,166.263 220.036,190.098 183.000 C 217.753 140.027,182.792 84.049,131.800 89.657 M147.100 112.218 C 177.531 119.169,188.129 156.934,165.597 178.130 C 140.323 201.906,99.507 183.541,100.483 148.831 C 101.158 124.812,123.933 106.925,147.100 112.218 M264.400 112.056 C 231.038 117.551,212.726 154.439,228.487 184.400 C 248.886 223.180,306.117 218.104,319.563 176.321 C 330.833 141.301,300.610 106.092,264.400 112.056 M278.400 134.223 C 299.570 139.195,307.111 165.236,291.826 180.585 C 274.513 197.971,244.845 185.815,244.806 161.320 C 244.778 143.730,261.489 130.251,278.400 134.223 M127.800 234.016 C 107.147 235.415,77.732 243.394,61.715 251.942 C 42.275 262.317,34.121 273.744,33.699 291.206 C 33.404 303.424,33.382 303.400,44.582 303.400 C 55.374 303.400,55.232 303.524,55.625 293.748 C 55.879 287.428,55.933 287.113,57.185 284.571 C 65.589 267.499,117.606 252.221,153.200 256.369 C 185.101 260.087,214.873 272.500,220.808 284.556 C 222.045 287.069,222.108 287.435,222.384 293.692 C 222.817 303.542,222.656 303.400,233.400 303.400 C 244.621 303.400,244.596 303.427,244.301 291.206 C 243.994 278.480,241.055 271.744,232.042 263.103 C 212.661 244.524,165.781 231.443,127.800 234.016 M258.837 234.123 C 256.046 235.101,255.800 235.928,255.800 244.329 C 255.800 255.511,255.747 255.449,265.691 256.042 C 294.709 257.772,329.725 269.428,340.210 280.847 C 343.771 284.724,344.287 286.296,344.715 294.553 L 345.045 300.906 346.289 302.017 C 348.312 303.825,361.121 304.309,364.222 302.696 C 368.423 300.510,367.646 284.125,362.890 274.600 C 356.745 262.295,338.089 249.726,317.496 244.017 C 315.789 243.543,313.779 242.900,313.029 242.586 C 306.978 240.058,278.407 234.744,266.829 233.994 C 259.878 233.544,260.519 233.533,258.837 234.123 " stroke="none" fill-rule="evenodd"></path></g></svg>