<svg id="svg" version="1.1" xmlns="http://www.w3.org/2000/svg" xmlns:xlink="http://www.w3.org/1999/xlink" width="400" height="400" viewBox="0, 0, 400,400"><g id="svgg"><path id="path0" d="M196.778 61.556 C 193.948 63.397,65.215 192.555,63.378 195.397 C 55.599 207.433,58.829 221.844,71.000 229.401 C 76.042 232.531,81.111 233.532,92.200 233.586 C 95.803 233.603,97.618 234.285,98.972 236.129 C 99.789 237.242,99.803 237.697,100.018 269.129 C 100.256 303.816,100.213 303.168,102.613 308.200 C 106.328 315.989,113.429 321.022,122.107 322.018 C 129.071 322.817,279.310 322.330,281.997 321.500 C 289.732 319.111,295.747 313.435,298.747 305.697 L 299.792 303.000 299.996 270.600 C 300.252 229.990,298.983 233.917,312.000 233.432 C 324.491 232.966,330.787 230.330,335.913 223.423 C 343.115 213.718,342.771 203.510,334.885 193.000 C 331.864 188.973,204.439 61.729,202.713 61.015 C 200.483 60.093,198.792 60.247,196.778 61.556 M203.400 92.825 C 206.691 94.849,315.944 204.984,316.230 206.565 C 316.993 210.778,316.252 210.965,297.871 211.200 C 280.485 211.422,280.364 211.440,278.907 214.107 C 278.248 215.312,278.186 218.136,278.000 255.400 C 277.777 300.029,277.995 296.778,275.071 298.958 C 273.418 300.190,226.916 300.292,225.049 299.069 C 222.397 297.331,222.419 297.565,222.401 271.200 C 222.380 241.334,222.180 239.935,217.434 236.348 C 214.171 233.881,212.416 233.600,200.293 233.600 C 186.255 233.600,183.955 234.195,180.529 238.710 C 178.221 241.753,178.261 241.262,178.021 269.400 C 177.770 298.885,177.917 297.594,174.637 299.182 C 172.101 300.410,128.421 300.446,125.727 299.223 C 122.377 297.702,122.626 300.946,122.400 255.800 C 122.189 213.625,122.258 215.135,120.449 213.054 C 119.118 211.523,118.117 211.421,102.400 211.208 C 83.496 210.953,82.239 210.556,84.464 205.541 C 85.188 203.908,189.251 99.124,194.920 94.319 C 198.166 91.568,200.647 91.131,203.400 92.825 " stroke="none" fill-rule="evenodd"></path></g></svg>