<svg id="svg" version="1.1" xmlns="http://www.w3.org/2000/svg" xmlns:xlink="http://www.w3.org/1999/xlink" width="400" height="400" viewBox="0, 0, 400,400"><g id="svgg"><path id="path0" d="M197.263 61.077 C 195.581 61.906,66.899 190.537,64.487 193.800 C 54.596 207.184,58.823 224.079,73.800 231.018 C 77.667 232.810,80.030 233.210,88.743 233.547 C 101.065 234.024,99.751 229.637,100.015 271.182 C 100.258 309.599,100.007 306.825,103.736 312.308 C 107.084 317.230,112.552 321.064,117.555 321.998 C 120.614 322.569,171.292 322.534,173.400 321.959 C 175.192 321.471,176.658 320.296,177.342 318.800 C 177.672 318.080,177.856 306.533,178.000 277.582 C 178.221 233.148,178.028 236.249,180.687 234.506 C 182.423 233.368,216.408 233.212,218.936 234.330 C 222.420 235.872,222.173 232.742,222.400 278.200 C 222.623 322.712,222.435 319.924,225.307 321.493 C 226.838 322.330,277.381 322.801,282.395 322.025 C 288.331 321.106,295.185 315.655,298.241 309.422 L 299.800 306.243 300.000 272.222 C 300.249 229.840,298.981 233.992,311.814 233.530 C 322.509 233.145,326.265 232.059,331.727 227.772 C 342.025 219.690,343.985 206.599,336.587 195.310 C 334.049 191.438,207.329 63.965,203.622 61.556 C 201.561 60.216,199.348 60.050,197.263 61.077 " stroke="none" fill-rule="evenodd"></path></g></svg>