<svg id="svg" version="1.1" xmlns="http://www.w3.org/2000/svg" xmlns:xlink="http://www.w3.org/1999/xlink" width="400" height="400" viewBox="0, 0, 400,400"><g id="svgg"><path id="path0" d="M129.506 78.419 C 121.760 79.321,108.377 84.373,100.069 89.531 C 76.996 103.856,63.967 132.228,67.158 161.200 C 67.614 165.343,67.923 166.726,70.330 175.400 C 78.136 203.530,106.610 238.505,161.997 288.000 C 166.060 291.630,172.087 297.099,175.392 300.153 C 187.947 311.757,192.549 314.400,200.200 314.400 C 208.050 314.400,211.752 312.214,226.130 299.091 C 230.569 295.041,236.990 289.223,240.399 286.163 C 277.574 252.802,306.349 221.371,318.633 200.708 C 333.010 176.524,337.016 152.464,330.366 130.235 C 322.956 105.468,305.637 88.279,280.600 80.843 C 255.632 73.428,227.275 80.216,207.502 98.342 C 200.945 104.353,199.205 104.266,191.800 97.560 C 181.876 88.574,164.337 80.262,151.400 78.416 C 148.166 77.954,133.479 77.956,129.506 78.419 " stroke="none" fill-rule="evenodd"></path></g></svg>