<svg id="svg" version="1.1" xmlns="http://www.w3.org/2000/svg" xmlns:xlink="http://www.w3.org/1999/xlink" width="400" height="400" viewBox="0, 0, 400,400"><g id="svgg"><path id="path0" d="M92.400 125.420 C 79.378 126.802,69.741 129.972,61.353 135.632 C 44.005 147.338,36.621 162.545,36.606 186.600 C 36.588 215.247,46.441 237.631,71.857 266.677 C 85.113 281.826,107.763 296.105,132.000 304.591 C 153.279 312.041,176.414 307.988,193.200 293.868 C 200.326 287.874,201.838 287.868,208.775 293.800 C 222.110 305.205,243.300 308.967,264.000 303.605 C 302.901 293.528,323.944 280.193,341.664 254.391 C 373.431 208.136,373.077 160.958,340.800 139.218 C 306.798 116.316,246.770 125.784,209.000 160.006 C 201.765 166.561,200.144 166.503,192.400 159.406 C 177.774 146.002,158.562 135.779,135.399 129.076 C 123.848 125.733,104.748 124.109,92.400 125.420 M116.081 147.779 C 123.259 148.777,132.497 151.263,142.262 154.827 C 157.587 160.419,167.201 166.252,179.400 177.356 C 197.925 194.221,203.922 194.227,222.600 177.404 C 246.265 156.091,283.441 144.335,309.789 149.835 C 340.452 156.236,349.994 178.361,337.723 214.600 C 326.737 247.040,303.493 268.868,268.800 279.325 C 241.106 287.672,228.499 285.199,215.205 268.813 C 209.061 261.240,206.418 259.495,201.000 259.435 C 195.445 259.374,192.916 260.991,186.991 268.391 C 172.998 285.869,155.993 290.533,135.736 282.452 C 104.772 270.100,89.142 257.270,71.474 229.702 C 61.415 214.006,57.007 196.835,58.725 180.044 C 61.292 154.964,82.392 143.095,116.081 147.779 M115.505 193.587 C 104.347 195.618,99.884 201.849,102.184 212.185 C 105.385 226.576,120.424 237.189,137.627 237.198 C 162.574 237.212,164.274 207.423,139.927 196.897 C 133.028 193.914,121.955 192.413,115.505 193.587 M271.062 193.839 C 250.482 197.557,238.235 214.430,245.898 228.509 C 254.501 244.315,287.112 237.685,296.603 218.200 C 305.027 200.906,293.388 189.805,271.062 193.839 " stroke="none" fill-rule="evenodd"></path></g></svg>