<svg id="svg" version="1.1" xmlns="http://www.w3.org/2000/svg" xmlns:xlink="http://www.w3.org/1999/xlink" width="400" height="400" viewBox="0, 0, 400,400"><g id="svgg"><path id="path0" d="M95.000 125.070 C 94.340 125.152,91.280 125.496,88.200 125.834 C 65.168 128.363,46.249 143.264,39.356 164.305 C 34.563 178.940,35.559 201.422,41.837 220.285 C 46.235 233.501,64.713 260.713,77.650 273.027 C 90.754 285.499,114.242 298.998,133.884 305.346 C 153.964 311.834,177.871 307.359,192.872 294.304 C 200.214 287.914,201.722 287.881,208.777 293.952 C 222.280 305.575,245.003 309.263,265.923 303.230 C 287.886 296.895,297.302 293.138,308.972 286.053 C 344.612 264.414,369.855 215.001,364.582 177.196 C 360.929 151.005,339.478 131.601,309.537 127.406 C 276.533 122.781,236.198 135.673,209.677 159.324 C 201.553 166.569,200.589 166.574,192.600 159.410 C 176.971 145.395,157.389 135.053,134.400 128.673 C 124.892 126.034,103.182 124.049,95.000 125.070 M130.777 193.995 C 151.935 198.307,163.365 215.629,154.336 229.699 C 147.687 240.061,126.138 239.564,112.519 228.734 C 102.110 220.457,98.245 204.955,104.926 198.274 C 109.433 193.767,120.594 191.920,130.777 193.995 M286.600 193.802 C 299.953 196.605,303.311 207.120,295.279 220.980 C 285.259 238.269,253.793 243.086,245.918 228.536 C 235.785 209.814,260.867 188.399,286.600 193.802 " stroke="none" fill-rule="evenodd"></path></g></svg>