<svg id="svg" version="1.1" xmlns="http://www.w3.org/2000/svg" xmlns:xlink="http://www.w3.org/1999/xlink" width="400" height="400" viewBox="0, 0, 400,400"><g id="svgg"><path id="path0" d="M101.718 89.202 C 93.329 89.934,88.227 95.756,89.576 103.054 C 90.234 106.615,89.494 105.669,139.197 166.428 C 169.699 203.716,186.801 224.936,187.507 226.374 L 188.600 228.600 188.704 262.000 C 188.820 298.981,188.950 297.006,186.271 298.972 C 185.165 299.784,184.633 299.804,159.071 300.022 C 136.562 300.214,132.738 300.332,131.082 300.888 C 120.893 304.311,120.415 317.275,130.330 321.283 L 132.600 322.200 199.800 322.200 C 275.473 322.200,269.622 322.442,273.352 319.159 C 279.746 313.530,277.852 304.411,269.600 301.101 C 267.431 300.231,267.034 300.216,241.400 300.009 C 212.751 299.779,213.945 299.893,212.290 297.231 L 211.400 295.800 211.400 262.600 C 211.400 225.883,211.244 228.206,213.981 224.228 C 214.648 223.259,235.643 197.476,260.636 166.933 C 314.633 100.947,310.800 106.108,310.800 99.397 C 310.800 92.959,307.836 89.913,300.860 89.178 C 296.793 88.750,106.630 88.773,101.718 89.202 M251.471 111.934 C 272.167 112.232,272.033 112.212,272.323 115.114 C 272.567 117.549,271.726 118.601,258.916 131.888 C 251.428 139.654,250.010 140.942,247.682 142.088 L 245.018 143.400 200.346 143.736 C 151.754 144.102,152.691 144.136,149.304 141.872 C 147.426 140.617,130.901 121.783,128.386 118.031 C 125.981 114.445,127.003 112.201,131.296 111.638 C 133.734 111.318,224.170 111.541,251.471 111.934 " stroke="none" fill-rule="evenodd"></path></g></svg>