<svg id="svg" version="1.1" xmlns="http://www.w3.org/2000/svg" xmlns:xlink="http://www.w3.org/1999/xlink" width="400" height="400" viewBox="0, 0, 400,400"><g id="svgg"><path id="path0" d="M98.200 89.758 C 92.594 91.537,89.529 95.595,89.529 101.237 C 89.529 105.460,90.280 106.612,103.704 123.000 C 188.686 226.748,187.113 224.794,188.281 228.139 C 189.457 231.510,189.383 294.246,188.200 296.574 C 186.453 300.012,188.480 299.769,159.271 300.037 C 143.951 300.177,132.829 300.437,132.000 300.675 C 119.311 304.309,120.480 319.844,133.602 321.973 C 137.164 322.550,263.187 322.558,266.745 321.981 C 276.156 320.454,280.308 311.177,274.576 304.481 C 270.975 300.273,268.897 300.010,239.200 299.994 C 213.398 299.981,213.699 300.013,212.127 297.131 C 211.228 295.484,210.749 234.907,211.596 229.972 C 212.298 225.879,211.570 226.815,261.200 166.198 C 288.106 133.335,308.713 107.821,309.400 106.522 C 312.569 100.527,309.959 93.175,303.620 90.242 L 301.800 89.400 200.800 89.325 C 120.091 89.265,99.479 89.352,98.200 89.758 M271.117 112.119 C 273.201 113.257,273.461 114.549,272.121 117.092 C 270.903 119.404,206.524 198.272,203.976 200.575 C 200.979 203.281,198.578 203.031,195.374 199.677 C 191.979 196.124,128.838 118.783,127.972 117.116 C 126.507 114.299,127.424 112.402,130.613 111.649 C 134.007 110.848,269.620 111.302,271.117 112.119 " stroke="none" fill-rule="evenodd"></path></g></svg>