<svg id="svg" version="1.1" xmlns="http://www.w3.org/2000/svg" xmlns:xlink="http://www.w3.org/1999/xlink" width="400" height="400" viewBox="0, 0, 400,400"><g id="svgg"><path id="path0" d="M199.200 78.429 C 157.483 83.070,132.424 128.536,151.071 165.750 C 176.103 215.706,248.708 209.022,264.160 155.339 C 275.908 114.525,241.450 73.728,199.200 78.429 M212.000 100.827 C 240.819 105.494,254.119 140.184,235.845 163.024 C 213.009 191.565,167.088 175.384,167.141 138.816 C 167.175 115.191,188.610 97.039,212.000 100.827 M198.000 235.259 C 189.549 235.758,173.374 237.845,167.600 239.183 C 164.850 239.820,161.110 240.637,159.290 240.999 C 144.263 243.986,122.535 252.647,111.400 260.089 C 95.039 271.023,89.200 281.551,89.200 300.113 C 89.200 312.416,89.259 312.480,100.493 312.312 L 107.987 312.200 109.221 310.965 C 110.824 309.361,111.178 307.677,111.193 301.600 C 111.214 292.494,112.234 289.461,116.940 284.508 C 129.772 270.998,163.980 259.598,197.900 257.526 C 237.386 255.114,289.348 271.810,298.219 289.759 L 299.751 292.859 300.017 300.330 C 300.441 312.213,300.612 312.397,311.200 312.397 C 322.150 312.397,322.224 312.310,322.149 299.400 C 322.044 281.393,316.103 270.851,299.998 260.096 C 289.113 252.826,267.414 244.108,253.000 241.212 C 251.680 240.947,247.883 240.118,244.562 239.371 C 235.571 237.348,208.336 234.300,204.229 234.858 C 203.993 234.890,201.190 235.071,198.000 235.259 " stroke="none" fill-rule="evenodd"></path></g></svg>