<svg id="svg" version="1.1" xmlns="http://www.w3.org/2000/svg" xmlns:xlink="http://www.w3.org/1999/xlink" width="400" height="400" viewBox="0, 0, 400,400"><g id="svgg"><path id="path0" d="M197.256 82.045 C 155.189 87.702,133.874 138.812,159.316 173.019 C 192.343 217.422,262.947 194.245,262.947 139.000 C 262.947 111.396,245.089 89.375,217.200 82.587 C 214.010 81.810,201.523 81.471,197.256 82.045 M198.000 235.259 C 189.549 235.758,173.374 237.845,167.600 239.183 C 164.850 239.820,161.110 240.637,159.290 240.999 C 129.428 246.934,101.560 262.920,93.460 278.760 C 88.121 289.202,87.150 308.978,91.845 311.660 C 94.074 312.933,104.595 313.774,110.400 313.143 C 117.801 312.339,293.931 312.342,301.000 313.146 C 306.686 313.793,317.169 312.945,319.386 311.659 C 323.622 309.203,323.493 291.775,319.162 281.371 C 312.126 264.470,284.103 247.460,253.000 241.212 C 251.680 240.947,247.883 240.118,244.562 239.371 C 235.571 237.348,208.336 234.300,204.229 234.858 C 203.993 234.890,201.190 235.071,198.000 235.259 " stroke="none" fill-rule="evenodd"></path></g></svg>