<svg id="svg" version="1.1" xmlns="http://www.w3.org/2000/svg" xmlns:xlink="http://www.w3.org/1999/xlink" width="400" height="400" viewBox="0, 0, 400,400"><g id="svgg"><path id="path0" d="M84.335 118.344 C 75.182 121.367,70.642 131.578,74.670 140.080 C 80.403 152.182,97.597 152.182,103.330 140.080 C 109.066 127.974,96.995 114.162,84.335 118.344 M144.748 122.807 C 132.622 124.856,130.766 139.513,142.132 143.478 C 144.812 144.414,310.010 144.623,313.063 143.695 C 324.983 140.072,323.510 125.147,311.005 122.835 C 308.238 122.323,147.769 122.297,144.748 122.807 M83.466 185.360 C 67.120 192.213,71.406 215.746,89.000 215.746 C 105.821 215.746,110.890 193.075,95.680 185.870 C 91.947 184.101,86.964 183.893,83.466 185.360 M144.600 189.470 C 131.233 192.504,130.983 207.793,144.255 210.604 C 147.684 211.331,306.318 211.499,310.745 210.781 C 322.807 208.824,325.197 195.521,314.400 190.436 L 312.200 189.400 228.800 189.344 C 182.930 189.313,145.040 189.370,144.600 189.470 M86.071 251.208 C 76.651 253.171,71.017 262.746,74.027 271.679 C 78.908 286.169,99.092 286.169,103.973 271.679 C 107.736 260.511,97.515 248.823,86.071 251.208 M145.620 256.035 C 133.723 257.574,130.267 270.968,140.478 275.961 C 144.760 278.056,144.314 278.046,230.800 277.918 L 310.600 277.800 313.217 276.910 C 325.499 272.730,323.189 257.725,309.999 256.014 C 306.288 255.532,149.349 255.553,145.620 256.035 " stroke="none" fill-rule="evenodd"></path></g></svg>