<svg id="svg" version="1.1" xmlns="http://www.w3.org/2000/svg" xmlns:xlink="http://www.w3.org/1999/xlink" width="400" height="400" viewBox="0, 0, 400,400"><g id="svgg"><path id="path0" d="M192.200 67.211 C 125.443 70.646,70.713 125.764,67.204 193.092 C 66.572 205.226,67.248 213.916,69.839 226.971 C 80.013 278.216,121.262 319.782,172.313 330.230 C 184.462 332.716,187.019 332.968,200.200 332.973 C 263.216 333.000,317.621 289.067,330.185 228.010 C 332.746 215.568,332.973 213.319,332.983 200.400 C 333.028 136.593,288.738 82.099,226.850 69.815 C 216.427 67.746,205.486 66.590,199.000 66.871 C 198.340 66.900,195.280 67.053,192.200 67.211 M183.973 91.501 C 186.893 92.989,187.292 95.435,187.849 115.245 C 188.245 129.361,190.701 126.266,163.827 145.519 C 139.174 163.182,140.433 162.611,132.674 159.640 C 125.809 157.011,109.677 150.121,107.765 149.001 C 102.837 146.112,103.929 142.827,113.821 130.782 C 131.052 109.800,152.761 96.395,177.600 91.398 C 181.203 90.673,182.386 90.692,183.973 91.501 M227.000 92.389 C 251.970 98.336,273.435 113.200,291.185 136.837 C 297.869 145.738,297.679 148.989,290.290 152.124 C 262.589 163.877,263.504 163.592,259.558 161.672 C 257.201 160.525,217.866 132.378,215.668 130.265 C 212.094 126.829,211.901 125.640,212.612 111.400 C 213.720 89.208,213.709 89.224,227.000 92.389 M204.541 150.022 C 207.991 152.148,243.968 178.049,245.915 179.808 C 252.498 185.759,252.443 186.568,243.642 212.800 C 233.872 241.920,232.801 243.720,224.600 244.820 C 219.631 245.487,174.674 245.122,172.669 244.399 C 167.240 242.441,165.352 238.896,157.980 216.831 L 151.911 198.661 152.082 195.031 C 152.366 188.979,156.923 179.056,161.311 174.932 C 163.151 173.203,185.308 157.061,193.698 151.337 C 198.538 148.036,200.860 147.754,204.541 150.022 M102.200 176.113 C 103.960 176.869,108.637 178.818,112.594 180.444 C 124.974 185.531,123.342 182.925,133.904 214.468 C 143.548 243.270,143.610 243.532,141.504 246.715 C 140.424 248.346,122.613 265.077,119.586 267.303 C 115.236 270.502,112.359 268.742,106.043 259.019 C 94.631 241.450,88.898 220.474,89.310 197.800 C 89.715 175.518,91.974 171.718,102.200 176.113 M307.581 177.180 C 312.082 181.998,312.377 207.331,308.145 225.595 C 304.600 240.892,296.237 258.283,288.159 267.155 C 283.017 272.803,282.542 272.622,270.075 260.260 C 258.476 248.758,257.506 247.556,257.278 244.404 C 257.106 242.029,271.950 196.030,274.532 190.933 C 276.567 186.919,279.980 185.094,301.634 176.437 C 303.769 175.583,306.396 175.912,307.581 177.180 M239.126 268.578 C 242.263 270.315,258.462 286.887,259.384 289.302 C 260.779 292.955,258.855 294.893,249.000 299.760 C 217.892 315.121,181.428 314.928,150.200 299.236 C 140.069 294.146,137.853 291.698,140.026 288.000 C 141.031 286.289,156.299 271.229,158.798 269.483 C 162.087 267.185,161.080 267.237,200.600 267.322 L 237.000 267.400 239.126 268.578 " stroke="none" fill-rule="evenodd"></path></g></svg>