<svg id="svg" version="1.1" xmlns="http://www.w3.org/2000/svg" xmlns:xlink="http://www.w3.org/1999/xlink" width="400" height="400" viewBox="0, 0, 400,400"><g id="svgg"><path id="path0" d="M174.400 80.860 C 147.987 86.311,120.590 103.356,104.415 124.400 C 96.131 135.178,96.369 135.568,116.600 144.318 C 118.140 144.984,122.010 146.733,125.200 148.204 C 138.997 154.567,139.650 154.737,143.244 152.894 C 145.844 151.560,182.301 124.496,184.673 122.138 C 187.268 119.559,187.439 118.523,186.869 108.852 C 186.601 104.313,186.194 96.550,185.964 91.600 C 185.461 80.808,185.489 80.970,184.014 80.207 C 182.418 79.382,181.142 79.469,174.400 80.860 M216.740 80.051 C 215.207 80.613,214.892 81.892,214.635 88.600 C 214.508 91.900,214.110 99.031,213.749 104.447 C 212.800 118.693,212.969 119.216,220.293 124.675 C 265.031 158.028,265.149 158.113,267.519 158.823 C 270.152 159.612,271.069 159.337,283.600 153.998 C 285.030 153.389,289.080 151.687,292.600 150.216 C 308.936 143.391,308.981 143.301,301.572 132.323 C 283.832 106.035,256.441 87.343,226.418 81.038 C 219.158 79.514,218.415 79.438,216.740 80.051 M198.062 146.100 C 197.147 146.595,193.473 149.179,189.899 151.842 C 186.325 154.504,176.638 161.704,168.374 167.842 C 148.596 182.530,149.202 181.983,149.198 185.154 C 149.196 186.901,149.666 188.576,153.816 201.600 C 154.762 204.570,156.474 209.970,157.621 213.600 C 165.094 237.254,167.109 243.126,168.309 244.742 C 170.362 247.508,169.038 247.400,200.800 247.400 L 229.400 247.400 231.116 246.417 C 234.714 244.357,234.985 243.666,246.419 207.400 C 247.252 204.760,248.873 199.720,250.022 196.200 C 254.506 182.464,255.311 183.879,234.000 168.041 C 198.857 141.924,202.110 143.910,198.062 146.100 M83.972 167.391 C 82.653 168.109,81.813 170.067,80.796 174.800 C 73.734 207.658,80.720 242.306,99.951 269.800 C 106.723 279.483,105.720 279.796,125.000 261.967 C 141.875 246.362,140.979 248.975,135.416 231.600 C 134.465 228.630,132.745 223.230,131.594 219.600 C 129.383 212.625,126.941 204.936,124.415 197.000 C 123.575 194.360,122.225 190.101,121.416 187.536 C 118.682 178.870,117.397 177.688,106.367 173.710 C 103.855 172.804,99.820 171.316,97.400 170.404 C 88.580 167.078,87.776 166.817,86.400 166.824 C 85.630 166.829,84.537 167.084,83.972 167.391 M310.600 175.992 C 307.959 177.084,305.739 177.948,291.600 183.383 C 284.059 186.282,283.440 186.615,281.428 188.854 C 279.498 191.001,279.372 191.310,276.007 202.200 C 274.647 206.600,272.939 212.000,272.211 214.200 C 271.483 216.400,269.960 221.170,268.827 224.800 C 267.694 228.430,265.867 234.143,264.769 237.495 C 260.742 249.778,260.327 248.809,276.145 264.070 C 293.144 280.471,292.639 280.319,299.347 271.064 C 314.808 249.732,322.387 224.982,321.897 197.427 C 321.513 175.890,319.605 172.269,310.600 175.992 M160.000 274.370 C 156.905 275.005,156.011 275.821,143.385 289.535 C 133.810 299.934,133.393 300.797,136.512 303.769 C 142.835 309.794,161.956 317.004,181.600 320.770 C 203.919 325.049,233.216 320.204,256.355 308.407 C 264.974 304.012,266.424 301.792,263.328 297.731 C 259.087 292.166,243.940 276.042,242.105 275.138 L 240.200 274.200 200.800 274.141 C 179.130 274.109,160.770 274.212,160.000 274.370 " stroke="none" fill-rule="evenodd"></path></g></svg>