<svg id="svg" version="1.1" xmlns="http://www.w3.org/2000/svg" xmlns:xlink="http://www.w3.org/1999/xlink" width="400" height="400" viewBox="0, 0, 400,400"><g id="svgg"><path id="path0" d="M193.132 79.582 C 187.559 80.603,182.811 82.364,172.600 87.197 C 170.840 88.030,167.420 89.611,165.000 90.709 C 162.580 91.807,157.000 94.369,152.600 96.400 C 148.200 98.432,142.260 101.163,139.400 102.468 C 136.540 103.774,133.300 105.278,132.200 105.811 C 131.100 106.343,127.590 107.963,124.400 109.411 C 121.210 110.858,117.340 112.646,115.800 113.384 C 114.260 114.121,111.020 115.622,108.600 116.717 C 99.272 120.942,94.095 123.313,91.400 124.596 C 89.860 125.329,86.530 126.861,84.000 128.000 C 81.470 129.139,78.140 130.672,76.600 131.406 C 75.060 132.140,71.370 133.836,68.400 135.174 C 48.065 144.339,41.200 152.019,41.200 165.600 C 41.200 178.234,47.389 186.055,63.600 193.902 C 66.350 195.233,72.166 198.049,76.524 200.161 C 80.882 202.272,84.555 204.000,84.686 204.000 C 85.305 204.000,87.676 206.179,88.300 207.321 C 88.943 208.496,89.018 211.053,89.222 238.800 C 89.466 271.907,89.312 269.946,92.078 275.287 C 94.743 280.436,97.511 282.681,110.800 290.469 C 117.299 294.278,121.690 296.839,124.600 298.515 C 126.140 299.402,128.660 300.880,130.200 301.799 C 131.740 302.718,136.060 305.237,139.800 307.397 C 143.540 309.556,147.860 312.074,149.400 312.991 C 150.940 313.909,153.460 315.388,155.000 316.279 C 161.318 319.933,172.167 326.269,174.400 327.608 C 190.863 337.484,199.855 339.025,212.012 334.055 C 216.790 332.102,219.718 330.300,245.800 313.258 C 256.982 305.953,259.304 304.439,264.600 301.002 C 269.575 297.774,272.441 295.901,283.600 288.587 C 291.170 283.624,294.617 280.534,296.858 276.700 C 299.998 271.327,299.762 274.087,299.993 240.000 C 300.217 206.913,300.124 208.260,302.312 206.280 C 304.019 204.735,329.348 192.359,330.553 192.482 C 333.530 192.783,333.376 191.071,333.600 226.329 C 333.829 262.334,333.530 259.568,337.594 263.330 C 343.203 268.523,351.417 266.580,354.731 259.276 C 355.556 257.455,355.988 168.554,355.196 163.416 C 353.593 153.017,345.871 146.768,318.400 133.636 C 314.550 131.796,308.430 128.853,304.800 127.097 C 301.170 125.340,294.870 122.325,290.800 120.396 C 286.730 118.467,282.860 116.602,282.200 116.251 C 280.873 115.546,271.376 110.988,260.000 105.596 C 255.930 103.667,252.060 101.803,251.400 101.453 C 249.709 100.558,233.573 92.800,233.402 92.800 C 233.278 92.800,223.673 88.191,214.200 83.585 C 207.651 80.401,198.330 78.630,193.132 79.582 M201.929 102.615 C 203.618 103.173,206.980 104.596,209.400 105.777 C 211.820 106.958,216.230 109.091,219.200 110.516 C 228.718 115.082,234.866 118.026,240.400 120.669 C 243.370 122.087,246.098 123.408,246.463 123.604 C 246.827 123.800,252.407 126.474,258.863 129.546 C 265.318 132.619,271.320 135.504,272.200 135.958 C 274.707 137.252,290.421 144.800,290.607 144.800 C 290.699 144.800,294.335 146.530,298.687 148.645 C 303.039 150.759,309.930 154.106,314.000 156.082 C 323.955 160.916,325.595 162.279,325.599 165.720 C 325.602 169.202,324.245 170.229,310.600 177.071 C 305.760 179.498,287.760 188.559,270.600 197.208 C 199.702 232.939,200.823 232.400,197.362 232.400 C 195.194 232.400,190.545 230.685,183.649 227.341 C 180.212 225.675,174.970 223.141,172.000 221.711 C 169.030 220.281,163.900 217.801,160.600 216.199 C 157.300 214.598,152.260 212.169,149.400 210.800 C 146.540 209.432,141.230 206.871,137.600 205.109 C 133.970 203.348,128.435 200.667,125.300 199.153 C 122.165 197.639,117.035 195.160,113.900 193.645 C 110.765 192.130,105.770 189.720,102.800 188.290 C 94.286 184.189,86.355 180.359,79.099 176.845 C 75.413 175.060,72.278 173.600,72.132 173.600 C 70.438 173.600,64.549 168.716,64.021 166.872 C 62.836 162.740,65.048 161.002,80.400 154.002 C 82.930 152.848,88.690 150.199,93.200 148.115 C 97.710 146.031,103.560 143.335,106.200 142.125 C 108.840 140.914,112.260 139.327,113.800 138.597 C 115.340 137.868,118.670 136.336,121.200 135.192 C 123.730 134.048,127.240 132.432,129.000 131.600 C 130.760 130.768,134.180 129.188,136.600 128.089 C 147.773 123.013,151.196 121.443,153.800 120.204 C 155.340 119.471,158.670 117.936,161.200 116.792 C 163.730 115.648,167.240 114.033,169.000 113.202 C 170.760 112.372,174.450 110.661,177.200 109.401 C 179.950 108.140,183.730 106.381,185.600 105.490 C 193.682 101.643,197.144 101.033,201.929 102.615 M119.989 221.165 C 122.762 222.465,128.174 225.055,132.016 226.921 C 135.857 228.786,141.430 231.478,144.400 232.903 C 147.370 234.328,152.680 236.888,156.200 238.593 C 159.720 240.297,165.390 243.042,168.800 244.693 C 198.587 259.111,196.176 259.370,240.704 236.967 C 279.013 217.694,276.463 218.681,277.578 222.696 C 278.326 225.391,278.137 262.843,277.365 264.771 C 276.474 266.997,277.645 266.159,253.706 281.719 C 248.698 284.974,240.910 290.047,236.400 292.991 C 202.474 315.141,203.210 314.730,198.352 314.289 C 196.196 314.094,189.237 311.103,187.366 309.568 C 187.127 309.372,185.687 308.514,184.166 307.661 C 182.645 306.808,179.825 305.186,177.900 304.055 C 175.975 302.925,172.825 301.075,170.900 299.945 C 168.975 298.814,166.230 297.219,164.800 296.400 C 162.370 295.008,160.116 293.691,151.600 288.687 C 149.730 287.588,147.030 286.023,145.600 285.207 C 143.175 283.825,141.070 282.594,132.400 277.491 C 130.530 276.390,127.830 274.822,126.400 274.006 C 119.275 269.940,117.596 268.945,115.146 267.334 C 111.170 264.719,111.400 266.286,111.400 241.865 L 111.400 220.731 112.522 219.765 C 114.060 218.443,114.268 218.482,119.989 221.165 " stroke="none" fill-rule="evenodd"></path></g></svg>