<svg id="svg" version="1.1" xmlns="http://www.w3.org/2000/svg" xmlns:xlink="http://www.w3.org/1999/xlink" width="400" height="400" viewBox="0, 0, 400,400"><g id="svgg"><path id="path0" d="M192.429 79.635 C 188.943 80.319,183.499 82.099,180.079 83.673 C 178.166 84.553,174.710 86.140,172.400 87.199 C 168.195 89.126,159.146 93.296,144.702 99.963 C 127.987 107.679,120.020 111.352,116.000 113.197 C 111.771 115.137,102.691 119.317,88.100 126.040 C 83.755 128.042,78.040 130.668,75.400 131.874 C 61.920 138.036,58.258 139.811,55.792 141.375 C 42.003 150.127,37.488 163.907,43.991 177.400 C 48.335 186.412,50.308 187.729,82.800 203.286 C 85.110 204.392,92.310 207.864,98.800 211.001 C 105.290 214.138,115.910 219.272,122.400 222.409 C 128.890 225.546,136.180 229.055,138.600 230.206 C 141.020 231.358,146.060 233.784,149.800 235.599 C 189.790 255.004,191.639 255.690,200.731 254.500 C 208.060 253.540,211.312 252.017,277.800 218.398 C 327.483 193.276,329.495 192.324,331.382 193.048 C 333.407 193.825,333.385 193.495,333.600 226.800 C 333.826 261.898,333.595 259.528,337.141 263.056 C 342.656 268.542,351.212 266.723,354.683 259.327 C 355.565 257.449,356.034 168.148,355.188 163.208 C 353.271 152.006,346.338 146.829,310.200 129.613 C 303.820 126.573,295.180 122.426,291.000 120.398 C 286.820 118.369,279.890 115.041,275.600 113.002 C 271.310 110.963,264.383 107.634,260.207 105.604 C 256.030 103.574,249.100 100.243,244.807 98.201 C 240.513 96.159,233.580 92.826,229.400 90.794 C 211.482 82.085,207.728 80.557,201.945 79.619 C 198.970 79.136,194.937 79.143,192.429 79.635 M90.718 231.269 C 89.314 232.362,89.200 233.820,89.206 250.526 C 89.214 274.049,90.917 278.684,102.001 285.367 C 105.317 287.366,105.731 287.608,138.600 306.773 C 153.780 315.625,167.370 323.552,168.800 324.390 C 170.230 325.228,173.594 327.200,176.276 328.771 C 190.885 337.332,200.162 338.805,211.400 334.349 C 216.499 332.326,217.555 331.693,238.200 318.263 C 247.660 312.109,258.640 304.970,262.600 302.398 C 288.590 285.520,290.574 284.162,293.470 281.266 C 296.218 278.518,298.979 273.469,299.606 270.045 C 300.103 267.326,300.128 235.189,299.633 233.888 C 298.250 230.250,298.228 230.257,274.284 242.348 C 203.393 278.148,206.863 276.607,197.200 276.590 C 189.471 276.576,186.562 275.600,169.220 267.206 C 147.446 256.666,144.609 255.294,133.000 249.698 C 114.959 241.001,110.239 238.719,102.200 234.802 C 94.484 231.044,91.991 230.276,90.718 231.269 " stroke="none" fill-rule="evenodd"></path></g></svg>