<svg id="svg" version="1.1" xmlns="http://www.w3.org/2000/svg" xmlns:xlink="http://www.w3.org/1999/xlink" width="400" height="400" viewBox="0, 0, 400,400"><g id="svgg"><path id="path0" d="M255.200 78.655 C 251.738 80.096,252.057 81.146,260.290 95.400 C 266.311 105.823,266.326 105.784,253.600 113.102 C 251.290 114.431,245.530 117.753,240.800 120.486 C 236.070 123.219,228.960 127.320,225.000 129.600 C 221.040 131.879,212.310 136.919,205.600 140.800 C 198.890 144.681,190.160 149.716,186.200 151.990 C 182.240 154.264,177.560 156.969,175.800 158.001 C 172.037 160.208,158.949 167.758,140.800 178.192 C 133.650 182.303,126.630 186.353,125.200 187.193 C 123.770 188.032,119.720 190.376,116.200 192.401 C 112.680 194.426,108.000 197.127,105.800 198.405 C 103.600 199.682,97.570 203.161,92.400 206.135 C 77.461 214.729,75.735 215.876,73.773 218.508 C 69.060 224.831,71.820 232.814,79.489 235.043 C 83.239 236.133,86.513 235.066,95.620 229.783 C 98.579 228.066,103.250 225.373,106.000 223.798 C 108.750 222.223,114.420 218.952,118.600 216.528 C 122.780 214.105,129.890 209.997,134.400 207.400 C 143.631 202.084,148.462 199.293,154.000 196.078 C 156.090 194.865,160.680 192.216,164.200 190.191 C 170.430 186.607,176.052 183.363,189.600 175.533 C 193.230 173.435,200.520 169.228,205.800 166.185 C 214.501 161.170,219.256 158.425,231.400 151.405 C 233.600 150.133,238.370 147.378,242.000 145.283 C 245.630 143.187,250.940 140.117,253.800 138.460 C 278.262 124.288,277.156 124.537,281.573 132.200 C 282.081 133.080,284.297 136.950,286.500 140.800 C 293.396 152.855,295.220 153.476,299.291 145.153 C 300.086 143.529,306.512 130.521,313.572 116.248 C 326.150 90.818,327.898 86.897,327.350 85.361 C 326.429 82.782,325.501 82.613,306.632 81.598 C 298.290 81.150,285.690 80.341,278.632 79.801 C 263.977 78.680,256.068 78.293,255.200 78.655 M273.397 178.141 C 269.951 179.745,267.905 182.630,267.220 186.847 C 266.634 190.463,266.644 307.391,267.231 310.627 C 269.213 321.548,283.146 323.591,287.751 313.636 L 288.600 311.800 288.600 248.600 L 288.600 185.400 287.739 183.537 C 285.232 178.113,278.719 175.662,273.397 178.141 M219.153 210.952 C 215.758 212.165,213.787 214.084,212.119 217.800 C 211.010 220.268,211.005 309.469,212.113 312.644 C 215.607 322.651,229.586 322.423,232.590 312.310 C 233.524 309.163,233.509 221.187,232.574 218.037 C 230.959 212.598,224.334 209.101,219.153 210.952 M164.344 244.162 C 160.840 244.901,158.016 247.447,156.509 251.227 C 155.419 253.963,155.423 309.519,156.513 312.644 C 159.762 321.951,171.963 322.698,176.468 313.866 C 178.237 310.400,178.724 256.455,177.034 251.241 C 176.093 248.340,172.950 245.145,170.400 244.500 C 167.274 243.710,166.654 243.675,164.344 244.162 M107.451 277.763 C 100.834 280.225,98.779 289.062,100.368 308.220 C 101.482 321.644,117.195 324.936,121.487 312.644 C 122.556 309.581,122.556 287.619,121.487 284.556 C 119.509 278.891,112.950 275.717,107.451 277.763 " stroke="none" fill-rule="evenodd"></path></g></svg>