<svg id="svg" version="1.1" xmlns="http://www.w3.org/2000/svg" xmlns:xlink="http://www.w3.org/1999/xlink" width="400" height="400" viewBox="0, 0, 400,400"><g id="svgg"><path id="path0" d="M293.923 69.567 C 289.074 70.621,287.824 71.058,284.400 72.899 C 277.513 76.601,276.144 77.831,250.200 103.632 C 229.941 123.780,224.695 128.792,223.442 129.197 C 221.195 129.923,217.708 129.513,212.400 127.898 C 209.870 127.129,205.640 125.912,203.000 125.194 C 200.360 124.476,195.770 123.217,192.800 122.398 C 189.830 121.578,184.970 120.245,182.000 119.435 C 179.030 118.624,174.890 117.441,172.800 116.806 C 170.710 116.170,167.753 115.363,166.229 115.014 C 164.705 114.665,161.465 113.776,159.029 113.039 C 154.751 111.745,150.329 110.513,140.200 107.794 C 137.560 107.085,133.870 106.041,132.000 105.475 C 112.096 99.442,100.299 96.821,95.931 97.461 C 83.217 99.322,67.691 114.736,65.920 127.253 C 64.081 140.262,69.161 146.888,89.800 158.395 C 102.537 165.496,109.456 169.361,115.600 172.806 C 119.230 174.842,123.730 177.362,125.600 178.406 C 131.320 181.600,141.506 187.315,147.303 190.581 C 157.485 196.318,157.440 196.553,143.549 210.227 C 132.076 221.520,132.376 221.445,117.239 216.825 C 93.728 209.649,86.209 211.354,71.541 227.185 C 62.161 237.309,60.240 248.239,66.094 258.180 C 69.610 264.152,70.318 264.675,94.539 279.187 C 115.522 291.760,114.159 290.638,119.666 299.864 C 140.434 334.658,141.080 335.585,146.952 339.001 C 159.950 346.564,173.077 341.996,186.481 325.246 C 192.583 317.619,194.313 308.832,191.608 299.200 C 191.145 297.550,190.062 293.500,189.202 290.200 C 188.342 286.900,187.179 282.683,186.619 280.830 C 184.314 273.204,184.481 272.867,196.513 260.916 C 210.636 246.888,208.088 245.900,221.994 270.800 C 223.038 272.670,225.558 277.170,227.594 280.800 C 229.629 284.430,233.105 290.640,235.318 294.600 C 237.530 298.560,239.997 302.970,240.800 304.400 C 241.603 305.830,244.068 310.240,246.279 314.200 C 251.740 323.983,253.123 326.329,254.530 328.200 C 264.832 341.896,279.126 343.758,291.872 333.064 C 307.221 320.186,310.746 310.619,305.969 294.800 C 305.272 292.490,304.207 288.710,303.604 286.400 C 303.000 284.090,301.920 280.130,301.202 277.600 C 297.374 264.102,296.400 260.650,295.387 257.000 C 294.002 252.006,291.759 243.852,289.832 236.800 C 289.020 233.830,287.890 229.870,287.321 228.000 C 286.752 226.130,285.793 222.710,285.190 220.400 C 283.992 215.813,282.274 209.657,280.112 202.200 C 276.539 189.879,275.415 184.594,275.971 182.733 C 276.421 181.222,279.553 177.918,300.354 157.000 C 329.120 128.072,330.913 125.950,334.382 116.744 C 344.205 90.678,321.045 63.672,293.923 69.567 M306.565 92.132 C 313.284 95.209,316.430 102.983,313.510 109.296 C 311.205 114.280,309.376 116.277,281.176 144.600 C 261.487 164.376,252.627 173.542,251.999 174.784 C 250.439 177.873,250.681 179.185,256.657 200.100 C 257.239 202.135,258.476 206.590,259.406 210.000 C 261.016 215.901,261.853 218.887,264.257 227.300 C 264.839 229.335,266.074 233.790,267.002 237.200 C 267.930 240.610,269.096 244.840,269.593 246.600 C 272.300 256.182,273.688 261.141,275.023 266.000 C 278.510 278.685,279.543 282.410,280.568 286.000 C 285.385 302.864,285.179 302.020,285.190 304.913 C 285.206 308.680,282.852 312.300,278.524 315.168 C 274.417 317.888,273.011 316.754,266.900 305.795 C 265.797 303.818,263.230 299.230,261.194 295.600 C 259.158 291.970,256.585 287.380,255.476 285.400 C 254.367 283.420,252.803 280.630,252.000 279.200 C 251.197 277.770,248.730 273.360,246.518 269.400 C 244.305 265.440,240.829 259.230,238.794 255.600 C 236.758 251.970,234.185 247.380,233.076 245.400 C 231.967 243.420,230.403 240.630,229.600 239.200 C 228.797 237.770,226.330 233.360,224.116 229.400 C 221.902 225.440,219.435 221.030,218.633 219.600 C 213.921 211.198,215.461 210.216,184.316 241.475 C 158.608 267.278,159.660 265.837,161.605 272.601 C 162.047 274.141,162.771 276.930,163.213 278.800 C 163.655 280.670,164.368 283.280,164.797 284.600 C 165.226 285.920,166.323 289.880,167.236 293.400 C 168.148 296.920,169.223 300.970,169.624 302.400 C 171.214 308.064,170.267 310.978,165.341 315.578 C 160.106 320.466,157.864 320.197,154.043 314.221 C 153.192 312.889,147.942 304.150,142.377 294.800 C 129.507 273.177,132.660 276.257,108.783 261.994 C 85.966 248.364,86.400 248.680,86.400 245.707 C 86.400 242.064,94.101 235.200,98.188 235.200 C 99.797 235.200,113.892 238.439,114.844 239.027 C 115.045 239.151,117.952 239.956,121.304 240.816 C 124.657 241.676,128.930 242.842,130.799 243.406 C 134.852 244.628,138.505 244.773,140.453 243.788 C 142.124 242.944,187.998 197.267,189.621 194.831 C 191.902 191.409,190.750 189.414,184.574 186.094 C 182.828 185.155,179.870 183.519,178.000 182.458 C 173.741 180.041,155.477 169.808,150.400 166.993 C 148.310 165.835,145.340 164.179,143.800 163.314 C 142.260 162.448,139.380 160.833,137.400 159.724 C 135.420 158.615,130.830 156.042,127.200 154.006 C 123.570 151.970,119.070 149.448,117.200 148.400 C 115.330 147.352,110.830 144.828,107.200 142.791 C 103.570 140.753,98.902 138.167,96.827 137.043 C 87.888 132.203,87.168 129.641,93.129 123.893 C 98.344 118.865,97.807 118.870,114.900 123.661 C 117.375 124.355,121.560 125.501,124.200 126.207 C 126.840 126.914,130.665 127.967,132.700 128.546 C 142.076 131.217,144.192 131.809,150.000 133.394 C 155.902 135.004,158.814 135.823,167.000 138.179 C 168.980 138.749,172.940 139.828,175.800 140.579 C 178.660 141.329,182.710 142.473,184.800 143.121 C 186.890 143.770,189.230 144.427,190.000 144.582 C 190.770 144.736,193.470 145.467,196.000 146.206 C 200.638 147.559,206.708 149.240,217.000 152.020 C 220.080 152.852,223.107 153.727,223.726 153.966 C 225.393 154.609,228.676 154.493,230.340 153.733 C 231.261 153.312,242.279 142.638,260.200 124.804 C 275.820 109.261,289.500 95.906,290.600 95.126 C 296.646 90.843,301.684 89.898,306.565 92.132 " stroke="none" fill-rule="evenodd"></path></g></svg>