<svg id="svg" version="1.1" xmlns="http://www.w3.org/2000/svg" xmlns:xlink="http://www.w3.org/1999/xlink" width="400" height="400" viewBox="0, 0, 400,400"><g id="svgg"><path id="path0" d="M295.306 71.243 C 285.034 72.955,281.098 76.065,249.986 107.052 C 222.509 134.418,223.524 133.625,218.350 131.774 C 217.388 131.430,214.440 130.627,211.800 129.990 C 209.160 129.353,205.920 128.457,204.600 127.999 C 203.280 127.541,199.998 126.626,197.307 125.965 C 194.615 125.305,191.773 124.497,190.990 124.170 C 190.207 123.843,187.639 123.125,185.283 122.575 C 182.928 122.025,179.618 121.120,177.930 120.564 C 176.241 120.009,172.506 118.934,169.630 118.177 C 166.753 117.420,162.047 116.180,159.170 115.423 C 156.294 114.666,152.559 113.590,150.870 113.033 C 149.182 112.476,146.270 111.665,144.400 111.230 C 142.530 110.796,139.920 110.061,138.600 109.599 C 137.280 109.136,134.040 108.236,131.400 107.600 C 128.760 106.964,125.520 106.065,124.200 105.604 C 122.880 105.142,120.000 104.332,117.800 103.805 C 115.600 103.277,112.720 102.466,111.400 102.003 C 97.731 97.204,89.552 99.204,78.782 109.980 C 68.851 119.917,65.973 127.975,69.130 137.000 C 72.012 145.237,74.319 147.228,93.000 157.607 C 99.820 161.395,105.580 164.635,105.800 164.806 C 106.020 164.978,108.000 166.101,110.200 167.304 C 112.400 168.506,115.010 169.942,116.000 170.496 C 122.723 174.254,125.769 175.950,128.400 177.400 C 130.050 178.309,133.110 180.018,135.200 181.197 C 141.754 184.894,144.482 186.422,148.400 188.589 C 162.058 196.145,162.229 194.930,145.122 211.889 C 133.506 223.404,133.004 223.647,125.545 221.385 C 123.705 220.827,119.500 219.680,116.200 218.835 C 112.900 217.990,108.580 216.801,106.600 216.192 C 102.178 214.831,93.148 214.548,90.107 215.674 C 81.871 218.726,68.739 231.724,66.592 238.951 C 64.351 246.496,65.132 252.512,69.134 258.533 C 72.405 263.453,71.955 263.145,101.953 281.031 C 116.528 289.721,115.826 289.029,124.015 302.800 C 127.613 308.850,131.808 315.870,133.337 318.400 C 134.867 320.930,136.714 324.039,137.442 325.308 C 145.524 339.400,158.246 344.100,170.206 337.411 C 173.112 335.786,182.771 326.733,185.795 322.800 C 191.684 315.141,192.069 306.536,187.202 291.344 C 186.549 289.305,185.661 286.017,185.229 284.037 C 184.797 282.057,184.074 279.240,183.622 277.776 C 181.898 272.197,181.915 272.171,196.053 258.127 C 210.253 244.024,209.694 244.138,215.286 254.200 C 216.264 255.960,219.006 260.910,221.380 265.200 C 223.754 269.490,226.460 274.350,227.395 276.000 C 228.329 277.650,230.046 280.710,231.211 282.800 C 233.766 287.385,236.183 291.702,238.600 296.000 C 239.590 297.760,241.210 300.640,242.200 302.400 C 246.033 309.214,247.561 311.948,249.803 316.000 C 259.932 334.307,265.899 338.644,278.947 337.181 C 287.237 336.252,301.539 323.201,304.641 313.736 C 306.542 307.937,305.267 296.478,301.807 288.265 C 301.451 287.420,300.725 284.810,300.194 282.465 C 299.662 280.119,298.764 276.850,298.198 275.200 C 297.632 273.550,296.823 270.670,296.401 268.800 C 295.980 266.930,295.256 264.320,294.793 263.000 C 294.331 261.680,293.430 258.440,292.792 255.800 C 292.154 253.160,291.254 249.920,290.793 248.600 C 290.332 247.280,289.523 244.400,288.995 242.200 C 288.468 240.000,287.658 237.120,287.196 235.800 C 286.735 234.480,285.836 231.240,285.200 228.600 C 284.564 225.960,283.664 222.720,283.201 221.400 C 282.739 220.080,282.004 217.470,281.570 215.600 C 281.135 213.730,280.248 210.580,279.598 208.600 C 278.948 206.620,278.151 203.723,277.827 202.161 C 277.502 200.600,276.703 197.715,276.050 195.749 C 275.397 193.784,274.458 190.251,273.965 187.898 C 272.534 181.078,270.422 183.874,297.762 156.400 C 323.943 130.092,327.491 126.100,330.997 119.000 C 342.959 94.780,322.038 66.786,295.306 71.243 " stroke="none" fill-rule="evenodd"></path></g></svg>