<svg id="svg" version="1.1" xmlns="http://www.w3.org/2000/svg" xmlns:xlink="http://www.w3.org/1999/xlink" width="400" height="400" viewBox="0, 0, 400,400"><g id="svgg"><path id="path0" d="M192.430 68.022 C 181.801 70.805,175.141 77.593,171.828 89.021 C 170.123 94.902,169.630 95.430,163.596 97.845 C 135.821 108.961,119.963 127.225,113.996 154.970 C 111.646 165.894,111.511 168.063,111.243 199.000 C 110.961 231.452,111.401 228.421,106.325 232.867 C 93.757 243.873,89.519 251.592,89.452 263.600 C 89.400 273.112,91.154 276.638,96.419 277.604 C 97.896 277.874,133.078 277.975,201.619 277.905 L 304.600 277.800 306.200 276.965 C 309.677 275.151,310.589 272.420,310.595 263.800 C 310.605 251.278,307.072 244.591,294.439 233.219 C 288.513 227.885,289.064 231.436,288.759 196.600 C 288.547 172.306,288.386 166.319,287.864 163.200 C 282.300 129.955,268.202 111.501,238.609 98.727 C 230.289 95.136,230.196 95.048,228.537 89.260 C 223.759 72.589,208.735 63.752,192.430 68.022 M163.400 300.366 C 157.685 301.359,157.648 305.432,163.277 314.000 C 179.382 338.514,217.454 339.692,235.267 316.228 C 241.476 308.049,242.747 302.627,238.868 300.866 C 237.317 300.163,167.245 299.698,163.400 300.366 " stroke="none" fill-rule="evenodd"></path></g></svg>