<svg id="svg" version="1.1" xmlns="http://www.w3.org/2000/svg" xmlns:xlink="http://www.w3.org/1999/xlink" width="400" height="400" viewBox="0, 0, 400,400"><g id="svgg"><path id="path0" d="M192.400 67.798 C 178.882 70.844,168.819 79.484,163.153 92.911 C 161.000 98.013,159.918 99.076,153.330 102.562 C 131.724 113.997,119.201 130.779,114.008 155.259 C 111.692 166.178,111.530 168.775,111.251 199.400 C 110.949 232.557,112.089 227.945,102.019 236.780 C 80.434 255.718,88.080 291.303,115.400 299.054 C 117.427 299.629,120.566 299.774,135.600 299.982 C 157.550 300.287,156.235 299.899,159.603 307.062 C 167.798 324.495,183.711 334.103,202.643 333.050 C 219.418 332.117,232.229 323.581,240.000 308.157 C 242.781 302.638,243.132 302.129,244.800 301.201 L 246.600 300.200 264.600 299.956 C 285.098 299.678,284.247 299.797,291.600 296.154 C 306.506 288.767,314.519 269.411,309.219 253.593 C 306.623 245.845,303.132 240.909,295.824 234.653 C 292.109 231.474,290.998 230.268,290.107 228.453 L 289.000 226.200 288.744 197.000 C 288.470 165.815,288.476 165.915,286.170 155.000 C 281.130 131.146,268.127 113.726,247.204 102.800 C 241.257 99.694,238.986 97.656,237.624 94.200 C 232.486 81.164,224.301 73.145,211.888 68.985 C 206.546 67.195,197.519 66.645,192.400 67.798 M205.305 90.270 C 212.524 92.535,216.753 98.804,217.789 108.775 C 218.350 114.171,219.711 115.473,227.694 118.252 C 247.066 124.995,259.236 137.948,263.996 156.889 C 266.550 167.051,266.488 166.021,266.764 203.000 C 266.957 228.901,267.137 237.274,267.519 238.152 C 268.514 240.440,269.829 241.782,276.560 247.378 C 280.322 250.506,284.096 253.839,284.946 254.785 C 290.235 260.667,289.812 269.299,283.976 274.546 C 280.012 278.109,288.018 277.800,199.792 277.800 L 121.783 277.800 119.074 276.466 C 114.093 274.014,111.389 269.232,111.685 263.395 C 111.966 257.836,113.635 255.651,124.360 246.803 C 134.164 238.715,133.144 243.618,133.348 203.600 C 133.450 183.638,133.675 170.743,133.967 168.200 C 136.924 142.423,149.747 126.114,173.571 117.828 C 180.955 115.260,181.661 114.460,182.622 107.566 C 184.514 93.999,194.041 86.735,205.305 90.270 M218.462 289.488 C 221.782 290.937,222.133 294.043,219.559 299.186 C 211.809 314.669,188.390 314.734,180.696 299.293 C 177.667 293.216,178.517 290.030,183.400 289.158 C 186.137 288.669,217.257 288.962,218.462 289.488 " stroke="none" fill-rule="evenodd"></path></g></svg>