<svg id="svg" version="1.1" xmlns="http://www.w3.org/2000/svg" xmlns:xlink="http://www.w3.org/1999/xlink" width="400" height="400" viewBox="0, 0, 400,400"><g id="svgg"><path id="path0" d="M188.800 78.241 C 179.852 79.011,164.303 81.754,158.678 83.553 C 156.655 84.200,153.849 85.027,152.442 85.391 C 151.035 85.754,148.335 86.675,146.442 87.435 C 144.549 88.196,142.010 89.202,140.800 89.671 C 133.072 92.663,125.177 97.242,112.400 106.142 C 72.977 133.601,57.028 181.919,73.302 224.589 C 78.445 238.073,84.613 247.660,97.078 261.548 C 101.187 266.127,101.746 268.191,100.574 274.456 C 99.730 278.966,96.515 285.820,91.692 293.390 C 84.833 304.156,83.906 307.982,86.755 313.769 C 90.084 320.531,95.943 322.775,108.800 322.210 C 126.837 321.417,142.594 316.216,162.200 304.582 C 169.759 300.096,171.535 299.735,179.903 300.980 C 245.147 310.688,313.584 273.132,326.576 220.491 C 329.123 210.171,329.790 203.779,329.151 195.813 C 328.288 185.057,326.538 183.767,316.595 186.557 C 298.498 191.636,273.990 187.835,258.400 177.532 C 234.963 162.043,226.561 122.725,240.415 93.369 C 244.847 83.976,244.421 83.558,227.800 80.985 C 224.060 80.406,218.840 79.582,216.200 79.154 C 211.565 78.402,193.799 77.810,188.800 78.241 M293.600 78.468 C 258.584 83.442,243.675 126.929,268.149 152.704 C 291.200 176.979,331.441 167.985,341.993 136.200 C 352.330 105.064,326.159 73.843,293.600 78.468 " stroke="none" fill-rule="evenodd"></path></g></svg>