<svg id="svg" version="1.1" xmlns="http://www.w3.org/2000/svg" xmlns:xlink="http://www.w3.org/1999/xlink" width="400" height="400" viewBox="0, 0, 400,400"><g id="svgg"><path id="path0" d="M187.000 78.398 C 179.488 79.038,164.279 81.825,158.600 83.602 C 156.620 84.222,153.920 85.026,152.600 85.389 C 140.207 88.799,127.282 95.642,109.607 108.150 C 99.651 115.196,87.636 128.613,80.728 140.400 C 65.487 166.405,62.785 196.832,73.269 224.400 C 78.498 238.150,84.308 247.168,97.488 261.994 C 103.601 268.870,101.998 277.511,91.641 293.517 C 84.942 303.870,83.943 308.057,86.790 313.840 C 90.056 320.474,96.213 322.809,108.800 322.187 C 127.421 321.267,141.521 316.578,162.600 304.296 C 169.814 300.093,172.048 299.668,180.037 300.978 C 200.633 304.354,232.380 301.171,251.266 293.835 C 285.535 280.523,307.709 262.383,320.336 237.330 C 326.887 224.333,331.027 203.903,328.570 196.693 C 325.948 188.997,316.296 186.817,310.744 192.666 C 308.242 195.303,307.589 197.378,306.994 204.600 C 305.691 220.388,297.669 235.933,284.346 248.485 C 276.362 256.006,275.130 256.935,263.984 263.831 C 255.595 269.021,242.787 273.767,227.800 277.237 C 214.135 280.401,195.721 280.832,178.866 278.382 C 165.770 276.479,166.404 276.363,155.774 282.599 C 134.200 295.254,120.120 300.596,117.774 297.016 C 116.942 295.746,117.164 294.717,119.639 288.380 C 123.998 277.220,124.707 267.110,121.813 257.367 C 120.940 254.430,119.665 252.731,112.366 244.775 C 96.674 227.673,89.210 210.212,89.202 190.590 C 89.185 146.246,127.545 109.736,183.200 101.126 C 185.457 100.777,190.635 100.603,198.600 100.608 L 210.600 100.616 216.800 102.179 C 226.986 104.748,231.117 104.289,234.725 100.190 C 240.223 93.945,236.783 84.761,228.000 82.235 C 215.284 78.578,200.797 77.222,187.000 78.398 M293.812 78.458 C 267.405 81.842,249.627 110.404,258.143 135.764 C 270.475 172.488,318.922 177.565,338.493 144.183 C 356.824 112.915,330.227 73.792,293.812 78.458 M305.963 101.158 C 319.521 105.377,326.140 120.922,319.334 132.561 C 309.964 148.585,289.012 148.106,280.462 131.672 C 272.062 115.527,288.590 95.750,305.963 101.158 " stroke="none" fill-rule="evenodd"></path></g></svg>