<svg id="svg" version="1.1" xmlns="http://www.w3.org/2000/svg" xmlns:xlink="http://www.w3.org/1999/xlink" width="400" height="400" viewBox="0, 0, 400,400"><g id="svgg"><path id="path0" d="M172.555 78.436 C 162.647 80.093,152.854 87.327,148.440 96.248 C 145.194 102.810,144.436 107.896,144.411 123.281 C 144.393 134.287,146.614 133.338,120.200 133.629 C 97.541 133.879,98.422 133.793,91.679 136.394 C 78.487 141.481,68.797 154.056,67.229 168.125 C 66.650 173.310,66.641 282.757,67.219 287.797 C 69.256 305.581,84.049 320.142,101.942 321.976 C 107.365 322.531,292.464 322.548,298.167 321.994 C 315.224 320.335,329.400 307.166,332.833 289.790 C 333.460 286.613,333.830 183.030,333.251 172.600 C 332.174 153.186,322.098 140.215,303.817 134.708 C 301.155 133.906,299.855 133.846,280.200 133.616 C 265.686 133.446,259.074 133.231,258.321 132.904 C 255.911 131.858,255.824 131.395,255.543 118.019 C 255.265 104.803,255.149 103.983,252.744 98.333 C 248.414 88.156,239.066 80.666,228.067 78.562 C 224.712 77.920,176.297 77.810,172.555 78.436 M222.518 100.409 C 231.459 101.702,233.924 106.807,233.521 123.200 C 233.243 134.460,236.750 133.400,199.782 133.400 C 166.584 133.400,168.620 133.582,167.332 130.498 C 166.306 128.044,166.721 110.030,167.860 107.551 C 169.712 103.521,173.183 100.956,177.545 100.395 C 181.010 99.949,219.422 99.961,222.518 100.409 " stroke="none" fill-rule="evenodd"></path></g></svg>