<svg id="svg" version="1.1" xmlns="http://www.w3.org/2000/svg" xmlns:xlink="http://www.w3.org/1999/xlink" width="400" height="400" viewBox="0, 0, 400,400"><g id="svgg"><path id="path0" d="M120.400 101.654 C 110.081 103.343,108.225 109.885,111.006 134.763 C 120.863 222.923,191.721 292.561,281.000 301.828 C 300.527 303.855,307.473 302.231,310.216 294.997 C 311.158 292.512,311.640 256.188,310.789 251.810 C 309.361 244.465,305.610 241.927,295.121 241.207 C 283.134 240.384,274.563 238.974,264.232 236.127 C 253.746 233.236,252.754 233.702,237.600 248.635 C 222.978 263.045,223.821 262.828,211.616 255.301 C 189.807 241.852,170.819 222.787,156.833 200.298 C 149.662 188.766,149.527 189.234,164.324 174.255 C 179.242 159.153,179.182 159.298,175.821 146.286 C 173.076 135.661,171.992 128.687,171.217 116.674 C 170.568 106.616,167.638 102.753,159.799 101.620 C 156.359 101.123,123.470 101.151,120.400 101.654 " stroke="none" fill-rule="evenodd"></path></g></svg>