<svg id="svg" version="1.1" xmlns="http://www.w3.org/2000/svg" xmlns:xlink="http://www.w3.org/1999/xlink" width="400" height="400" viewBox="0, 0, 400,400"><g id="svgg"><path id="path0" d="M87.705 33.629 C 81.984 33.994,79.179 34.516,75.600 35.884 C 74.170 36.431,71.172 37.565,68.938 38.404 C 56.002 43.264,43.223 56.334,37.944 70.104 C 33.051 82.871,33.484 74.347,33.304 161.400 C 33.113 254.177,32.929 249.681,37.411 261.813 C 41.778 273.634,49.578 283.412,60.080 290.231 C 65.091 293.485,65.003 293.440,70.400 295.504 C 80.946 299.539,81.473 299.620,99.271 299.946 C 117.910 300.287,116.442 299.029,116.833 315.000 C 117.216 330.678,119.407 337.669,126.591 346.137 C 141.463 363.667,167.190 366.182,184.400 351.788 C 189.237 347.743,197.334 338.923,220.378 312.600 C 227.767 304.159,229.952 301.979,231.945 301.058 C 233.792 300.204,233.972 300.199,275.000 299.957 C 321.963 299.680,318.317 299.948,328.800 296.001 C 345.156 289.844,356.123 279.006,362.994 262.206 C 367.241 251.823,367.190 252.998,367.188 166.200 C 367.185 79.095,367.307 81.590,362.465 69.899 C 353.717 48.782,334.553 35.063,311.772 33.609 C 304.225 33.128,95.280 33.147,87.705 33.629 M312.123 67.246 C 323.098 68.947,331.760 77.862,333.207 88.945 C 334.048 95.387,333.519 244.846,332.644 248.142 C 330.516 256.153,322.325 263.813,313.652 265.900 C 311.336 266.458,305.276 266.568,265.800 266.769 L 220.600 267.000 218.600 267.921 C 216.375 268.947,211.199 272.771,210.106 274.197 C 209.718 274.703,207.600 277.081,205.400 279.480 C 203.200 281.879,199.510 285.978,197.200 288.587 C 194.890 291.197,191.020 295.521,188.600 298.195 C 186.180 300.870,181.062 306.645,177.226 311.029 C 163.564 326.646,160.679 328.639,155.156 326.278 C 150.503 324.289,150.273 323.253,149.958 302.800 C 149.788 291.718,149.521 284.753,149.225 283.617 C 148.026 279.029,144.134 273.724,139.840 270.827 C 134.068 266.932,133.176 266.801,112.427 266.797 C 88.280 266.792,85.714 266.456,79.039 262.423 C 74.028 259.397,70.083 254.417,67.930 248.400 L 67.000 245.800 67.000 167.000 L 67.000 88.200 67.883 85.394 C 70.813 76.083,78.950 68.762,88.052 67.250 C 91.376 66.698,308.560 66.694,312.123 67.246 M195.972 100.921 C 189.090 102.874,184.309 109.152,183.575 117.200 C 183.108 122.327,183.130 211.119,183.600 216.334 C 185.590 238.417,214.431 238.071,216.434 215.939 C 217.141 208.118,216.705 115.944,215.947 113.200 C 213.525 104.433,204.073 98.623,195.972 100.921 M262.200 117.737 C 256.121 119.745,251.337 125.461,250.419 131.812 C 249.884 135.515,249.878 197.626,250.412 201.400 C 252.828 218.462,275.619 221.306,282.053 205.348 L 283.000 203.000 283.112 167.916 C 283.211 137.204,283.147 132.495,282.598 130.128 C 280.535 121.234,270.348 115.046,262.200 117.737 M127.600 129.262 C 124.425 130.498,119.283 135.692,117.960 139.000 L 117.000 141.400 116.879 165.000 C 116.751 190.041,116.871 192.188,118.589 195.579 C 125.402 209.023,144.281 207.542,149.042 193.189 C 149.923 190.535,150.405 149.268,149.624 143.436 C 148.164 132.543,137.238 125.511,127.600 129.262 " stroke="none" fill-rule="evenodd"></path></g></svg>