<svg id="svg" version="1.1" xmlns="http://www.w3.org/2000/svg" xmlns:xlink="http://www.w3.org/1999/xlink" width="400" height="400" viewBox="0, 0, 400,400"><g id="svgg"><path id="path0" d="M103.340 100.591 C 95.867 101.947,89.792 107.922,88.188 115.492 C 87.327 119.552,87.327 280.448,88.188 284.508 C 89.813 292.179,95.857 298.056,103.528 299.424 C 107.439 300.122,290.259 300.276,295.471 299.586 C 303.587 298.511,310.123 292.481,311.812 284.508 C 312.673 280.448,312.673 119.552,311.812 115.492 C 310.126 107.533,303.631 101.546,295.471 100.428 C 290.522 99.751,107.115 99.906,103.340 100.591 M221.374 125.800 C 225.371 127.831,225.141 123.274,225.154 200.600 C 225.165 266.417,225.084 270.475,223.715 272.350 C 221.638 275.195,225.672 275.000,168.800 275.000 C 111.500 275.000,115.828 275.229,113.736 272.086 C 112.357 270.015,112.351 269.642,112.479 197.800 C 112.614 121.720,112.349 128.463,115.294 126.268 C 117.056 124.955,119.447 124.898,171.000 124.951 C 218.958 124.999,219.827 125.014,221.374 125.800 M283.817 125.840 C 287.812 127.823,287.565 122.930,287.565 200.000 C 287.565 277.154,287.821 272.143,283.774 274.200 C 281.284 275.465,256.324 275.427,253.571 274.154 C 249.863 272.438,250.200 279.881,250.200 199.800 L 250.200 129.400 251.090 127.969 C 252.847 125.143,255.000 124.817,270.843 124.969 C 281.147 125.069,282.439 125.155,283.817 125.840 " stroke="none" fill-rule="evenodd"></path></g></svg>