<svg id="svg" version="1.1" xmlns="http://www.w3.org/2000/svg" xmlns:xlink="http://www.w3.org/1999/xlink" width="400" height="400" viewBox="0, 0, 400,400"><g id="svgg"><path id="path0" d="M173.200 100.432 C 118.608 105.621,84.467 164.598,107.226 214.400 C 127.696 259.192,183.005 276.162,223.800 250.167 C 234.029 243.648,236.331 243.944,237.565 251.933 C 238.323 256.846,238.294 256.810,259.340 277.910 C 284.506 303.140,282.757 302.269,291.445 293.900 C 302.823 282.942,303.680 285.190,278.493 259.931 C 257.134 238.511,256.926 238.336,251.973 237.571 C 243.939 236.330,243.639 234.042,250.167 223.800 C 266.050 198.882,266.383 165.446,251.004 139.935 C 234.581 112.693,204.562 97.452,173.200 100.432 M193.276 126.334 C 232.942 136.918,249.858 179.459,227.622 212.703 C 202.156 250.775,142.623 242.829,128.210 199.434 C 121.883 180.385,125.576 160.363,138.204 145.244 C 146.444 135.379,159.152 128.019,171.785 125.797 C 176.673 124.937,189.215 125.251,193.276 126.334 " stroke="none" fill-rule="evenodd"></path></g></svg>