<?xml version="1.0" encoding="utf-8"?>
<!-- Generator: Adobe Illustrator 24.2.1, SVG Export Plug-In . SVG Version: 6.00 Build 0)  -->
<svg version="1.1" id="Layer_1" xmlns="http://www.w3.org/2000/svg" xmlns:xlink="http://www.w3.org/1999/xlink" x="0px" y="0px"
	 viewBox="0 0 1000 1000" style="enable-background:new 0 0 1000 1000;" xml:space="preserve">
<style type="text/css">
	.st0{fill:#3FA9F5;}
	.st1{enable-background:new    ;}
	.st2{clip-path:url(#SVGID_2_);}
	.st3{fill:#FFFFFF;}
</style>
<path class="st0" d="M503,0c273.81,2.13,497.48,228.08,497,501c-0.48,272.18-223.73,496.29-495,499
	C230.26,1002.74,0.54,777.43,0,501C-0.54,225.23,227.18-1.62,503,0z"/>
<g>
	<g>
		<g class="st1">
			<defs>
				<polygon id="SVGID_1_" class="st1" points="137.51,465.83 571.56,98.89 996.49,442.99 562.44,809.93 				"/>
			</defs>
			<clipPath id="SVGID_2_">
				<use xlink:href="#SVGID_1_"  style="overflow:visible;"/>
			</clipPath>
			<g class="st2">
				<g>
					<g>
						<g>
							<path class="st3" d="M403.62,645.39l255-215.57L544.15,759.19L403.62,645.39 M799.68,310.57l-22.22-17.99L376.53,632.44
								l27.22,22.04l-16.28,13.76l174.97,141.69l145.01-421.38L799.68,310.57"/>
							<polyline class="st3" points="815.96,296.81 749.31,242.83 738.45,252.01 766.23,274.5 353.88,623.08 326.11,600.59 
								315.26,609.76 381.92,663.74 392.77,654.57 364.99,632.08 777.33,283.49 805.11,305.98 815.96,296.81 							"/>
							<path class="st3" d="M196.43,477.61l396.08-102.23L336.96,591.42L196.43,477.61 M755.24,274.59l-22.22-17.99l-92.23,77.97
								L137.51,465.83l172.19,139.44l16.28-13.76l28.88,23.39L755.24,274.59"/>
						</g>
					</g>
				</g>
			</g>
		</g>
	</g>
</g>
</svg>
