<svg id="svg" version="1.1" xmlns="http://www.w3.org/2000/svg" xmlns:xlink="http://www.w3.org/1999/xlink" width="400" height="400" viewBox="0, 0, 400,400"><g id="svgg"><path id="path0" d="M122.800 71.853 C 76.627 76.195,55.024 133.931,87.100 167.265 C 115.594 196.877,161.885 189.515,180.206 152.459 C 183.183 146.438,184.619 144.894,188.577 143.456 C 189.450 143.139,211.544 142.953,265.800 142.806 L 341.800 142.600 343.595 141.595 C 346.861 139.767,347.376 138.245,347.538 129.947 C 347.701 121.631,347.291 118.987,345.529 116.980 C 343.117 114.233,348.233 114.401,266.827 114.392 C 220.909 114.387,192.382 114.237,190.682 113.991 C 185.479 113.239,183.483 111.495,180.373 104.982 C 169.764 82.767,146.865 69.591,122.800 71.853 M136.893 101.534 C 144.147 104.123,153.151 113.196,155.616 120.400 C 159.204 130.889,155.483 141.791,145.354 150.465 C 132.206 161.723,114.302 157.844,103.825 141.466 C 98.994 133.913,99.232 122.449,104.381 114.800 C 112.322 103.000,125.704 97.540,136.893 101.534 M279.200 214.836 C 260.085 216.960,243.876 228.729,233.977 247.673 C 230.528 254.273,229.751 255.118,225.823 256.544 C 224.951 256.860,203.463 257.047,151.000 257.194 L 77.400 257.400 75.574 258.300 C 72.113 260.006,71.800 261.092,71.800 271.400 C 71.800 281.522,72.151 282.802,75.397 284.541 L 77.000 285.400 150.600 285.603 C 219.802 285.794,224.325 285.849,226.299 286.519 C 229.402 287.571,231.158 289.509,233.801 294.800 C 252.376 331.979,298.401 339.933,326.524 310.823 C 363.356 272.700,331.939 208.977,279.200 214.836 M293.651 244.271 C 301.082 246.819,310.577 256.354,312.818 263.518 C 316.554 275.461,311.358 287.771,299.200 295.781 C 282.339 306.891,257.638 292.483,257.606 271.520 C 257.586 258.640,268.260 245.942,281.200 243.450 C 283.581 242.992,291.429 243.509,293.651 244.271 " stroke="none" fill-rule="evenodd"></path></g></svg>