<svg id="svg" version="1.1" xmlns="http://www.w3.org/2000/svg" xmlns:xlink="http://www.w3.org/1999/xlink" width="400" height="400" viewBox="0, 0, 400,400"><g id="svgg"><path id="path0" d="M111.800 86.031 C 92.965 87.435,78.156 99.891,72.871 118.774 L 71.800 122.600 71.800 224.800 L 71.800 327.000 72.684 329.808 C 75.820 339.777,82.218 342.577,101.297 342.330 C 115.775 342.144,112.754 344.029,136.800 320.180 C 146.601 310.460,154.562 302.886,155.600 302.295 C 159.427 300.116,155.267 300.240,232.600 299.994 C 303.890 299.767,304.636 299.756,308.200 298.926 C 325.530 294.887,338.051 282.470,341.896 265.508 C 342.733 261.815,343.190 131.678,342.391 124.643 C 340.213 105.485,327.209 91.210,307.800 86.672 L 304.200 85.830 210.200 85.766 C 158.500 85.732,114.220 85.851,111.800 86.031 M301.405 114.835 C 307.380 115.939,311.705 119.816,313.519 125.694 C 314.327 128.312,314.783 248.987,314.013 256.179 C 313.354 262.324,310.927 266.485,306.482 269.090 C 302.417 271.472,306.701 271.335,228.600 271.582 L 157.000 271.808 152.400 273.053 C 142.090 275.843,139.736 277.521,122.918 294.069 C 105.146 311.555,103.672 312.447,101.120 307.268 L 100.200 305.400 100.093 218.200 C 100.030 166.469,100.137 129.915,100.356 128.333 C 101.317 121.392,105.738 116.391,112.147 114.997 C 115.385 114.293,297.628 114.137,301.405 114.835 " stroke="none" fill-rule="evenodd"></path></g></svg>