<svg id="svg" version="1.1" xmlns="http://www.w3.org/2000/svg" xmlns:xlink="http://www.w3.org/1999/xlink" width="400" height="400" viewBox="0, 0, 400,400"><g id="svgg"><path id="path0" d="M189.800 57.643 C 113.443 62.450,53.190 130.892,57.546 207.871 C 59.303 238.919,69.564 265.027,89.743 289.800 C 113.727 319.243,146.730 337.510,183.626 341.763 C 235.702 347.766,282.293 326.807,316.471 282.000 C 350.525 237.354,351.006 164.085,317.538 119.342 C 284.703 75.445,241.154 54.411,189.800 57.643 M217.200 87.130 C 248.433 92.813,272.930 107.878,292.336 133.340 C 302.746 146.997,311.872 170.846,313.636 189.000 C 320.082 255.333,266.987 313.743,200.200 313.791 C 179.742 313.806,163.356 309.644,145.661 299.936 C 136.518 294.921,134.946 293.836,126.000 286.364 C 87.038 253.821,74.735 195.565,97.369 150.800 C 115.174 115.588,148.443 91.305,185.000 86.838 C 186.980 86.596,189.050 86.323,189.600 86.231 C 192.885 85.684,212.821 86.333,217.200 87.130 M193.800 120.275 C 177.719 122.360,166.196 129.213,160.636 140.000 C 152.161 156.442,156.732 168.200,171.600 168.200 C 179.860 168.200,182.527 166.369,186.075 158.265 C 189.997 149.308,193.787 146.600,202.400 146.600 C 212.851 146.600,218.788 152.759,218.788 163.600 C 218.788 171.774,215.874 176.718,203.563 189.428 C 191.714 201.661,187.924 208.477,187.315 218.642 C 186.821 226.888,190.895 231.321,199.477 231.877 C 207.065 232.369,211.635 229.637,214.360 222.982 C 218.313 213.328,219.999 210.833,228.403 202.200 C 249.510 180.518,254.085 168.795,248.963 149.513 C 243.455 128.778,220.809 116.775,193.800 120.275 M194.705 250.377 C 178.238 255.641,180.037 278.564,197.125 281.216 C 217.718 284.411,224.970 256.522,205.150 250.354 C 202.069 249.395,197.747 249.404,194.705 250.377 " stroke="none" fill-rule="evenodd"></path></g></svg>