<svg id="svg" version="1.1" xmlns="http://www.w3.org/2000/svg" xmlns:xlink="http://www.w3.org/1999/xlink" width="400" height="400" viewBox="0, 0, 400,400"><g id="svgg"><path id="path0" d="M188.697 57.624 C 138.367 61.235,91.832 93.798,70.381 140.417 C 28.490 231.461,91.393 336.340,191.554 342.449 C 284.848 348.139,359.018 262.432,339.752 171.200 C 324.813 100.459,260.950 52.442,188.697 57.624 M206.481 85.997 C 257.611 88.480,302.022 126.622,312.209 176.800 C 315.315 192.100,314.587 215.748,310.581 229.666 C 299.193 269.230,271.731 297.251,231.894 309.955 C 215.045 315.328,186.858 315.491,169.200 310.317 C 94.136 288.323,61.881 201.488,104.771 136.872 C 124.602 106.996,157.491 87.808,191.926 86.025 C 195.157 85.858,197.980 85.697,198.200 85.668 C 198.420 85.638,202.146 85.787,206.481 85.997 M193.894 129.213 C 187.707 130.760,185.783 134.392,186.083 143.953 C 186.405 154.192,188.675 156.428,199.049 156.725 C 210.704 157.058,213.605 154.568,213.924 143.953 C 214.275 132.288,211.491 129.097,200.809 128.924 C 197.834 128.876,194.722 129.006,193.894 129.213 M192.891 186.724 C 190.132 187.608,188.338 189.093,187.158 191.471 L 186.200 193.400 186.200 228.400 C 186.200 266.183,186.111 264.549,188.321 267.548 C 192.084 272.656,208.458 272.439,211.904 267.235 C 214.022 264.036,214.000 264.446,214.000 228.654 C 214.000 190.936,214.085 192.064,211.011 188.989 C 208.101 186.080,198.608 184.894,192.891 186.724" stroke="none" fill-rule="evenodd"></path></g></svg>