<svg id="svg" version="1.1" xmlns="http://www.w3.org/2000/svg" xmlns:xlink="http://www.w3.org/1999/xlink" width="400" height="400" viewBox="0, 0, 400,400"><g id="svgg"><path id="path0" d="M96.800 57.449 C 87.291 58.842,80.592 61.481,74.055 66.407 C 66.084 72.414,60.893 80.727,58.074 92.000 C 57.239 95.340,56.806 295.477,57.616 303.584 C 59.580 323.223,73.556 338.382,93.122 342.092 C 97.095 342.846,302.555 342.836,306.537 342.082 C 326.062 338.385,339.988 323.845,342.396 304.641 C 342.981 299.980,342.947 100.225,342.361 95.400 C 340.112 76.883,327.274 62.942,308.002 58.092 C 305.602 57.488,100.790 56.864,96.800 57.449 M299.313 85.984 C 307.911 86.888,313.112 92.096,314.018 100.706 C 314.506 105.340,314.506 294.660,314.018 299.294 C 313.113 307.897,308.042 312.991,299.398 313.981 C 294.777 314.511,105.719 314.546,100.706 314.018 C 93.357 313.245,88.589 309.427,86.448 302.600 C 85.709 300.243,85.239 109.082,85.954 101.329 C 86.785 92.315,91.828 86.928,100.272 86.037 C 104.658 85.574,294.933 85.523,299.313 85.984 M190.913 136.384 C 183.662 137.218,182.291 139.073,175.789 156.850 C 173.908 161.992,171.299 168.990,169.992 172.400 C 165.184 184.946,162.335 192.523,159.963 199.082 C 158.626 202.777,156.494 208.500,155.225 211.800 C 150.730 223.488,148.023 230.682,145.592 237.400 C 144.239 241.140,142.086 246.900,140.807 250.200 C 135.447 264.031,136.462 266.122,148.800 266.657 C 163.943 267.313,166.845 265.423,170.980 252.212 C 175.354 238.240,175.431 238.200,198.400 238.200 C 222.519 238.200,220.994 237.397,226.768 253.141 C 229.996 261.943,230.888 263.485,233.606 264.965 C 238.873 267.831,255.154 267.326,258.281 264.199 C 261.026 261.454,260.846 260.822,246.867 224.000 C 245.321 219.930,242.326 211.920,240.210 206.200 C 238.095 200.480,235.564 193.730,234.587 191.200 C 233.610 188.670,231.380 182.640,229.631 177.800 C 227.882 172.960,225.075 165.400,223.394 161.000 C 221.712 156.600,219.466 150.715,218.403 147.923 C 215.615 140.601,213.912 138.398,209.926 136.960 C 207.888 136.225,195.550 135.851,190.913 136.384 M202.135 184.933 C 203.349 186.768,205.437 191.941,209.347 202.800 C 212.939 212.778,210.735 216.546,201.000 217.070 C 185.852 217.886,184.173 215.454,189.254 200.051 C 195.144 182.198,198.059 178.777,202.135 184.933 " stroke="none" fill-rule="evenodd"></path></g></svg>