<svg id="svg" version="1.1" xmlns="http://www.w3.org/2000/svg" xmlns:xlink="http://www.w3.org/1999/xlink" width="400" height="400" viewBox="0, 0, 400,400"><g id="svgg"><path id="path0" d="M192.200 52.356 C 182.787 55.098,177.172 62.472,175.793 73.905 C 174.666 83.248,174.047 83.963,163.373 88.247 C 126.918 102.877,104.647 131.830,99.567 171.200 C 99.220 173.885,99.007 187.802,98.838 218.621 L 98.600 262.243 97.033 265.412 C 95.587 268.338,94.589 269.472,84.027 280.191 C 70.048 294.376,68.787 296.197,68.809 302.164 C 68.823 306.155,70.424 308.756,73.805 310.281 C 75.784 311.173,317.825 311.667,321.925 310.787 C 326.309 309.847,328.223 306.745,327.925 301.066 C 327.626 295.364,327.226 294.802,313.626 280.987 C 306.058 273.300,301.330 268.176,300.494 266.757 C 297.982 262.495,298.015 263.112,298.006 219.200 C 298.001 196.213,297.827 177.160,297.593 174.097 C 295.061 140.897,276.194 111.112,247.400 94.859 C 242.416 92.046,239.574 90.733,229.504 86.592 C 224.367 84.480,222.304 81.861,221.560 76.508 C 221.322 74.799,220.862 71.960,220.537 70.200 C 218.102 57.008,204.860 48.669,192.200 52.356 M205.916 112.828 C 237.743 116.336,263.158 141.794,266.785 173.800 C 267.040 176.049,267.192 195.115,267.190 224.600 C 267.187 277.606,267.297 275.434,264.476 278.066 C 261.597 280.751,265.527 280.600,198.400 280.600 L 137.400 280.600 135.098 279.670 C 132.588 278.657,131.253 277.232,130.350 274.600 C 129.566 272.318,129.535 178.046,130.316 172.600 C 135.745 134.759,168.674 108.724,205.916 112.828 M178.542 326.806 C 169.627 327.437,167.397 331.802,171.624 340.347 C 182.406 362.145,214.572 361.819,225.415 339.800 C 229.643 331.215,227.572 327.438,218.270 326.768 C 212.854 326.378,184.200 326.405,178.542 326.806 " stroke="none" fill-rule="evenodd"></path></g></svg>