<svg id="svg" version="1.1" xmlns="http://www.w3.org/2000/svg" xmlns:xlink="http://www.w3.org/1999/xlink" width="400" height="400" viewBox="0, 0, 400,400"><g id="svgg"><path id="path0" d="M187.811 43.812 C 152.664 49.502,125.873 73.867,117.009 108.200 C 114.949 116.180,114.720 118.599,114.431 135.400 C 114.069 156.449,114.602 155.376,102.600 159.212 C 85.774 164.591,74.301 177.844,72.026 194.529 C 71.309 199.796,71.450 315.582,72.181 320.400 C 75.220 340.453,91.244 355.112,112.000 356.829 C 121.367 357.604,289.093 357.097,293.060 356.281 C 311.293 352.535,324.656 338.967,327.784 321.026 C 328.551 316.628,328.726 200.046,327.974 194.529 C 325.697 177.828,314.189 164.534,297.400 159.213 C 285.395 155.407,285.964 156.565,285.580 135.200 C 285.263 117.573,284.929 114.621,282.187 105.200 C 272.953 73.477,248.529 51.263,215.269 44.338 C 210.051 43.252,193.258 42.930,187.811 43.812 M211.783 72.595 C 233.376 77.467,249.647 93.069,255.386 114.406 C 256.771 119.558,257.301 127.449,257.135 140.463 C 256.975 152.992,256.683 154.086,252.995 155.984 L 251.021 157.000 200.011 157.000 L 149.000 157.000 147.200 156.106 C 143.035 154.037,142.637 152.016,142.928 134.400 C 143.171 119.647,143.520 116.892,146.050 109.720 C 153.222 89.396,171.691 74.433,192.800 71.846 C 195.930 71.462,209.060 71.980,211.783 72.595 M288.800 186.529 C 294.746 188.488,298.563 192.978,299.573 199.202 C 300.147 202.746,300.157 311.571,299.582 315.200 C 298.740 320.526,294.997 325.295,290.114 327.266 L 287.800 328.200 201.400 328.319 C 137.895 328.406,114.367 328.316,112.610 327.981 C 105.896 326.698,101.359 321.566,100.380 314.144 C 99.575 308.042,100.063 199.014,100.906 196.537 C 102.975 190.464,107.909 186.715,114.800 185.981 C 121.607 185.255,286.510 185.775,288.800 186.529 M197.800 229.049 C 174.652 232.056,163.982 257.264,178.344 275.014 C 194.812 295.366,228.000 283.340,228.000 257.020 C 228.000 241.036,212.935 227.083,197.800 229.049 " stroke="none" fill-rule="evenodd"></path></g></svg>