<svg id="svg" version="1.1" xmlns="http://www.w3.org/2000/svg" xmlns:xlink="http://www.w3.org/1999/xlink" width="400" height="400" viewBox="0, 0, 400,400"><g id="svgg"><path id="path0" d="M130.400 27.241 C 106.599 29.993,99.526 34.240,72.673 61.902 C 52.808 82.364,46.976 90.553,44.829 101.000 C 44.331 103.420,43.190 108.280,42.293 111.800 C 40.767 117.790,40.666 118.533,40.719 123.400 C 40.749 126.260,40.924 172.160,41.105 225.400 L 41.436 322.200 42.321 325.800 C 47.288 346.019,59.887 357.960,79.489 361.029 C 85.402 361.954,317.636 361.890,323.959 360.961 C 343.244 358.127,357.655 343.977,360.783 324.805 C 361.896 317.983,362.101 120.894,361.003 113.227 C 358.146 93.274,353.166 84.989,329.435 60.705 C 305.441 36.153,297.513 30.987,279.400 28.104 L 272.600 27.021 203.000 26.958 C 164.720 26.923,132.050 27.050,130.400 27.241 M269.445 56.000 C 280.619 56.990,287.890 60.744,297.451 70.462 C 305.534 78.679,306.453 81.879,301.301 83.867 C 298.334 85.011,104.466 85.011,101.499 83.867 C 96.429 81.911,97.283 78.702,104.955 70.870 C 114.743 60.879,122.871 56.872,135.400 55.863 C 139.683 55.518,265.453 55.647,269.445 56.000 M223.800 173.320 C 228.373 175.376,229.913 178.675,230.415 187.486 C 230.853 195.169,231.219 196.558,233.346 198.604 C 236.092 201.245,236.413 201.292,253.800 201.588 C 272.419 201.905,274.093 202.279,276.038 206.560 C 278.642 212.294,277.551 213.638,241.933 248.576 C 231.886 258.431,221.906 268.386,219.755 270.699 C 208.423 282.886,203.355 285.645,197.414 282.865 C 194.679 281.585,132.592 220.893,128.970 215.959 C 124.959 210.495,125.571 205.571,130.578 203.009 L 132.941 201.800 149.370 201.592 C 172.046 201.304,171.800 201.456,172.414 187.432 C 172.889 176.595,174.258 174.001,180.131 172.809 C 183.738 172.077,222.033 172.525,223.800 173.320 " stroke="none" fill-rule="evenodd"></path></g></svg>