<svg id="svg" version="1.1" xmlns="http://www.w3.org/2000/svg" xmlns:xlink="http://www.w3.org/1999/xlink" width="400" height="342.85714285714283" viewBox="0, 0, 400,342.85714285714283"><g id="svgg"><path id="path0" d="M339.260 61.389 C 337.575 61.900,336.679 62.570,332.590 66.378 C 328.795 69.912,310.655 87.949,305.800 93.016 C 304.650 94.216,302.566 96.301,301.169 97.649 C 299.771 98.998,297.684 101.082,296.530 102.280 C 295.376 103.479,293.215 105.620,291.727 107.039 C 290.239 108.457,288.006 110.696,286.765 112.013 C 285.523 113.330,283.439 115.432,282.133 116.684 C 280.828 117.936,274.251 124.497,267.518 131.264 C 252.212 146.648,238.803 160.036,235.782 162.950 C 234.510 164.177,232.384 166.326,231.057 167.726 C 229.731 169.126,227.578 171.287,226.274 172.529 C 224.970 173.770,222.886 175.851,221.643 177.154 C 220.400 178.456,216.088 182.779,212.061 186.759 C 208.034 190.740,203.789 194.979,202.627 196.180 C 201.465 197.380,189.275 209.594,175.537 223.321 C 146.971 251.865,148.899 250.257,143.225 250.257 C 137.296 250.257,140.632 253.164,100.348 212.895 C 61.730 174.290,63.142 175.570,59.209 175.600 C 54.449 175.637,51.631 177.551,42.170 187.177 C 34.087 195.399,32.580 197.781,32.598 202.307 C 32.613 206.408,30.531 204.131,73.776 247.345 C 109.783 283.325,111.902 285.505,115.086 289.843 C 116.452 291.704,118.421 293.823,120.037 295.171 C 121.513 296.402,123.611 298.498,124.700 299.828 C 125.788 301.159,127.855 303.229,129.292 304.427 C 130.728 305.626,132.886 307.712,134.086 309.063 C 137.876 313.330,143.354 314.760,147.856 312.659 C 149.713 311.792,169.200 292.627,171.742 289.167 C 174.668 285.185,179.753 280.041,272.631 187.104 C 367.126 92.549,367.126 92.549,367.783 90.116 C 369.156 85.036,367.293 81.782,357.331 71.859 C 347.389 61.956,343.953 59.965,339.260 61.389 " stroke="none" fill-rule="evenodd"></path></g></svg>