<svg id="svg" version="1.1" xmlns="http://www.w3.org/2000/svg" xmlns:xlink="http://www.w3.org/1999/xlink" width="400" height="252.63157894736844" viewBox="0, 0, 400,252.63157894736844"><g id="svgg"><path id="path0" d="M248.461 45.722 C 247.529 46.268,227.148 66.488,178.969 114.663 C 123.179 170.449,110.568 182.939,109.544 183.420 C 107.101 184.569,103.776 184.569,101.388 183.422 C 100.463 182.977,94.806 177.461,76.563 159.210 C 45.137 127.770,46.609 129.122,43.807 129.122 C 40.325 129.122,38.221 130.507,31.573 137.178 C 25.090 143.683,23.752 145.738,23.752 149.187 C 23.752 151.661,23.383 151.257,49.856 177.763 C 76.434 204.373,82.677 210.767,84.401 213.140 C 86.395 215.886,100.496 229.670,102.043 230.386 C 103.802 231.201,107.626 231.138,109.286 230.268 C 110.555 229.602,124.932 215.382,126.519 213.222 C 128.673 210.290,132.672 206.246,201.533 137.353 C 275.479 63.372,271.383 67.621,271.383 64.882 C 271.383 61.404,269.893 59.206,262.755 52.158 C 256.372 45.856,255.372 45.204,251.839 45.044 C 249.914 44.956,249.693 45.001,248.461 45.722 M354.011 45.535 C 353.164 45.950,335.478 63.482,284.594 114.347 C 212.431 186.483,215.303 183.707,212.368 184.168 C 208.774 184.732,206.696 183.916,203.133 180.544 C 200.354 177.913,198.767 176.995,196.289 176.585 C 192.927 176.027,191.230 177.169,183.847 184.955 C 182.864 185.992,181.021 187.868,179.752 189.124 C 174.352 194.472,174.905 197.279,183.028 205.745 C 185.692 208.521,188.743 211.947,189.809 213.358 C 190.921 214.831,192.466 216.507,193.435 217.294 C 194.364 218.047,196.085 219.780,197.260 221.145 C 198.435 222.510,199.504 223.626,199.636 223.626 C 199.769 223.626,201.333 225.088,203.113 226.875 C 206.997 230.774,207.608 231.074,211.346 230.910 C 214.260 230.783,215.282 230.240,217.700 227.538 C 218.641 226.487,220.127 225.058,221.002 224.361 C 221.877 223.664,223.348 222.190,224.270 221.084 C 225.192 219.979,226.789 218.377,227.819 217.526 C 229.014 216.537,230.490 214.915,231.899 213.042 C 233.780 210.542,244.149 200.064,301.941 142.262 C 384.511 59.678,376.567 67.922,376.560 64.825 C 376.552 61.239,375.457 59.562,368.688 52.780 C 361.099 45.175,357.935 43.614,354.011 45.535 " stroke="none" fill-rule="evenodd"></path></g></svg>