<svg class="icon_dialogs_chat" version="1.1" xmlns="http://www.w3.org/2000/svg" xmlns:xlink="http://www.w3.org/1999/xlink" width="400" height="264" viewBox="0, 0, 400,264"><g id="svgg"><path id="path0" d="M269.043 27.491 C 265.028 27.779,262.586 28.498,258.436 30.615 C 256.450 31.627,253.242 33.121,251.307 33.934 C 246.289 36.043,245.961 36.276,241.012 41.248 C 236.142 46.140,235.925 46.458,233.591 52.145 C 232.935 53.743,231.578 56.653,230.575 58.614 C 226.123 67.318,226.187 77.074,230.757 86.109 C 231.759 88.089,233.189 91.178,233.935 92.973 C 235.920 97.751,236.225 98.176,241.303 103.264 C 246.271 108.241,246.692 108.540,251.523 110.498 C 252.809 111.020,255.762 112.392,258.086 113.549 C 264.088 116.536,265.215 116.800,272.079 116.817 C 279.035 116.835,280.059 116.611,285.809 113.807 C 288.132 112.674,291.518 111.119,293.333 110.351 C 297.914 108.414,298.183 108.218,303.256 103.134 C 308.195 98.184,308.496 97.761,310.508 92.937 C 311.265 91.122,312.686 88.033,313.666 86.073 C 318.390 76.617,318.341 67.101,313.522 57.993 C 312.742 56.519,311.495 53.828,310.750 52.013 C 308.622 46.829,308.066 45.948,305.109 43.083 C 303.642 41.661,301.670 39.668,300.726 38.653 C 298.880 36.668,297.030 35.559,292.409 33.672 C 291.102 33.138,288.567 31.933,286.775 30.994 C 280.775 27.851,276.314 26.970,269.043 27.491 M124.884 27.609 C 124.521 27.670,123.399 27.854,122.391 28.018 C 119.819 28.437,117.294 29.347,114.452 30.879 C 113.109 31.603,110.660 32.747,109.009 33.420 C 102.643 36.018,102.533 36.092,97.382 41.231 C 92.220 46.383,92.125 46.522,89.508 52.812 C 88.754 54.623,87.562 57.175,86.860 58.482 C 82.223 67.108,82.213 78.371,86.834 86.285 C 87.402 87.257,88.545 89.657,89.375 91.617 C 92.084 98.019,92.274 98.301,97.234 103.246 C 102.072 108.068,102.561 108.428,106.535 110.090 C 107.987 110.698,111.373 112.244,114.059 113.526 C 120.580 116.638,121.443 116.835,128.449 116.817 C 135.292 116.800,136.394 116.542,142.442 113.549 C 144.766 112.399,147.986 110.911,149.599 110.242 C 153.780 108.508,154.565 107.929,159.525 102.933 C 164.387 98.034,164.610 97.704,166.982 91.881 C 167.662 90.211,168.854 87.652,169.630 86.193 C 174.301 77.414,174.296 67.058,169.617 58.218 C 168.848 56.766,167.662 54.211,166.982 52.541 C 164.559 46.595,164.378 46.330,159.223 41.175 C 154.210 36.161,153.846 35.903,149.043 33.947 C 147.736 33.415,144.766 32.032,142.442 30.874 C 136.612 27.968,130.032 26.744,124.884 27.609 M118.020 153.825 C 117.076 153.879,112.977 154.104,108.911 154.325 C 95.018 155.080,91.641 155.640,84.964 158.297 C 80.324 160.144,78.106 160.816,74.191 161.564 C 62.220 163.849,61.588 164.037,57.294 166.580 C 53.997 168.533,52.233 169.270,47.423 170.705 C 43.583 171.850,43.509 171.888,40.081 174.461 C 38.450 175.685,35.748 177.341,33.507 178.489 C 30.011 180.281,29.478 180.655,26.931 183.110 C 25.406 184.579,23.418 186.342,22.513 187.028 C 20.666 188.427,19.823 189.539,18.282 192.607 C 17.699 193.769,16.268 196.291,15.103 198.212 C 11.476 204.191,11.331 204.981,11.161 219.748 C 10.986 234.900,11.064 235.423,13.724 236.767 L 14.902 237.362 128.573 237.295 C 242.017 237.228,242.246 237.227,243.168 236.695 C 243.755 236.357,244.334 235.682,244.752 234.847 L 245.413 233.531 245.388 221.782 C 245.356 205.938,245.137 204.591,241.672 198.885 C 240.721 197.320,239.406 194.970,238.749 193.663 C 236.862 189.911,235.963 188.687,233.883 187.036 C 232.818 186.191,230.759 184.361,229.307 182.970 C 226.922 180.685,226.299 180.252,222.862 178.490 C 220.587 177.323,217.935 175.694,216.262 174.435 C 213.006 171.985,212.301 171.640,207.977 170.382 C 204.304 169.314,201.645 168.161,198.882 166.439 C 195.449 164.299,192.917 163.501,185.215 162.129 C 179.257 161.068,176.579 160.318,171.504 158.288 C 164.746 155.584,162.374 155.185,147.855 154.307 C 141.554 153.926,121.840 153.608,118.020 153.825 M270.073 153.910 C 265.365 154.786,265.312 156.936,269.876 161.986 C 272.421 164.803,273.145 165.793,275.024 169.032 C 275.976 170.672,277.389 172.801,278.164 173.763 C 281.042 177.334,281.562 178.517,283.433 185.743 C 283.959 187.776,284.965 190.806,285.667 192.477 C 288.499 199.213,288.610 200.126,288.816 218.350 C 289.017 236.111,288.948 235.794,292.866 236.957 C 295.178 237.644,385.172 237.547,386.693 236.857 C 389.368 235.642,389.530 234.641,389.360 220.462 C 389.181 205.508,388.984 204.402,385.467 198.529 C 384.341 196.649,382.844 193.973,382.139 192.583 C 380.616 189.577,379.701 188.447,377.193 186.478 C 376.159 185.666,374.363 184.037,373.201 182.859 C 371.302 180.931,370.685 180.505,367.070 178.628 C 364.756 177.425,361.956 175.709,360.470 174.583 C 357.183 172.092,356.309 171.659,351.873 170.330 C 347.687 169.075,345.833 168.273,342.740 166.382 C 339.236 164.240,337.104 163.572,329.109 162.116 C 323.202 161.039,320.324 160.247,316.172 158.553 C 308.949 155.606,306.571 155.193,291.789 154.322 C 283.484 153.832,271.694 153.609,270.073 153.910 " stroke="none" fill-rule="evenodd"></path></g></svg>