<svg id="svg" version="1.1" xmlns="http://www.w3.org/2000/svg" xmlns:xlink="http://www.w3.org/1999/xlink" width="400" height="288.8888888888889" viewBox="0, 0, 400,288.8888888888889"><g id="svgg"><path id="path0" d="M129.769 47.421 C 125.933 47.850,123.384 48.685,117.799 51.344 C 114.950 52.699,112.314 53.925,111.939 54.067 C 108.487 55.380,99.881 63.997,98.565 67.460 C 98.416 67.851,97.131 70.618,95.708 73.608 C 92.484 80.388,91.650 83.627,91.627 89.458 C 91.604 95.633,92.313 98.091,96.725 107.124 L 100.091 114.017 104.020 117.955 C 108.327 122.272,109.641 123.221,114.162 125.280 C 115.831 126.040,118.457 127.293,119.998 128.065 C 128.962 132.556,138.934 132.267,148.988 127.226 C 150.578 126.429,153.309 125.092,155.058 124.255 C 158.152 122.774,158.354 122.617,162.615 118.375 L 166.994 114.017 170.225 107.370 C 175.063 97.418,175.634 95.220,175.355 87.611 C 175.118 81.159,175.014 80.856,168.128 66.474 C 166.912 63.934,158.815 55.736,156.358 54.556 C 155.484 54.137,152.558 52.730,149.855 51.431 C 141.574 47.450,137.245 46.586,129.769 47.421 M261.927 47.417 C 258.590 47.851,256.525 48.558,251.301 51.054 C 248.439 52.421,245.253 53.938,244.220 54.424 C 242.673 55.153,241.542 56.105,237.821 59.808 L 233.301 64.306 229.921 71.243 C 222.852 85.745,222.872 92.319,230.030 106.987 L 233.461 114.017 237.628 118.141 C 242.727 123.189,241.609 122.434,249.880 126.408 C 257.520 130.078,258.731 130.480,263.624 130.969 C 270.956 131.701,274.610 130.877,284.104 126.352 L 291.185 122.977 295.333 118.931 C 300.439 113.951,300.455 113.928,304.166 106.163 C 308.125 97.878,308.405 96.883,308.593 90.421 C 308.825 82.434,308.409 80.829,303.488 70.726 L 300.280 64.140 295.991 59.845 L 291.703 55.550 285.085 52.321 C 274.849 47.327,270.197 46.342,261.927 47.417 M121.098 164.173 C 101.151 165.568,99.698 165.805,89.595 169.309 C 87.290 170.108,83.779 171.108,81.792 171.530 C 72.786 173.447,71.451 173.862,67.042 176.112 C 64.732 177.292,61.025 178.883,58.805 179.649 C 55.414 180.818,54.277 181.374,51.695 183.126 C 50.005 184.272,47.210 186.010,45.484 186.988 C 40.955 189.554,34.201 195.362,32.439 198.204 C 24.653 210.771,24.722 210.511,24.716 227.168 L 24.711 238.295 25.434 239.735 C 25.892 240.649,26.526 241.388,27.168 241.758 C 28.323 242.424,236.282 242.855,238.726 242.197 C 242.273 241.242,242.341 240.958,242.341 227.168 C 242.341 211.905,242.183 210.991,238.436 204.624 C 237.360 202.796,235.945 200.366,235.291 199.225 C 233.358 195.851,226.676 189.849,221.958 187.251 C 220.452 186.421,217.707 184.716,215.857 183.462 C 212.950 181.491,211.906 180.974,208.147 179.644 C 205.756 178.797,202.316 177.315,200.504 176.350 C 196.416 174.174,194.244 173.442,187.988 172.132 C 182.551 170.994,180.237 170.340,174.855 168.420 C 168.564 166.175,165.091 165.590,152.023 164.571 C 145.165 164.037,126.482 163.796,121.098 164.173 M264.369 164.166 C 259.360 165.446,259.547 167.577,265.237 174.086 C 266.188 175.173,267.859 177.505,268.953 179.268 C 270.046 181.032,271.567 183.329,272.333 184.373 C 274.303 187.059,275.252 189.196,276.454 193.653 C 277.032 195.793,278.069 199.234,278.760 201.301 C 281.110 208.325,281.503 211.989,281.503 226.868 C 281.503 239.861,281.780 240.820,285.887 242.040 C 287.853 242.624,370.374 242.726,372.307 242.147 C 375.572 241.168,375.800 240.047,375.644 225.745 C 375.481 210.865,375.478 210.850,371.223 203.694 C 370.157 201.901,368.880 199.734,368.385 198.878 C 366.996 196.476,359.335 189.462,356.324 187.836 C 355.026 187.135,352.357 185.491,350.393 184.183 C 345.983 181.245,345.577 181.041,340.751 179.341 C 338.605 178.585,335.289 177.148,333.382 176.147 C 329.309 174.009,327.999 173.583,320.593 171.988 C 316.876 171.187,313.113 170.125,309.251 168.787 C 301.252 166.015,299.184 165.655,285.116 164.583 C 277.893 164.032,265.841 163.790,264.369 164.166 " stroke="none" fill-rule="evenodd"></path></g></svg>