<svg class="icon_dialogs_bot" version="1.1" xmlns="http://www.w3.org/2000/svg" xmlns:xlink="http://www.w3.org/1999/xlink" width="400" height="288.8888888888889" viewBox="0, 0, 400,288.8888888888889"><g id="svgg"><path id="path0" d="M196.676 26.507 C 194.952 26.746,192.255 27.519,187.795 29.054 C 184.966 30.027,181.106 31.063,177.579 31.797 C 170.030 33.366,168.103 34.018,164.108 36.359 C 161.926 37.637,159.573 38.729,157.460 39.445 C 153.260 40.868,151.792 41.610,149.133 43.653 C 147.941 44.569,145.665 46.107,144.075 47.070 C 142.486 48.033,140.517 49.379,139.700 50.061 C 133.948 54.864,130.911 57.700,128.700 60.331 C 123.381 66.661,122.621 67.678,121.250 70.291 C 120.475 71.768,118.944 74.320,117.847 75.961 C 115.420 79.594,114.789 81.221,113.131 88.123 C 112.420 91.079,111.259 95.253,110.550 97.399 C 107.055 107.975,107.225 104.554,107.228 164.298 C 107.231 223.498,107.064 220.145,110.397 228.018 C 111.201 229.916,112.510 233.476,113.305 235.929 C 114.889 240.816,115.315 241.539,119.833 247.012 C 124.727 252.939,128.929 256.062,134.745 258.091 C 136.638 258.751,139.251 259.781,140.553 260.379 C 148.171 263.880,144.652 263.664,196.098 263.797 C 251.542 263.940,250.556 263.992,258.671 260.468 C 260.499 259.674,263.360 258.538,265.029 257.944 C 271.470 255.652,275.938 252.104,282.285 244.243 C 285.195 240.639,285.527 239.967,287.795 233.092 C 288.582 230.708,289.821 227.327,290.548 225.578 C 293.457 218.588,293.396 220.013,293.281 161.416 C 293.167 103.485,293.401 107.903,289.885 97.254 C 289.098 94.870,287.876 90.513,287.170 87.572 C 285.541 80.790,285.011 79.403,282.818 76.179 C 281.836 74.736,280.365 72.318,279.551 70.806 C 277.278 66.587,271.237 59.151,267.265 55.681 C 266.273 54.816,264.164 52.978,262.577 51.598 C 260.991 50.218,258.224 48.178,256.429 47.064 C 254.634 45.950,252.226 44.324,251.077 43.449 C 248.436 41.437,247.659 41.043,243.577 39.635 C 239.884 38.362,238.450 37.685,235.260 35.714 C 232.706 34.135,230.179 33.290,224.855 32.233 C 219.140 31.098,216.852 30.488,211.705 28.728 C 205.355 26.555,200.990 25.911,196.676 26.507 M221.243 57.039 C 226.356 57.844,229.089 58.834,232.327 61.055 C 233.019 61.530,235.347 62.755,237.501 63.779 C 241.816 65.829,243.380 66.809,245.473 68.774 C 246.242 69.496,248.058 70.997,249.509 72.110 C 251.119 73.345,252.752 74.921,253.699 76.156 C 254.553 77.269,256.363 79.415,257.720 80.925 C 259.874 83.321,260.445 84.204,262.213 87.861 C 263.327 90.166,264.928 93.288,265.770 94.798 C 268.547 99.775,269.330 103.434,270.101 115.029 C 271.357 133.927,270.313 138.727,263.469 145.520 L 259.393 149.566 252.601 152.964 C 240.768 158.883,238.600 159.108,195.588 158.878 C 159.316 158.685,155.966 158.343,148.680 154.096 C 147.079 153.163,144.478 151.773,142.899 151.006 C 140.296 149.742,139.717 149.300,136.686 146.264 C 131.122 140.692,130.713 139.362,130.450 126.012 C 130.101 108.235,131.086 100.559,134.419 95.073 C 135.236 93.729,136.920 90.546,138.162 87.998 C 140.163 83.894,140.680 83.088,142.695 80.917 C 143.947 79.570,145.569 77.688,146.301 76.734 C 147.866 74.696,149.167 73.443,151.725 71.512 C 152.753 70.735,154.509 69.274,155.627 68.265 C 157.228 66.819,158.585 65.976,162.030 64.288 C 164.433 63.110,167.544 61.428,168.942 60.550 C 172.764 58.151,176.497 57.137,183.327 56.645 C 189.215 56.221,217.943 56.519,221.243 57.039 M52.652 130.367 C 49.911 130.907,43.337 134.695,40.896 137.142 C 38.526 139.519,34.752 145.833,33.983 148.707 C 32.822 153.052,32.507 200.349,33.603 205.780 C 35.712 216.231,46.431 226.036,55.780 226.065 C 62.360 226.086,69.660 221.464,74.102 214.463 C 78.661 207.280,78.390 209.334,78.538 180.780 C 78.703 148.802,78.723 148.977,74.164 141.836 C 71.328 137.394,70.412 136.474,66.240 133.877 C 60.485 130.296,57.255 129.461,52.652 130.367 M340.966 130.509 C 338.944 130.999,338.306 131.320,334.249 133.886 C 330.141 136.483,329.273 137.332,326.698 141.272 C 321.796 148.771,322.148 146.131,322.028 176.301 C 321.901 208.031,321.829 207.345,326.003 213.883 C 329.466 219.306,332.745 222.176,338.584 224.891 C 346.545 228.594,357.159 223.854,363.354 213.831 C 367.501 207.120,367.405 208.038,367.278 176.301 C 367.159 146.238,367.520 149.094,362.894 141.619 C 360.327 137.470,359.351 136.494,355.202 133.926 C 348.977 130.075,345.853 129.325,340.966 130.509 " stroke="none" fill-rule="evenodd"></path></g></svg>