<svg version="1.1" xmlns="http://www.w3.org/2000/svg" xmlns:xlink="http://www.w3.org/1999/xlink" width="400" height="400" viewBox="0, 0, 400,400"><g id="svgg"><path id="path0" d="M251.858 81.008 C 244.886 82.771,240.631 86.245,218.718 108.064 C 193.978 132.699,195.838 131.518,178.200 133.785 C 173.800 134.351,165.250 135.708,159.200 136.800 C 153.150 137.893,143.250 139.421,137.200 140.197 C 124.443 141.831,119.001 142.832,115.272 144.229 C 104.311 148.337,101.910 156.878,108.846 167.092 C 109.559 168.141,118.831 177.737,129.450 188.415 C 156.747 215.863,156.123 210.759,135.482 237.771 C 98.339 286.379,99.373 284.978,97.342 289.413 C 92.976 298.951,101.235 307.825,110.800 303.872 C 114.799 302.219,118.605 299.452,144.200 279.588 C 155.382 270.911,171.916 258.162,176.800 254.451 C 182.958 249.773,186.804 248.766,190.800 250.785 C 192.041 251.411,198.939 257.998,213.000 271.980 C 239.302 298.135,240.169 298.834,246.200 298.769 C 254.945 298.675,258.547 293.738,261.206 278.200 C 262.034 273.360,263.358 266.036,264.149 261.924 C 264.940 257.813,266.140 250.343,266.817 245.324 C 267.494 240.306,268.678 232.780,269.450 228.600 C 270.221 224.420,271.461 217.471,272.206 213.159 C 274.414 200.366,273.509 201.686,294.824 180.200 C 318.404 156.431,320.390 153.525,320.387 142.800 C 320.384 131.664,318.527 128.868,296.248 106.459 C 277.367 87.468,273.098 83.889,266.534 81.548 C 263.426 80.439,255.292 80.140,251.858 81.008 " stroke="none" fill-rule="evenodd"></path></g></svg>