<svg id="svg" version="1.1" xmlns="http://www.w3.org/2000/svg" xmlns:xlink="http://www.w3.org/1999/xlink" width="400" height="400" viewBox="0, 0, 400,400"><g id="svgg"><path id="path0" d="M196.800 26.547 C 190.629 27.893,183.222 34.624,175.551 45.857 C 157.863 71.758,139.385 78.860,104.400 73.201 C 77.713 68.884,68.564 78.385,73.358 105.435 C 77.377 128.108,75.529 141.118,66.167 156.064 C 62.739 161.536,54.093 169.826,46.190 175.219 C 19.750 193.259,19.596 206.279,45.600 225.003 C 72.345 244.260,79.202 261.636,73.302 295.200 C 68.544 322.272,77.961 331.773,105.067 327.249 C 122.129 324.401,135.379 324.624,143.600 327.897 C 156.261 332.939,166.555 341.527,175.252 354.303 C 193.373 380.926,207.352 380.943,225.223 354.365 C 241.939 329.506,261.896 321.571,294.032 327.006 C 322.689 331.853,331.959 323.049,327.237 295.472 C 321.294 260.771,327.864 244.733,356.637 223.704 C 380.756 206.077,380.256 192.717,354.839 175.626 C 347.476 170.675,338.270 161.966,334.823 156.690 C 325.166 141.911,323.196 129.140,327.038 106.230 C 331.754 78.107,323.026 68.699,296.366 73.172 C 279.364 76.025,265.567 75.850,257.152 72.674 C 245.199 68.163,233.622 58.623,225.637 46.702 C 215.124 31.008,205.901 24.562,196.800 26.547 " stroke="none" fill-rule="evenodd"></path></g></svg>