<svg version="1.1" xmlns="http://www.w3.org/2000/svg" xmlns:xlink="http://www.w3.org/1999/xlink" width="400" height="288.8888888888889" viewBox="0, 0, 400,288.8888888888889"><g id="svgg"><path id="path0" d="M193.786 23.151 C 189.928 23.617,185.051 24.834,180.636 26.432 C 178.331 27.267,174.624 28.431,172.399 29.019 C 166.183 30.663,163.434 31.686,159.947 33.657 C 158.185 34.652,155.389 36.021,153.733 36.698 C 149.476 38.440,148.162 39.142,145.395 41.150 C 144.054 42.123,141.622 43.764,139.991 44.798 C 132.849 49.322,122.478 60.012,118.401 67.052 C 117.251 69.039,115.620 71.683,114.778 72.928 C 112.917 75.677,112.796 75.954,110.530 82.659 C 109.536 85.600,108.131 89.656,107.408 91.673 C 104.087 100.928,104.191 98.581,104.191 164.306 C 104.191 230.013,103.989 226.242,107.925 234.059 C 108.479 235.159,109.669 237.798,110.570 239.923 C 113.013 245.690,117.832 251.950,123.357 256.535 C 128.321 260.655,140.475 265.701,147.399 266.516 C 152.263 267.089,246.775 267.091,251.879 266.518 C 267.341 264.783,284.484 252.581,289.577 239.687 C 290.217 238.068,291.535 235.025,292.507 232.925 C 294.510 228.597,295.430 225.328,295.996 220.520 C 296.558 215.750,296.573 111.178,296.012 105.780 C 295.257 98.504,294.586 95.619,292.108 88.995 C 291.251 86.702,290.123 83.396,289.601 81.647 C 288.355 77.467,287.209 75.012,284.945 71.676 C 283.920 70.166,282.369 67.644,281.498 66.072 C 280.468 64.215,279.148 62.392,277.730 60.870 C 276.530 59.581,274.763 57.585,273.804 56.434 C 272.845 55.283,271.031 53.473,269.773 52.412 C 268.515 51.351,266.640 49.679,265.607 48.696 C 264.574 47.713,262.233 45.935,260.405 44.745 C 258.577 43.554,256.040 41.830,254.769 40.912 C 252.047 38.949,250.568 38.168,247.001 36.812 C 245.551 36.260,242.710 34.894,240.687 33.776 C 236.191 31.289,235.448 31.003,229.156 29.326 C 226.403 28.592,222.586 27.428,220.674 26.739 C 215.526 24.885,213.508 24.311,209.827 23.655 C 205.981 22.970,197.491 22.703,193.786 23.151 M215.290 59.848 C 220.430 60.330,223.265 61.181,228.359 63.773 C 230.810 65.020,234.113 66.645,235.700 67.384 C 237.286 68.123,239.429 69.383,240.462 70.184 C 241.496 70.985,243.831 72.786,245.652 74.187 C 247.473 75.588,249.619 77.525,250.421 78.492 C 257.361 86.863,258.323 88.317,260.446 93.642 C 261.111 95.311,262.238 97.847,262.949 99.277 C 266.271 105.956,267.260 112.406,266.971 125.498 C 266.748 135.629,266.287 136.930,261.019 142.296 C 256.556 146.843,256.324 146.985,247.905 150.329 C 234.922 155.485,234.582 155.528,205.202 155.699 C 167.451 155.919,163.745 155.552,151.041 150.328 C 143.560 147.251,142.628 146.654,138.736 142.438 C 133.863 137.160,133.669 136.378,133.674 122.110 C 133.680 108.603,134.273 104.917,137.392 98.988 C 138.229 97.399,139.410 94.928,140.018 93.497 C 142.304 88.113,142.588 87.666,148.044 80.921 C 149.946 78.568,151.885 76.515,153.060 75.609 C 154.113 74.797,156.294 73.097,157.906 71.831 C 161.513 68.999,163.104 68.027,166.702 66.462 C 168.246 65.790,170.792 64.535,172.360 63.673 C 176.818 61.222,180.278 60.242,186.272 59.733 C 189.240 59.481,212.349 59.573,215.290 59.848 M50.185 127.038 C 41.214 128.821,31.654 139.306,30.302 148.844 C 29.750 152.740,29.736 203.565,30.286 207.305 C 31.915 218.376,42.289 228.545,52.895 229.467 C 63.489 230.387,71.329 226.312,77.891 216.474 C 81.601 210.912,81.561 211.271,81.714 181.358 C 81.894 145.973,81.804 145.128,77.166 138.656 C 70.248 129.002,60.792 124.930,50.185 127.038 M339.795 126.891 C 331.923 128.214,321.572 137.890,319.702 145.674 C 318.601 150.260,318.392 204.698,319.457 209.538 C 321.044 216.748,329.920 226.444,336.922 228.617 C 347.866 232.013,358.580 227.916,366.141 217.444 C 370.435 211.497,370.304 212.622,370.442 180.491 C 370.597 144.594,370.628 144.867,365.735 138.270 C 358.819 128.945,350.165 125.149,339.795 126.891 " stroke="none" fill-rule="evenodd"></path></g></svg>