<svg class="icon_dialogs_seach_cancel" version="1.1" xmlns="http://www.w3.org/2000/svg" xmlns:xlink="http://www.w3.org/1999/xlink" width="400" height="400" viewBox="0, 0, 400,400"><g id="svgg"><path id="path0" d="M79.152 63.144 C 76.734 64.678,64.725 76.660,63.207 79.054 C 61.752 81.348,61.644 83.319,62.841 85.716 C 63.416 86.867,80.231 103.978,115.989 139.800 C 174.764 198.681,170.600 194.072,170.600 200.240 C 170.600 206.469,174.464 202.191,116.145 260.529 C 86.058 290.626,63.971 313.026,63.245 314.178 C 60.558 318.448,61.485 320.356,70.756 329.642 C 80.011 338.912,82.362 340.038,86.440 337.156 C 87.408 336.472,111.510 312.639,140.000 284.194 C 195.706 228.576,193.268 230.841,198.395 229.938 C 201.050 229.470,204.672 230.186,207.167 231.670 C 207.955 232.139,232.180 256.046,261.000 284.797 C 314.351 338.019,314.754 338.400,317.776 338.400 C 322.113 338.400,337.858 323.103,338.304 318.456 C 338.652 314.836,340.086 316.375,284.607 260.800 C 251.426 227.561,232.131 207.946,231.487 206.800 C 229.263 202.843,229.185 198.441,231.260 194.021 C 231.914 192.627,244.416 179.871,284.594 139.600 C 318.651 105.465,337.307 86.487,337.737 85.540 C 339.548 81.550,338.456 79.556,329.642 70.756 C 320.355 61.484,318.446 60.557,314.178 63.247 C 313.026 63.973,290.610 86.098,260.510 116.217 C 202.040 174.724,206.602 170.610,200.208 170.590 C 194.041 170.570,198.919 174.978,140.000 116.179 C 104.120 80.372,86.865 63.418,85.716 62.843 C 83.356 61.662,81.344 61.754,79.152 63.144 " stroke="none" fill-rule="evenodd"></path></g></svg>