<svg class="icon_dialogs_bot" version="1.1" xmlns="http://www.w3.org/2000/svg" xmlns:xlink="http://www.w3.org/1999/xlink" width="400" height="291.6666666666667" viewBox="0, 0, 400,291.6666666666667"><g id="svgg"><path id="path0" d="M195.332 14.421 C 194.530 14.623,192.152 15.460,190.049 16.280 C 184.954 18.268,182.972 18.796,176.076 20.000 C 167.214 21.548,165.151 22.221,161.342 24.800 C 158.793 26.526,156.458 27.591,152.774 28.708 C 148.000 30.155,147.059 30.624,144.023 33.072 C 142.557 34.255,140.193 35.864,138.770 36.648 C 137.348 37.433,135.168 38.928,133.926 39.971 C 132.684 41.014,129.863 43.376,127.657 45.220 C 124.481 47.875,122.788 49.596,119.518 53.494 C 113.979 60.098,113.404 60.900,111.540 64.624 C 110.656 66.389,109.176 68.884,108.252 70.168 C 105.368 74.173,104.624 76.255,102.985 84.902 C 102.365 88.170,101.437 91.636,100.093 95.697 C 96.090 107.797,96.279 104.211,96.287 167.907 C 96.294 229.390,96.281 229.023,98.680 234.708 C 101.474 241.327,102.202 243.311,103.284 247.265 C 104.795 252.785,105.409 254.103,107.562 256.455 C 108.516 257.498,110.099 259.412,111.078 260.707 C 112.057 262.003,113.691 263.769,114.708 264.631 C 115.725 265.494,117.476 267.074,118.600 268.142 C 121.097 270.517,122.052 271.016,126.655 272.360 C 130.216 273.400,132.388 274.225,137.564 276.507 C 144.009 279.349,141.716 279.255,201.605 279.142 C 260.616 279.030,255.414 279.264,261.906 276.428 C 267.682 273.905,268.836 273.466,272.899 272.243 C 277.861 270.750,278.306 270.524,280.671 268.281 C 281.714 267.292,283.614 265.645,284.894 264.623 C 287.397 262.622,288.075 261.902,289.823 259.390 C 290.443 258.498,291.706 256.976,292.630 256.009 C 294.841 253.692,295.623 252.063,297.004 246.899 C 298.389 241.717,299.181 239.381,300.769 235.797 C 304.336 227.746,304.084 232.474,304.223 170.970 C 304.370 105.535,304.441 106.953,300.490 95.901 C 299.129 92.094,298.169 88.428,297.306 83.735 C 295.925 76.233,294.933 73.542,292.243 70.001 C 291.415 68.911,289.917 66.402,288.915 64.425 C 286.515 59.691,278.890 50.305,274.387 46.540 C 273.430 45.740,271.269 43.900,269.584 42.450 C 265.305 38.768,264.546 38.208,261.497 36.496 C 260.018 35.664,258.131 34.432,257.303 33.758 C 253.577 30.719,252.910 30.347,249.030 29.131 C 243.950 27.540,242.123 26.751,239.619 25.070 C 235.429 22.255,233.204 21.498,225.145 20.140 C 218.587 19.036,215.609 18.255,210.665 16.345 C 204.448 13.942,199.635 13.338,195.332 14.421 M217.958 46.099 C 228.518 46.593,231.905 47.434,237.242 50.886 C 239.064 52.064,242.153 53.759,244.108 54.652 C 248.720 56.760,249.758 57.437,252.222 59.948 C 253.347 61.094,255.186 62.671,256.309 63.452 C 259.079 65.376,259.794 66.060,261.350 68.271 C 262.084 69.314,263.974 71.495,265.551 73.116 C 268.317 75.961,268.493 76.223,270.584 80.598 C 271.776 83.092,273.402 86.171,274.197 87.439 C 277.612 92.888,278.519 96.076,279.203 105.033 C 280.803 125.976,280.766 129.957,278.898 138.001 C 278.052 141.645,276.991 143.267,272.404 147.927 L 268.367 152.029 264.672 153.798 C 262.640 154.771,260.056 156.193,258.929 156.957 C 251.287 162.142,246.415 162.748,210.357 162.999 C 158.168 163.363,147.528 162.487,140.627 157.258 C 139.745 156.590,137.644 155.382,135.959 154.574 C 128.745 151.117,123.210 145.196,121.805 139.430 C 120.997 136.117,120.622 123.101,121.014 111.961 C 121.534 97.185,122.175 93.974,125.747 88.257 C 126.850 86.492,128.697 83.078,129.852 80.671 C 131.856 76.494,132.080 76.162,134.786 73.377 C 136.344 71.772,138.233 69.587,138.982 68.521 C 140.514 66.339,141.792 65.103,144.302 63.376 C 145.250 62.724,147.172 61.078,148.575 59.717 C 150.977 57.385,151.422 57.097,156.257 54.731 C 159.080 53.351,162.199 51.646,163.189 50.945 C 167.875 47.622,171.931 46.576,181.911 46.113 C 188.911 45.789,211.137 45.780,217.958 46.099 M33.697 131.296 C 32.734 131.602,31.092 132.382,30.050 133.029 C 29.008 133.677,26.916 134.888,25.401 135.721 C 22.122 137.525,20.756 138.814,19.519 141.275 C 19.013 142.283,17.816 144.318,16.860 145.799 C 13.060 151.680,13.119 151.191,12.934 178.118 C 12.697 212.729,12.905 215.160,16.615 221.093 C 17.689 222.811,18.991 225.014,19.509 225.989 C 20.638 228.115,22.090 229.671,23.901 230.694 C 24.636 231.109,26.697 232.353,28.482 233.458 C 35.507 237.807,40.084 237.885,46.461 233.767 C 47.946 232.807,49.862 231.669,50.719 231.237 C 52.906 230.136,54.701 228.377,55.929 226.136 C 56.507 225.080,57.678 223.093,58.531 221.720 C 62.605 215.166,62.436 216.807,62.436 183.662 C 62.436 150.819,62.522 151.713,58.826 146.043 C 57.983 144.749,56.799 142.751,56.195 141.602 C 54.947 139.227,53.545 137.694,51.641 136.624 C 50.919 136.219,48.785 134.970,46.900 133.850 C 41.538 130.665,37.903 129.962,33.697 131.296 M358.715 131.296 C 357.752 131.602,356.111 132.382,355.068 133.029 C 354.026 133.677,351.934 134.888,350.419 135.721 C 347.010 137.596,345.923 138.667,344.206 141.843 C 343.463 143.218,342.200 145.345,341.399 146.571 C 339.937 148.812,339.039 151.073,338.431 154.048 C 337.975 156.279,337.708 199.534,338.101 207.440 C 338.502 215.494,338.919 216.944,342.437 222.520 C 343.367 223.995,344.587 226.014,345.148 227.008 C 346.230 228.925,347.013 229.574,351.422 232.209 C 352.706 232.976,354.544 234.090,355.507 234.684 C 360.432 237.723,365.803 237.419,371.479 233.779 C 372.964 232.826,375.033 231.575,376.076 230.998 C 378.572 229.616,379.784 228.296,381.629 224.945 C 382.468 223.421,383.514 221.648,383.952 221.007 C 387.419 215.935,387.273 217.456,387.386 185.266 C 387.505 151.103,387.587 152.007,383.825 146.025 C 382.816 144.420,381.561 142.288,381.037 141.288 C 379.814 138.955,378.021 137.299,374.882 135.607 C 373.503 134.864,371.543 133.718,370.527 133.061 C 366.953 130.751,362.521 130.089,358.715 131.296 " stroke="none" fill-rule="evenodd"></path></g></svg>