<svg class="icon_dialogs_channel" version="1.1" xmlns="http://www.w3.org/2000/svg" xmlns:xlink="http://www.w3.org/1999/xlink" width="400" height="371.42857142857144" viewBox="0, 0, 400,371.42857142857144"><g id="svgg"><path id="path0" d="M356.134 31.227 C 356.134 31.431,355.799 31.599,355.390 31.599 C 354.981 31.599,354.647 31.753,354.647 31.941 C 354.647 32.129,354.145 32.393,353.532 32.528 C 352.918 32.663,352.416 32.909,352.416 33.075 C 352.416 33.241,351.998 33.482,351.487 33.610 C 350.976 33.738,350.558 34.007,350.558 34.208 C 350.558 34.408,350.307 34.572,350.000 34.572 C 349.693 34.572,349.442 34.729,349.442 34.919 C 349.442 35.110,349.084 35.380,348.645 35.519 C 347.614 35.846,343.494 39.948,343.494 40.648 C 343.494 40.943,343.243 41.281,342.937 41.398 C 342.630 41.516,342.379 41.869,342.379 42.182 C 342.379 42.495,342.212 42.751,342.007 42.751 C 341.803 42.751,341.636 43.068,341.636 43.455 C 341.636 43.842,341.385 44.255,341.078 44.372 C 340.771 44.490,340.520 44.843,340.520 45.156 C 340.520 45.469,340.364 45.725,340.174 45.725 C 339.983 45.725,339.724 46.051,339.597 46.449 C 339.471 46.848,339.023 47.283,338.603 47.416 C 337.474 47.775,336.431 48.775,336.431 49.500 C 336.431 49.850,336.102 50.240,335.701 50.368 C 335.238 50.515,334.882 51.068,334.730 51.880 C 334.598 52.584,334.341 53.160,334.159 53.160 C 333.978 53.160,333.829 53.416,333.829 53.729 C 333.829 54.042,333.578 54.395,333.271 54.512 C 332.965 54.630,332.714 54.954,332.714 55.232 C 332.714 55.795,330.280 58.364,329.746 58.364 C 329.308 58.364,324.907 62.741,324.907 63.177 C 324.907 63.720,322.452 66.074,321.606 66.343 C 321.173 66.480,320.818 66.749,320.818 66.940 C 320.818 67.130,320.567 67.286,320.260 67.286 C 319.954 67.286,319.703 67.440,319.703 67.628 C 319.703 67.817,319.175 68.086,318.531 68.228 C 317.886 68.370,316.969 68.927,316.492 69.466 C 315.645 70.424,315.333 70.753,314.464 71.610 C 314.230 71.841,313.543 72.552,312.938 73.190 C 312.334 73.828,311.601 74.349,311.310 74.349 C 311.019 74.349,310.781 74.517,310.781 74.721 C 310.781 74.926,310.530 75.093,310.223 75.093 C 309.916 75.093,309.665 75.239,309.665 75.417 C 309.665 75.596,308.996 75.848,308.178 75.979 C 307.361 76.110,306.691 76.361,306.691 76.537 C 306.691 76.713,306.022 76.964,305.204 77.094 C 304.387 77.225,303.717 77.498,303.717 77.700 C 303.717 77.902,303.383 78.067,302.974 78.067 C 302.565 78.067,302.230 78.216,302.230 78.398 C 302.230 78.581,301.783 78.842,301.236 78.979 C 300.689 79.117,299.476 80.031,298.541 81.011 C 297.605 81.990,296.464 82.911,296.004 83.057 C 295.544 83.202,295.167 83.477,295.167 83.668 C 295.167 83.859,294.916 84.015,294.610 84.015 C 294.303 84.015,294.052 84.169,294.052 84.357 C 294.052 84.545,293.550 84.810,292.937 84.944 C 292.323 85.079,291.822 85.327,291.822 85.497 C 291.822 85.666,290.985 85.919,289.963 86.059 C 288.941 86.200,288.104 86.467,288.104 86.652 C 288.104 86.837,287.853 86.989,287.546 86.989 C 287.240 86.989,286.989 87.149,286.989 87.344 C 286.989 87.539,286.403 87.808,285.688 87.943 C 284.972 88.077,284.387 88.336,284.387 88.517 C 284.387 88.699,284.130 88.848,283.817 88.848 C 283.504 88.848,283.152 89.099,283.034 89.405 C 282.916 89.712,282.545 89.970,282.209 89.979 C 281.873 89.987,281.188 90.489,280.687 91.094 C 280.185 91.699,279.474 92.193,279.107 92.193 C 278.739 92.193,278.439 92.361,278.439 92.565 C 278.439 92.770,278.188 92.937,277.881 92.937 C 277.574 92.937,277.323 93.091,277.323 93.279 C 277.323 93.467,276.822 93.731,276.208 93.866 C 275.595 94.001,275.093 94.249,275.093 94.418 C 275.093 94.587,274.257 94.841,273.234 94.981 C 272.212 95.122,271.375 95.389,271.375 95.574 C 271.375 95.759,270.957 95.911,270.446 95.911 C 269.935 95.911,269.517 96.063,269.517 96.250 C 269.517 96.436,268.848 96.702,268.030 96.840 C 267.212 96.978,266.543 97.231,266.543 97.401 C 266.543 97.571,266.041 97.821,265.428 97.955 C 264.814 98.090,264.312 98.354,264.312 98.543 C 264.312 98.731,264.122 98.885,263.890 98.885 C 263.658 98.885,263.081 99.303,262.607 99.814 C 262.133 100.325,261.481 100.743,261.158 100.743 C 260.836 100.743,260.475 100.994,260.357 101.301 C 260.240 101.608,259.910 101.859,259.626 101.859 C 259.341 101.859,259.108 102.007,259.108 102.189 C 259.108 102.371,258.522 102.629,257.807 102.764 C 257.091 102.898,256.506 103.165,256.506 103.358 C 256.506 103.551,255.836 103.816,255.019 103.946 C 254.201 104.077,253.532 104.330,253.532 104.508 C 253.532 104.687,253.030 104.833,252.416 104.833 C 251.803 104.833,251.301 104.978,251.301 105.156 C 251.301 105.334,250.297 105.594,249.071 105.733 C 247.844 105.871,246.840 106.134,246.840 106.315 C 246.840 106.497,246.087 106.759,245.167 106.897 C 244.247 107.035,243.494 107.296,243.494 107.477 C 243.494 107.658,243.243 107.807,242.937 107.807 C 242.630 107.807,242.379 107.963,242.379 108.153 C 242.379 108.344,242.003 108.618,241.543 108.763 C 241.083 108.907,240.338 109.420,239.888 109.903 C 239.437 110.386,238.828 110.781,238.533 110.781 C 238.239 110.781,237.901 111.032,237.784 111.338 C 237.666 111.645,237.314 111.896,237.001 111.896 C 236.687 111.896,236.431 112.057,236.431 112.255 C 236.431 112.452,235.595 112.725,234.572 112.860 C 233.550 112.996,232.714 113.253,232.714 113.431 C 232.714 113.609,231.877 113.755,230.855 113.755 C 229.833 113.755,228.996 113.910,228.996 114.100 C 228.996 114.310,199.519 114.491,153.332 114.564 C 98.866 114.650,77.594 114.798,77.403 115.093 C 77.257 115.317,75.634 115.605,73.796 115.731 C 71.958 115.858,70.396 116.134,70.326 116.345 C 70.256 116.556,69.794 116.729,69.300 116.729 C 68.806 116.729,68.401 116.883,68.401 117.071 C 68.401 117.259,67.900 117.523,67.286 117.658 C 66.673 117.793,66.171 118.057,66.171 118.245 C 66.171 118.433,65.920 118.587,65.613 118.587 C 65.307 118.587,65.056 118.751,65.056 118.952 C 65.056 119.153,64.638 119.422,64.126 119.550 C 63.615 119.678,63.197 119.914,63.197 120.074 C 63.197 120.234,62.779 120.470,62.268 120.599 C 61.757 120.727,61.338 120.996,61.338 121.197 C 61.338 121.397,61.087 121.561,60.781 121.561 C 60.474 121.561,60.223 121.721,60.223 121.916 C 60.223 122.111,59.638 122.381,58.922 122.515 C 58.206 122.649,57.621 122.895,57.621 123.060 C 57.621 123.226,57.119 123.471,56.506 123.606 C 55.892 123.741,55.390 124.005,55.390 124.193 C 55.390 124.381,54.972 124.535,54.461 124.535 C 53.950 124.535,53.532 124.684,53.532 124.867 C 53.532 125.049,53.098 125.307,52.569 125.440 C 51.680 125.663,48.327 128.602,48.327 129.158 C 48.327 129.292,47.909 129.820,47.398 130.331 C 46.887 130.842,46.468 131.504,46.468 131.801 C 46.468 132.099,46.225 132.342,45.928 132.342 C 45.630 132.342,44.969 132.760,44.458 133.271 C 43.946 133.783,43.391 134.201,43.222 134.201 C 43.054 134.201,42.640 134.493,42.302 134.851 C 41.964 135.209,41.467 135.703,41.197 135.949 C 40.249 136.812,39.805 137.492,39.566 138.444 C 39.433 138.973,39.175 139.405,38.993 139.405 C 38.811 139.405,38.662 139.823,38.662 140.335 C 38.662 140.846,38.508 141.264,38.320 141.264 C 38.131 141.264,37.867 141.766,37.732 142.379 C 37.598 142.993,37.341 143.494,37.162 143.494 C 36.983 143.494,36.727 144.080,36.593 144.796 C 36.458 145.511,36.200 146.097,36.018 146.097 C 35.836 146.097,35.688 146.330,35.688 146.615 C 35.688 146.899,35.437 147.229,35.130 147.346 C 34.823 147.464,34.572 147.900,34.572 148.315 C 34.572 148.731,34.405 149.071,34.201 149.071 C 33.996 149.071,33.829 149.327,33.829 149.640 C 33.829 149.953,33.578 150.305,33.271 150.423 C 32.965 150.541,32.714 150.954,32.714 151.341 C 32.714 151.728,32.560 152.045,32.372 152.045 C 32.183 152.045,31.919 152.546,31.784 153.160 C 31.650 153.773,31.397 154.275,31.224 154.275 C 31.050 154.275,30.794 155.195,30.653 156.320 C 30.513 157.444,30.250 158.364,30.069 158.364 C 29.888 158.364,29.740 159.270,29.740 160.378 C 29.740 161.547,29.563 162.450,29.319 162.532 C 28.692 162.741,28.663 196.357,29.289 196.566 C 29.540 196.650,29.740 197.363,29.740 198.172 C 29.740 198.973,29.885 199.628,30.063 199.628 C 30.242 199.628,30.503 200.799,30.644 202.230 C 30.785 203.662,31.039 204.833,31.209 204.833 C 31.379 204.833,31.623 205.251,31.751 205.762 C 31.879 206.273,32.149 206.691,32.349 206.691 C 32.550 206.691,32.714 206.872,32.714 207.092 C 32.714 207.312,33.216 207.994,33.829 208.607 C 34.442 209.221,34.944 209.961,34.944 210.252 C 34.944 210.543,35.112 210.781,35.316 210.781 C 35.520 210.781,35.688 211.115,35.688 211.524 C 35.688 211.933,35.842 212.268,36.030 212.268 C 36.218 212.268,36.482 212.770,36.617 213.383 C 36.752 213.996,37.003 214.498,37.175 214.498 C 37.347 214.498,37.598 215.000,37.732 215.613 C 37.867 216.227,38.131 216.729,38.320 216.729 C 38.508 216.729,38.662 217.063,38.662 217.472 C 38.662 217.881,38.829 218.216,39.033 218.216 C 39.238 218.216,39.405 218.472,39.405 218.785 C 39.405 219.098,39.656 219.450,39.963 219.568 C 40.270 219.686,40.520 220.022,40.520 220.316 C 40.520 220.996,48.915 229.368,49.596 229.368 C 49.877 229.368,50.203 229.619,50.320 229.926 C 50.438 230.232,50.790 230.483,51.104 230.483 C 51.417 230.483,51.673 230.639,51.673 230.830 C 51.673 231.021,52.028 231.289,52.463 231.427 C 52.897 231.565,54.215 232.646,55.390 233.829 C 56.566 235.012,57.883 236.093,58.318 236.231 C 58.752 236.369,59.108 236.624,59.108 236.798 C 59.108 236.973,59.610 237.226,60.223 237.361 C 60.836 237.495,61.338 237.760,61.338 237.948 C 61.338 238.136,61.840 238.290,62.454 238.290 C 63.067 238.290,63.569 238.438,63.569 238.618 C 63.569 238.798,64.823 239.064,66.357 239.207 C 67.890 239.351,69.145 239.612,69.145 239.786 C 69.145 239.961,70.316 240.219,71.747 240.360 C 73.178 240.501,74.349 240.762,74.349 240.940 C 74.349 241.118,75.019 241.264,75.836 241.264 C 76.654 241.264,77.323 241.420,77.323 241.610 C 77.323 241.801,78.662 242.073,80.297 242.216 C 81.933 242.358,83.271 242.601,83.271 242.755 C 83.271 242.908,84.861 243.153,86.803 243.299 C 88.745 243.445,90.335 243.715,90.335 243.901 C 90.335 244.086,90.593 244.238,90.910 244.238 C 91.226 244.238,91.854 244.633,92.304 245.116 C 92.754 245.598,93.499 246.111,93.959 246.256 C 94.419 246.400,94.796 246.675,94.796 246.865 C 94.796 247.056,95.046 247.212,95.353 247.212 C 95.660 247.212,95.911 247.366,95.911 247.554 C 95.911 247.742,96.413 248.007,97.026 248.141 C 97.639 248.276,98.141 248.533,98.141 248.712 C 98.141 248.891,98.727 249.147,99.442 249.281 C 100.158 249.415,100.743 249.674,100.743 249.855 C 100.743 250.037,100.899 250.186,101.089 250.186 C 101.605 250.186,104.089 252.623,104.089 253.129 C 104.089 253.508,104.800 254.257,106.583 255.756 C 106.830 255.964,107.188 256.134,107.379 256.134 C 107.571 256.134,107.823 256.385,107.941 256.691 C 108.059 256.998,108.495 257.249,108.910 257.249 C 109.326 257.249,109.665 257.416,109.665 257.621 C 109.665 257.825,109.835 257.993,110.042 257.993 C 110.618 257.993,114.126 261.648,114.126 262.248 C 114.126 262.538,114.461 262.881,114.870 263.011 C 115.279 263.141,115.616 263.529,115.620 263.873 C 115.628 264.644,117.185 266.171,117.964 266.171 C 118.279 266.171,118.643 266.506,118.773 266.914 C 118.903 267.323,119.249 267.658,119.542 267.658 C 120.248 267.658,123.048 270.479,123.048 271.190 C 123.048 271.496,123.216 271.747,123.420 271.747 C 123.625 271.747,123.792 271.998,123.792 272.305 C 123.792 272.612,123.941 272.862,124.123 272.862 C 124.306 272.862,124.563 273.295,124.696 273.824 C 124.932 274.766,125.360 275.425,126.313 276.319 C 126.764 276.742,128.530 278.507,129.231 279.235 C 129.408 279.419,129.990 279.954,130.522 280.424 C 131.065 280.902,131.603 281.878,131.747 282.646 C 131.888 283.399,132.164 284.015,132.359 284.015 C 132.554 284.015,132.714 284.349,132.714 284.758 C 132.714 285.167,132.866 285.502,133.053 285.502 C 133.239 285.502,133.505 286.171,133.643 286.989 C 133.781 287.807,134.037 288.476,134.211 288.476 C 134.385 288.476,134.640 289.229,134.778 290.149 C 134.916 291.069,135.177 291.822,135.358 291.822 C 135.539 291.822,135.688 292.072,135.688 292.379 C 135.688 292.686,135.836 292.937,136.018 292.937 C 136.200 292.937,136.455 293.506,136.586 294.202 C 136.716 294.898,137.070 295.562,137.371 295.677 C 137.672 295.793,137.918 296.216,137.918 296.618 C 137.918 297.021,138.251 297.453,138.661 297.583 C 139.069 297.713,139.506 298.226,139.631 298.724 C 139.755 299.221,140.005 299.628,140.185 299.628 C 140.364 299.628,140.619 300.297,140.749 301.115 C 140.880 301.933,141.133 302.602,141.311 302.602 C 141.490 302.602,141.636 303.188,141.636 303.903 C 141.636 304.619,141.788 305.204,141.974 305.204 C 142.160 305.204,142.431 306.626,142.576 308.364 C 142.720 310.102,142.965 311.524,143.119 311.524 C 143.273 311.524,143.516 313.030,143.660 314.870 C 143.804 316.710,144.077 318.216,144.266 318.216 C 144.455 318.216,144.610 318.634,144.610 319.145 C 144.610 319.656,144.759 320.074,144.941 320.074 C 145.123 320.074,145.383 320.513,145.517 321.049 C 145.652 321.585,147.259 323.496,149.089 325.297 C 150.919 327.098,152.416 328.679,152.416 328.812 C 152.416 329.214,154.561 331.227,154.990 331.227 C 155.210 331.227,155.390 331.383,155.390 331.573 C 155.390 331.764,155.767 332.038,156.227 332.181 C 156.687 332.325,157.177 332.619,157.315 332.835 C 157.663 333.378,175.794 333.378,176.142 332.835 C 176.281 332.619,176.812 332.312,177.323 332.153 C 177.835 331.994,178.504 331.577,178.810 331.227 C 179.117 330.876,179.736 330.473,180.185 330.332 C 180.635 330.190,181.112 329.730,181.245 329.310 C 181.508 328.482,184.595 325.279,185.130 325.279 C 185.706 325.279,188.762 322.045,189.046 321.136 C 189.197 320.654,189.482 320.156,189.681 320.028 C 189.881 319.899,190.131 316.640,190.243 312.686 C 190.354 308.776,190.587 305.576,190.761 305.576 C 190.935 305.576,191.078 296.459,191.078 285.316 C 191.078 274.173,191.222 265.056,191.398 265.056 C 191.574 265.056,191.811 264.029,191.925 262.773 C 192.039 261.518,192.291 260.389,192.484 260.264 C 192.678 260.139,192.962 259.637,193.115 259.147 C 193.268 258.658,194.607 257.059,196.091 255.594 C 197.575 254.129,198.903 252.572,199.042 252.134 C 199.181 251.697,199.621 251.236,200.019 251.109 C 200.417 250.983,200.743 250.624,200.743 250.313 C 200.743 249.682,209.023 241.264,209.644 241.264 C 209.860 241.264,210.037 241.104,210.037 240.909 C 210.037 240.714,210.664 240.439,211.431 240.298 C 212.198 240.157,212.945 239.856,213.092 239.630 C 213.459 239.066,232.280 239.082,232.643 239.647 C 232.784 239.866,233.694 240.163,234.665 240.306 C 235.637 240.449,236.431 240.723,236.431 240.915 C 236.431 241.107,236.664 241.264,236.949 241.264 C 237.234 241.264,237.563 241.515,237.681 241.822 C 237.799 242.128,238.159 242.379,238.482 242.379 C 238.805 242.379,239.457 242.797,239.930 243.309 C 240.404 243.820,240.982 244.238,241.214 244.238 C 241.446 244.238,241.636 244.402,241.636 244.603 C 241.636 244.803,242.054 245.072,242.565 245.201 C 243.076 245.329,243.494 245.564,243.494 245.723 C 243.494 245.882,244.247 246.125,245.167 246.263 C 246.087 246.401,246.840 246.671,246.840 246.863 C 246.840 247.055,247.258 247.212,247.770 247.212 C 248.281 247.212,248.699 247.360,248.699 247.540 C 248.699 247.721,249.786 247.985,251.115 248.128 C 252.444 248.270,253.532 248.519,253.532 248.681 C 253.532 248.843,254.201 249.083,255.019 249.213 C 255.836 249.344,256.506 249.616,256.506 249.819 C 256.506 250.021,256.757 250.186,257.063 250.186 C 257.370 250.186,257.621 250.335,257.621 250.516 C 257.621 250.698,258.190 250.953,258.886 251.084 C 259.582 251.215,260.246 251.568,260.361 251.869 C 260.477 252.170,260.900 252.416,261.302 252.416 C 261.705 252.416,262.137 252.749,262.267 253.159 C 262.397 253.567,262.910 254.004,263.408 254.129 C 263.905 254.254,264.312 254.492,264.312 254.658 C 264.312 254.824,264.814 255.070,265.428 255.204 C 266.041 255.339,266.543 255.603,266.543 255.792 C 266.543 255.980,266.877 256.134,267.286 256.134 C 267.695 256.134,268.030 256.291,268.030 256.483 C 268.030 256.675,268.783 256.945,269.703 257.083 C 270.623 257.221,271.375 257.482,271.375 257.663 C 271.375 257.844,271.794 257.993,272.305 257.993 C 272.816 257.993,273.234 258.138,273.234 258.317 C 273.234 258.495,273.903 258.748,274.721 258.879 C 275.539 259.010,276.208 259.269,276.208 259.454 C 276.208 259.640,276.710 259.902,277.323 260.037 C 277.937 260.172,278.439 260.436,278.439 260.624 C 278.439 260.813,278.731 260.974,279.089 260.982 C 279.447 260.991,280.150 261.493,280.652 262.098 C 281.153 262.702,281.853 263.197,282.207 263.197 C 282.560 263.197,282.954 263.526,283.081 263.928 C 283.228 264.391,283.782 264.746,284.593 264.898 C 285.298 265.030,285.874 265.274,285.874 265.439 C 285.874 265.605,286.375 265.850,286.989 265.985 C 287.602 266.120,288.104 266.384,288.104 266.572 C 288.104 266.761,288.522 266.914,289.033 266.914 C 289.545 266.914,289.963 267.060,289.963 267.239 C 289.963 267.417,290.632 267.670,291.450 267.801 C 292.268 267.932,292.937 268.191,292.937 268.376 C 292.937 268.562,293.406 268.817,293.980 268.943 C 294.554 269.069,295.260 269.501,295.549 269.902 C 295.838 270.304,296.276 270.632,296.522 270.632 C 297.041 270.632,299.257 272.758,299.257 273.256 C 299.257 273.441,299.675 273.697,300.186 273.825 C 300.697 273.953,301.115 274.200,301.115 274.373 C 301.115 274.546,301.701 274.797,302.416 274.932 C 303.132 275.066,303.717 275.324,303.717 275.506 C 303.717 275.688,303.968 275.836,304.275 275.836 C 304.582 275.836,304.833 275.982,304.833 276.161 C 304.833 276.339,305.502 276.592,306.320 276.723 C 307.138 276.853,307.807 277.104,307.807 277.280 C 307.807 277.456,308.476 277.707,309.294 277.838 C 310.112 277.969,310.781 278.241,310.781 278.443 C 310.781 278.645,310.963 278.810,311.187 278.810 C 311.410 278.810,312.920 280.149,314.543 281.784 C 316.166 283.420,317.739 284.758,318.040 284.758 C 318.341 284.758,318.587 284.912,318.587 285.101 C 318.587 285.289,319.089 285.553,319.703 285.688 C 320.316 285.822,320.818 286.083,320.818 286.268 C 320.818 286.452,321.230 286.706,321.734 286.833 C 322.238 286.959,322.748 287.372,322.868 287.750 C 322.988 288.128,323.404 288.539,323.792 288.662 C 324.180 288.785,324.608 289.236,324.744 289.664 C 325.033 290.575,329.142 294.796,329.739 294.796 C 330.092 294.796,330.857 295.530,332.336 297.289 C 332.544 297.536,332.714 297.895,332.714 298.086 C 332.714 298.277,332.965 298.530,333.271 298.647 C 333.578 298.765,333.829 299.201,333.829 299.617 C 333.829 300.032,333.978 300.372,334.160 300.372 C 334.343 300.372,334.605 300.822,334.743 301.372 C 334.881 301.922,335.293 302.633,335.659 302.952 C 336.025 303.271,336.441 303.899,336.583 304.349 C 336.725 304.799,337.202 305.281,337.644 305.421 C 338.685 305.752,340.348 307.422,340.681 308.472 C 340.825 308.924,341.098 309.294,341.289 309.294 C 341.480 309.294,341.636 309.545,341.636 309.851 C 341.636 310.158,341.803 310.409,342.007 310.409 C 342.212 310.409,342.379 310.648,342.379 310.940 C 342.379 311.232,342.608 311.700,342.888 311.980 C 343.167 312.259,343.513 312.857,343.656 313.307 C 343.799 313.758,344.059 314.126,344.234 314.126 C 344.659 314.126,346.840 316.323,346.840 316.750 C 346.840 316.935,347.258 317.191,347.770 317.319 C 348.281 317.448,348.699 317.691,348.699 317.859 C 348.699 318.028,349.075 318.284,349.535 318.430 C 349.995 318.575,350.633 318.993,350.951 319.359 C 351.270 319.725,351.981 320.138,352.531 320.276 C 353.081 320.414,353.532 320.668,353.532 320.841 C 353.532 321.014,354.117 321.266,354.833 321.400 C 355.548 321.534,356.134 321.793,356.134 321.974 C 356.134 322.156,356.803 322.305,357.621 322.305 C 358.439 322.305,359.108 322.152,359.108 321.966 C 359.108 321.779,359.777 321.514,360.595 321.375 C 361.413 321.237,362.082 320.972,362.082 320.785 C 362.082 320.599,362.338 320.446,362.651 320.446 C 362.964 320.446,363.317 320.195,363.434 319.888 C 363.552 319.582,363.965 319.331,364.352 319.331 C 364.739 319.331,365.056 319.182,365.056 318.999 C 365.056 318.817,365.494 318.558,366.030 318.423 C 367.187 318.133,367.841 317.538,368.181 316.467 C 368.318 316.035,368.674 315.588,368.973 315.474 C 369.272 315.359,369.517 315.009,369.517 314.696 C 369.517 314.383,369.684 314.126,369.888 314.126 C 370.093 314.126,370.260 313.806,370.260 313.414 C 370.260 313.022,370.469 312.632,370.725 312.547 C 371.060 312.435,371.225 310.877,371.317 306.940 C 371.388 303.941,371.597 301.487,371.782 301.487 C 371.983 301.487,372.119 250.988,372.119 176.580 C 372.119 103.975,371.981 51.673,371.789 51.673 C 371.607 51.673,371.395 49.218,371.317 46.218 C 371.217 42.334,371.044 40.720,370.718 40.611 C 370.466 40.527,370.260 40.221,370.260 39.932 C 370.260 39.642,370.093 39.405,369.888 39.405 C 369.684 39.405,369.517 39.180,369.517 38.904 C 369.517 38.629,369.182 38.018,368.773 37.546 C 368.364 37.075,368.030 36.467,368.030 36.196 C 368.030 35.924,367.612 35.597,367.100 35.469 C 366.589 35.340,366.171 35.086,366.171 34.904 C 366.171 34.722,365.920 34.572,365.613 34.572 C 365.307 34.572,365.056 34.405,365.056 34.201 C 365.056 33.996,364.716 33.829,364.301 33.829 C 363.885 33.829,363.451 33.583,363.335 33.281 C 363.220 32.980,362.556 32.627,361.860 32.497 C 361.164 32.366,360.595 32.111,360.595 31.929 C 360.595 31.747,360.260 31.599,359.851 31.599 C 359.442 31.599,359.108 31.431,359.108 31.227 C 359.108 31.022,358.439 30.855,357.621 30.855 C 356.803 30.855,356.134 31.022,356.134 31.227 " stroke="none" fill-rule="evenodd"></path></g></svg>