<svg class="icon_dialogs_channel" version="1.1" xmlns="http://www.w3.org/2000/svg" xmlns:xlink="http://www.w3.org/1999/xlink" width="400" height="368.42105263157896" viewBox="0, 0, 400,368.42105263157896"><g id="svgg"><path id="path1" d="M370.236 11.997 C 364.687 13.491,360.313 17.010,355.591 23.779 C 354.601 25.198,352.681 27.687,351.325 29.309 C 349.968 30.931,347.931 33.702,346.799 35.467 C 344.015 39.804,334.600 49.272,330.280 52.078 C 328.580 53.183,325.697 55.297,323.874 56.776 C 321.392 58.790,319.168 60.142,315.026 62.153 C 311.860 63.690,308.310 65.740,306.728 66.945 C 302.937 69.834,301.124 70.904,297.780 72.228 C 293.606 73.881,290.023 75.756,286.460 78.150 C 282.455 80.841,281.337 81.390,275.945 83.310 C 270.654 85.193,269.866 85.579,264.657 88.843 C 261.134 91.050,259.746 91.656,253.721 93.615 C 249.380 95.027,245.726 96.474,243.871 97.514 C 238.887 100.310,235.140 102.011,232.442 102.703 C 230.014 103.325,225.100 103.379,149.309 103.611 C 92.681 103.785,67.551 103.985,64.700 104.284 C 54.991 105.302,51.123 106.587,44.168 111.102 C 42.484 112.196,40.028 113.630,38.710 114.290 C 32.843 117.227,23.088 126.731,20.114 132.406 C 19.121 134.302,17.364 137.346,16.210 139.171 C 9.910 149.135,8.410 158.077,8.993 182.199 C 9.421 199.919,10.432 205.349,14.451 211.505 C 15.483 213.085,17.239 216.037,18.353 218.065 C 22.953 226.435,32.496 236.015,41.839 241.641 C 45.865 244.065,62.140 248.970,71.336 250.530 C 79.928 251.988,86.078 254.882,91.839 260.179 C 93.435 261.646,96.291 263.992,98.187 265.392 C 100.230 266.901,102.547 269.041,103.878 270.650 C 105.114 272.143,107.455 274.571,109.082 276.046 C 110.914 277.708,112.853 279.953,114.175 281.945 C 115.350 283.714,117.445 286.571,118.831 288.295 C 122.233 292.526,123.842 295.343,126.080 300.980 C 127.118 303.598,129.019 307.745,130.303 310.197 C 133.150 315.631,133.901 317.884,135.482 325.733 C 137.084 333.680,138.126 335.905,142.562 340.837 C 149.345 348.380,152.016 349.357,164.972 349.033 C 175.455 348.770,177.904 347.744,184.787 340.731 C 191.437 333.954,191.317 334.632,191.710 301.567 C 192.112 267.708,191.544 270.333,200.737 259.831 C 211.650 247.364,214.445 245.461,222.622 244.928 C 229.529 244.478,235.115 245.743,240.737 249.031 C 245.526 251.831,247.542 252.715,252.903 254.366 C 259.468 256.387,260.807 256.974,265.372 259.834 C 269.562 262.459,271.267 263.256,278.058 265.765 C 280.456 266.651,283.289 268.059,285.247 269.340 C 290.409 272.714,291.801 273.468,296.480 275.423 C 301.346 277.456,302.424 278.073,306.848 281.364 C 308.550 282.630,312.270 284.774,315.392 286.290 C 319.631 288.347,321.696 289.611,324.240 291.703 C 326.065 293.203,328.885 295.285,330.507 296.328 C 334.683 299.014,344.230 308.716,347.088 313.180 C 348.257 315.005,350.080 317.493,351.138 318.710 C 352.197 319.926,354.335 322.691,355.889 324.855 C 367.581 341.128,385.536 340.610,390.655 323.851 C 391.581 320.820,391.914 31.914,390.998 26.606 C 389.172 16.023,379.792 9.423,370.236 11.997 " stroke="none" fill-rule="evenodd"></path></g></svg>