<svg id="svg" version="1.1" xmlns="http://www.w3.org/2000/svg" xmlns:xlink="http://www.w3.org/1999/xlink" width="400" height="400" viewBox="0, 0, 400,400"><g id="svgg"><path id="path0" d="M187.838 31.629 C 174.440 32.321,168.687 33.361,157.000 37.207 C 152.380 38.727,146.170 40.610,143.200 41.390 C 137.873 42.791,135.833 43.666,126.600 48.516 C 124.400 49.672,121.001 51.321,119.048 52.180 C 117.094 53.040,113.764 54.983,111.648 56.498 C 109.531 58.013,105.820 60.495,103.400 62.013 C 100.980 63.532,97.740 65.870,96.200 67.210 C 94.660 68.551,91.960 70.758,90.200 72.116 C 86.562 74.923,74.990 86.593,72.030 90.441 C 70.947 91.849,68.870 94.350,67.413 96.000 C 65.956 97.650,63.468 101.068,61.882 103.595 C 60.297 106.123,57.975 109.575,56.722 111.267 C 54.174 114.709,53.620 115.721,50.648 122.350 C 49.502 124.908,47.657 128.530,46.549 130.400 C 43.875 134.912,42.812 137.685,40.643 145.800 C 39.644 149.540,38.005 155.030,37.002 158.000 C 32.165 172.314,30.476 188.512,31.541 210.378 C 32.312 226.192,33.127 230.965,37.181 243.367 C 38.481 247.345,40.272 253.338,41.161 256.684 C 42.908 263.260,43.975 265.891,47.084 271.290 C 48.189 273.210,50.114 277.080,51.361 279.890 C 52.608 282.701,54.334 285.990,55.197 287.200 C 57.520 290.459,59.988 294.111,62.900 298.600 C 64.327 300.800,66.528 303.770,67.790 305.200 C 69.053 306.630,71.159 309.202,72.472 310.915 C 75.346 314.665,85.597 324.790,90.643 328.861 C 92.646 330.477,95.526 332.845,97.043 334.122 C 98.559 335.400,101.510 337.505,103.600 338.801 C 105.690 340.097,109.290 342.512,111.600 344.167 C 114.466 346.221,117.325 347.833,120.600 349.244 C 123.240 350.380,127.536 352.538,130.148 354.038 C 135.119 356.895,137.861 357.937,145.800 359.992 C 148.440 360.675,153.750 362.304,157.600 363.612 C 169.966 367.815,176.379 368.736,195.600 369.070 C 219.554 369.487,229.167 368.357,243.800 363.408 C 247.320 362.217,252.900 360.529,256.200 359.655 C 263.777 357.650,265.639 356.915,270.691 353.937 C 272.941 352.611,276.541 350.760,278.691 349.825 C 284.521 347.289,285.876 346.542,289.600 343.806 C 291.470 342.432,294.857 340.158,297.126 338.754 C 299.395 337.349,302.815 334.848,304.726 333.196 C 306.637 331.544,309.460 329.214,311.000 328.019 C 314.917 324.980,325.647 314.234,329.000 309.993 C 330.540 308.045,332.818 305.225,334.063 303.726 C 335.308 302.227,337.577 299.011,339.105 296.581 C 340.633 294.150,342.952 290.720,344.259 288.958 C 345.565 287.196,347.343 284.145,348.210 282.177 C 349.077 280.210,350.765 276.710,351.962 274.400 C 357.667 263.385,357.853 262.945,359.581 256.333 C 360.519 252.740,362.424 246.380,363.813 242.200 C 368.435 228.287,369.999 213.594,369.168 191.904 C 368.516 174.865,367.839 170.722,363.601 157.800 C 362.302 153.840,360.500 147.836,359.597 144.458 C 357.533 136.735,356.938 135.227,353.816 129.800 C 352.424 127.380,350.361 123.240,349.232 120.600 C 347.895 117.476,346.270 114.543,344.575 112.200 C 343.144 110.220,340.731 106.620,339.214 104.200 C 337.697 101.780,335.456 98.630,334.234 97.200 C 333.013 95.770,330.795 93.070,329.307 91.200 C 325.580 86.518,314.908 75.716,310.856 72.523 C 309.016 71.073,306.316 68.821,304.856 67.518 C 303.395 66.215,300.040 63.785,297.400 62.118 C 294.760 60.452,291.033 57.931,289.118 56.517 C 286.818 54.819,283.707 53.075,279.957 51.380 C 276.833 49.969,272.550 47.830,270.439 46.626 C 265.056 43.557,263.739 43.033,256.765 41.195 C 253.374 40.301,247.180 38.419,243.000 37.013 C 228.155 32.020,211.589 30.403,187.838 31.629 M209.441 93.390 C 211.670 94.052,213.550 95.679,214.657 97.905 C 215.361 99.322,215.411 101.447,215.618 138.400 C 215.857 181.358,215.722 179.237,218.391 182.036 C 221.111 184.888,219.765 184.798,260.173 184.812 C 304.903 184.828,304.139 184.744,306.670 189.899 C 309.267 195.187,308.158 210.373,304.972 213.171 C 302.052 215.734,304.834 215.625,245.562 215.507 L 191.778 215.400 189.793 214.378 C 187.041 212.962,185.736 210.758,185.186 206.600 C 184.546 201.759,184.854 101.092,185.515 99.153 C 186.599 95.975,188.772 93.889,191.736 93.183 C 194.182 92.600,207.298 92.753,209.441 93.390 " stroke="none" fill-rule="evenodd"></path></g></svg>