<svg version="1.1" xmlns="http://www.w3.org/2000/svg" xmlns:xlink="http://www.w3.org/1999/xlink" width="400" height="288.8888888888889" viewBox="0, 0, 400,288.8888888888889"><g id="svgg"><path id="path0" d="M130.347 44.969 C 121.908 45.690,120.297 46.267,108.721 52.707 C 104.432 55.093,98.634 61.465,95.595 67.132 C 90.680 76.295,90.185 77.711,89.567 84.393 C 88.665 94.150,89.855 100.953,93.634 107.632 C 94.542 109.236,95.911 111.767,96.677 113.256 C 98.493 116.784,105.163 123.636,108.705 125.611 C 121.680 132.846,123.157 133.311,133.237 133.344 C 141.735 133.372,145.702 132.544,151.012 129.631 C 152.601 128.759,155.329 127.295,157.072 126.378 C 161.258 124.177,168.158 117.536,170.064 113.873 C 170.684 112.681,172.061 110.145,173.124 108.237 C 177.049 101.189,177.600 98.860,177.601 89.306 C 177.601 79.729,177.015 77.028,173.587 70.809 C 172.579 68.981,171.184 66.380,170.487 65.029 C 168.754 61.669,161.857 54.509,158.609 52.698 C 148.200 46.893,146.661 46.211,142.430 45.526 C 139.757 45.094,132.697 44.769,130.347 44.969 M261.994 44.992 C 256.459 45.457,252.967 46.504,248.266 49.109 C 246.597 50.033,244.061 51.410,242.630 52.169 C 238.842 54.178,231.949 61.077,230.070 64.740 C 229.376 66.091,228.040 68.556,227.100 70.218 C 223.376 76.802,222.259 82.099,222.651 91.329 C 223.022 100.056,224.611 104.503,231.257 115.405 C 234.144 120.141,241.543 125.747,251.437 130.694 C 258.803 134.377,275.054 134.373,282.378 130.687 C 294.478 124.597,300.476 119.566,304.320 112.283 C 305.327 110.376,306.840 107.514,307.682 105.925 C 311.641 98.450,312.311 83.179,309.031 75.186 C 305.651 66.948,300.178 59.160,294.284 54.200 C 292.049 52.320,280.974 46.728,277.992 45.973 C 274.253 45.028,266.921 44.578,261.994 44.992 M123.844 161.022 C 103.969 162.731,93.507 164.413,86.011 167.105 C 80.994 168.907,80.675 169.002,73.646 170.767 C 68.356 172.096,67.607 172.370,62.953 174.680 C 60.200 176.046,56.519 177.707,54.772 178.371 C 52.437 179.258,50.676 180.201,48.124 181.932 C 46.215 183.227,43.627 184.863,42.373 185.568 C 40.306 186.729,38.980 187.835,33.081 193.319 C 29.454 196.690,24.285 205.298,23.233 209.718 C 22.509 212.760,22.284 237.689,22.960 240.013 C 23.546 242.029,24.782 243.454,26.531 244.129 C 28.362 244.835,238.289 244.962,240.283 244.257 C 243.900 242.980,244.513 241.253,244.711 231.792 C 245.100 213.170,244.259 207.937,239.763 201.012 C 235.966 195.164,235.529 194.592,233.526 192.846 C 232.493 191.945,230.672 190.290,229.480 189.168 C 228.288 188.046,226.207 186.495,224.855 185.721 C 223.504 184.948,221.228 183.511,219.798 182.528 C 215.996 179.915,214.915 179.335,211.404 178.021 C 209.662 177.369,206.026 175.742,203.324 174.405 C 198.708 172.122,198.052 171.887,192.509 170.519 C 189.264 169.719,185.492 168.663,184.128 168.174 C 174.197 164.610,172.701 164.293,157.803 162.599 C 140.561 160.639,132.598 160.269,123.844 161.022 M263.006 160.863 C 255.735 162.205,254.107 165.683,258.416 170.665 C 259.104 171.460,260.991 173.625,262.610 175.476 C 264.314 177.425,266.256 180.042,267.222 181.690 C 268.139 183.256,269.601 185.578,270.471 186.850 C 273.079 190.664,273.689 192.402,275.851 202.192 C 277.708 210.596,277.783 211.420,278.000 225.723 C 278.222 240.322,278.183 240.034,280.205 241.998 C 283.184 244.891,281.998 244.826,330.491 244.734 L 372.688 244.653 374.422 243.786 C 375.963 243.015,376.252 242.726,377.023 241.185 L 377.890 239.451 377.890 226.879 C 377.890 209.013,377.738 208.271,372.371 199.994 C 369.438 195.470,368.705 194.551,366.239 192.303 C 364.699 190.899,362.854 189.199,362.139 188.525 C 361.423 187.851,359.473 186.489,357.803 185.498 C 356.134 184.507,353.874 183.060,352.780 182.284 C 349.957 180.280,347.720 179.116,344.081 177.755 C 342.336 177.103,339.345 175.746,337.434 174.740 C 332.981 172.397,331.731 171.947,325.351 170.399 C 322.456 169.697,318.396 168.514,316.329 167.772 C 307.047 164.435,306.153 164.259,288.376 162.266 C 277.242 161.017,265.644 160.376,263.006 160.863 " stroke="none" fill-rule="evenodd"></path></g></svg>