<svg id="svg" version="1.1" xmlns="http://www.w3.org/2000/svg" xmlns:xlink="http://www.w3.org/1999/xlink" width="400" height="280" viewBox="0, 0, 400,280"><g id="svgg"><path id="path0" d="M304.342 48.540 C 295.128 53.137,292.082 55.249,284.874 62.036 C 282.223 64.532,279.836 66.444,276.891 68.430 C 273.918 70.435,272.115 71.882,270.728 73.375 C 266.636 77.780,265.077 79.117,261.588 81.210 C 258.817 82.871,257.674 83.762,255.882 85.657 C 250.732 91.102,249.982 91.773,247.078 93.523 C 243.205 95.857,242.094 96.806,239.456 100.032 C 237.047 102.978,235.523 104.273,232.094 106.289 C 228.903 108.165,228.000 108.908,224.090 112.880 C 221.275 115.739,219.655 117.085,215.826 119.748 C 210.233 123.638,209.068 124.563,205.087 128.269 C 201.231 131.860,201.259 131.838,196.128 135.294 C 192.274 137.891,191.432 138.605,188.948 141.391 C 185.958 144.745,184.680 145.805,180.008 148.804 C 177.607 150.345,176.642 151.187,174.714 153.425 C 170.366 158.472,169.266 159.155,162.120 161.240 C 154.807 163.374,152.650 163.227,148.845 160.335 C 146.926 158.876,138.525 150.881,134.174 146.371 C 132.248 144.376,128.006 140.090,124.748 136.848 C 121.489 133.605,117.927 129.855,116.832 128.515 C 115.736 127.174,113.297 124.719,111.412 123.060 C 109.526 121.401,107.038 118.969,105.882 117.657 C 101.342 112.499,100.219 111.691,96.191 110.686 C 87.654 108.556,85.680 109.180,81.235 115.417 C 79.135 118.363,78.127 119.368,75.210 121.419 C 71.712 123.880,70.733 124.841,68.431 128.068 C 65.811 131.741,64.915 132.710,61.517 135.548 C 56.711 139.561,56.596 141.881,60.919 147.619 C 61.789 148.775,63.401 151.200,64.500 153.010 C 67.111 157.308,68.254 158.571,72.554 161.909 C 75.784 164.416,76.411 165.055,78.964 168.451 C 81.695 172.082,83.102 173.502,86.695 176.251 C 88.800 177.862,89.928 179.064,92.157 182.073 C 94.389 185.086,95.517 186.287,97.619 187.891 C 101.812 191.089,103.188 192.375,105.134 194.913 C 107.832 198.434,109.056 199.687,112.490 202.446 C 115.362 204.754,116.320 205.778,119.111 209.527 C 120.864 211.882,122.742 213.722,126.527 216.795 C 127.994 217.985,129.857 219.852,130.860 221.136 C 135.581 227.181,138.349 229.229,149.401 234.858 C 152.452 236.412,154.664 236.445,157.563 234.982 C 173.814 226.781,177.214 224.702,182.190 219.919 C 186.501 215.774,187.395 215.056,191.317 212.592 C 195.186 210.160,195.940 209.525,198.623 206.443 C 201.739 202.863,203.199 201.658,207.076 199.467 C 209.636 198.020,211.210 196.632,213.683 193.643 C 216.216 190.580,217.339 189.635,221.250 187.272 C 224.876 185.082,225.486 184.565,228.202 181.373 C 231.010 178.072,232.159 177.103,236.258 174.577 C 238.636 173.112,240.237 171.808,243.401 168.760 C 247.662 164.655,249.502 163.171,255.703 158.838 C 258.010 157.227,260.911 154.831,263.266 152.593 C 266.193 149.812,268.108 148.289,271.453 146.081 C 274.928 143.787,276.213 142.754,277.755 141.016 C 281.949 136.288,282.585 135.719,286.169 133.486 C 290.504 130.786,291.042 130.325,293.836 126.913 C 296.155 124.083,297.665 122.788,300.420 121.270 C 304.478 119.033,305.633 118.072,309.755 113.504 C 311.524 111.544,312.842 110.423,315.217 108.860 C 319.349 106.139,320.584 105.138,324.846 101.056 C 326.947 99.043,330.292 96.265,332.919 94.351 C 341.890 87.814,342.271 87.049,340.184 79.784 C 338.103 72.541,332.824 64.452,325.316 57.003 C 322.832 54.538,319.845 51.304,318.678 49.816 C 315.808 46.155,314.989 45.560,312.636 45.429 L 310.784 45.326 304.342 48.540 " stroke="none" fill-rule="evenodd"></path></g></svg>