<svg width="400" height="400" viewBox="0, 0, 400,400"><path d="M67.738 29.572 C 58.903 33.584,28.793 65.002,28.802 70.200 C 28.807 72.838,28.343 72.354,89.086 133.141 C 153.417 197.519,149.792 193.622,148.777 197.297 C 37.796 310.190,36.333 311.725,31.733 316.845 C 26.217 322.985,27.298 324.913,47.656 345.231 C 68.555 366.090,68.780 366.189,77.674 358.455 C 187.056 248.453,193.727 243.200,195.854 243.200 C 199.270 243.200,198.367 242.345,259.934 303.889 C 323.488 367.420,319.758 363.920,323.110 363.172 C 329.546 361.736,361.379 329.962,363.216 323.139 C 364.091 319.890,366.689 322.659,303.486 259.482 C 242.340 198.361,243.200 199.269,243.200 195.854 C 351.130 85.010,353.017 83.120,354.430 81.800 C 367.214 69.862,367.125 69.543,344.843 47.292 C 326.244 28.720,322.939 26.562,318.664 30.200 C 204.920 143.185,203.049 144.825,201.642 146.094 C 197.216 150.085,194.973 149.982,189.987 145.559 C 66.701 22.696,72.087 27.597,67.738 29.572" stroke="none"></path></svg>