<svg width="400" height="488.88888888888886" viewBox="0, 0, 400,488.88888888888886"><path d="M147.336 67.210 C 140.135 67.969,136.589 70.583,134.460 76.704 C 133.856 78.440,133.783 87.188,133.600 180.600 L 133.400 282.600 132.466 284.497 C 131.952 285.541,131.052 286.728,130.466 287.136 C 127.710 289.053,129.652 288.978,77.400 289.195 C 32.608 289.382,28.092 289.459,27.000 290.062 C 23.333 292.085,22.022 296.026,23.334 301.085 C 24.422 305.278,25.977 307.106,39.400 319.975 C 57.498 337.325,87.438 365.988,100.012 378.000 C 105.884 383.610,114.989 392.340,120.245 397.400 C 131.882 408.604,161.793 437.224,176.870 451.582 C 191.487 465.502,192.900 466.400,200.200 466.400 C 208.717 466.400,206.435 468.296,260.800 416.048 C 266.190 410.868,272.490 404.830,274.800 402.629 C 277.110 400.428,281.430 396.272,284.400 393.393 C 287.370 390.514,296.010 382.236,303.600 374.999 C 311.190 367.761,320.010 359.304,323.200 356.205 C 326.390 353.106,338.450 341.564,350.000 330.556 C 361.550 319.548,371.882 309.564,372.961 308.370 C 377.820 302.992,379.038 295.521,375.652 291.864 C 373.200 289.216,377.242 289.422,323.000 289.185 C 269.169 288.949,271.908 289.082,269.413 286.587 C 266.836 284.009,267.034 292.099,266.807 180.200 C 266.606 80.955,266.579 78.146,265.834 76.200 C 263.573 70.292,260.216 67.996,252.682 67.202 C 248.353 66.746,151.673 66.753,147.336 67.210 " stroke="none" fill-rule="evenodd"></path></svg>