<svg version="1.1" width="400" height="260" viewBox="0, 0, 400,260"><g><path d="M256.631 43.804 C 254.926 44.413,254.541 44.792,178.153 121.224 C 104.737 194.682,101.355 198.014,99.220 198.992 C 96.225 200.363,92.425 197.967,86.998 191.287 C 85.952 190.000,84.546 188.420,83.874 187.776 C 83.201 187.133,81.707 185.436,80.553 184.005 C 79.399 182.575,77.677 180.585,76.726 179.584 C 75.775 178.583,74.487 177.061,73.863 176.203 C 73.239 175.345,71.894 173.765,70.873 172.692 C 69.853 171.619,68.444 170.039,67.742 169.181 C 67.041 168.322,65.466 166.508,64.243 165.150 C 63.020 163.791,61.382 161.918,60.604 160.988 C 59.827 160.059,58.186 158.186,56.959 156.827 C 55.731 155.468,53.837 153.303,52.749 152.016 C 50.244 149.053,45.641 144.545,44.551 143.988 C 41.897 142.632,37.720 144.637,31.423 150.290 C 30.089 151.487,28.159 153.212,27.133 154.125 C 21.849 158.825,22.461 162.848,29.670 170.804 C 30.806 172.057,32.407 173.891,33.228 174.881 C 34.049 175.870,35.540 177.603,36.541 178.732 C 37.542 179.862,39.157 181.802,40.129 183.045 C 41.100 184.289,42.807 186.242,43.922 187.386 C 45.036 188.531,46.543 190.228,47.270 191.157 C 47.998 192.087,49.199 193.433,49.939 194.148 C 50.679 194.863,51.994 196.326,52.861 197.399 C 53.728 198.472,55.232 200.169,56.202 201.170 C 57.172 202.172,58.939 204.128,60.128 205.519 C 64.246 210.336,68.020 214.683,70.091 216.994 C 71.235 218.271,72.856 220.149,73.693 221.166 C 74.530 222.184,76.110 224.003,77.204 225.209 C 78.298 226.414,79.928 228.345,80.825 229.500 C 87.742 238.401,97.347 241.615,104.031 237.265 C 105.286 236.449,185.013 156.879,256.194 85.403 C 276.630 64.883,276.983 64.489,276.983 62.231 C 276.983 59.302,275.019 56.305,269.456 50.750 C 262.995 44.296,259.919 42.631,256.631 43.804 M356.437 43.905 C 354.340 44.895,359.335 39.951,263.356 136.047 C 230.982 168.461,203.595 195.748,202.496 196.686 C 198.461 200.128,196.804 200.281,192.806 197.581 C 188.263 194.512,185.335 195.677,177.243 203.775 C 171.316 209.707,170.741 210.638,170.741 214.313 C 170.741 217.309,171.172 218.166,174.822 222.434 C 177.012 224.994,179.938 228.450,182.058 230.980 C 183.670 232.904,189.724 237.624,191.367 238.239 C 194.755 239.507,199.546 239.451,202.509 238.110 C 204.620 237.155,207.720 234.128,252.146 189.643 C 383.553 58.060,375.689 66.001,376.494 64.075 C 377.886 60.744,375.913 57.115,369.006 50.299 C 362.895 44.269,359.415 42.498,356.437 43.905 " stroke="none" fill-rule="evenodd"></path></g></svg>