<svg width="400" height="346.6666666666667" viewBox="0, 0, 400,346.6666666666667"><g><path d="M341.370 58.814 C 339.739 59.608,324.800 74.418,238.335 160.961 C 140.478 258.906,134.303 264.964,131.544 265.730 C 127.638 266.815,122.125 263.026,115.690 254.832 C 114.484 253.295,112.533 251.101,111.355 249.957 C 110.177 248.812,108.307 246.694,107.199 245.250 C 106.090 243.807,104.028 241.387,102.616 239.873 C 101.204 238.359,99.284 236.115,98.349 234.886 C 97.413 233.656,95.470 231.392,94.031 229.854 C 92.591 228.316,90.713 226.200,89.857 225.151 C 89.000 224.102,86.893 221.677,85.173 219.763 C 82.109 216.351,77.263 210.770,71.540 204.063 C 67.584 199.427,61.893 193.707,60.036 192.502 C 56.365 190.118,50.934 192.402,42.640 199.816 C 40.463 201.762,37.587 204.333,36.250 205.529 C 28.764 212.221,30.030 218.181,41.448 230.009 C 42.830 231.440,44.817 233.704,45.864 235.040 C 46.911 236.376,48.784 238.576,50.026 239.930 C 51.268 241.283,52.958 243.312,53.781 244.439 C 54.605 245.566,56.629 247.892,58.278 249.610 C 59.928 251.327,62.075 253.747,63.048 254.987 C 64.022 256.227,65.628 258.023,66.616 258.977 C 67.605 259.931,69.630 262.194,71.117 264.007 C 72.604 265.820,74.477 267.927,75.279 268.690 C 76.082 269.454,77.692 271.249,78.858 272.680 C 80.023 274.111,82.322 276.765,83.965 278.578 C 85.608 280.390,88.049 283.200,89.389 284.822 C 90.728 286.444,92.825 288.864,94.049 290.199 C 95.272 291.535,97.431 294.033,98.847 295.750 C 100.263 297.467,102.381 299.887,103.553 301.127 C 104.725 302.368,106.610 304.620,107.742 306.132 C 115.861 316.978,127.914 321.670,136.880 317.474 C 140.121 315.958,123.852 332.105,308.933 146.710 C 374.430 81.102,369.327 86.564,369.059 82.361 C 368.789 78.123,367.219 75.774,359.428 67.951 C 350.127 58.612,346.037 56.543,341.370 58.814 " stroke="none" fill-rule="evenodd"></path></g></svg>