<svg id="svg" version="1.1" xmlns="http://www.w3.org/2000/svg" xmlns:xlink="http://www.w3.org/1999/xlink" width="400" height="400" viewBox="0, 0, 400,400"><g id="svgg"><path id="path0" d="M151.000 180.386 C 150.560 180.571,147.815 183.140,144.900 186.094 C 138.010 193.078,138.046 192.639,143.900 198.335 C 146.265 200.636,157.560 211.724,169.000 222.975 C 199.940 253.406,197.454 251.162,200.246 251.186 C 202.482 251.205,201.600 251.989,223.389 230.619 C 264.830 189.975,261.163 193.807,260.439 191.902 C 259.872 190.411,250.807 181.168,249.285 180.529 C 247.515 179.786,248.832 178.654,230.523 196.649 C 198.926 227.703,201.594 225.220,199.941 225.103 C 198.534 225.004,187.378 214.374,157.862 185.009 C 155.128 182.290,152.449 179.988,152.062 180.025 C 151.918 180.039,151.440 180.202,151.000 180.386 " stroke="none" fill-rule="evenodd"></path></g></svg>