<svg class="icon_info_close" version="1.1" xmlns="http://www.w3.org/2000/svg" xmlns:xlink="http://www.w3.org/1999/xlink" width="400" height="400" viewBox="0, 0, 400,400"><g id="svgg"><path id="path0" d="M129.800 115.357 C 126.965 116.600,116.164 127.160,115.516 129.324 C 114.721 131.976,113.177 130.308,160.376 177.800 C 180.785 198.336,180.005 197.454,179.986 199.954 C 179.963 202.986,181.882 200.897,145.022 238.000 C 112.378 270.860,114.409 268.516,115.832 271.671 C 117.345 275.025,128.995 285.200,131.322 285.200 C 133.231 285.200,133.777 284.681,166.400 251.881 L 197.400 220.713 199.293 220.505 C 202.455 220.158,202.480 220.181,234.087 252.107 C 250.869 269.058,265.302 283.439,266.160 284.064 C 269.261 286.323,270.654 285.656,278.584 278.114 C 284.226 272.748,284.794 271.975,284.797 269.653 L 284.800 267.905 274.500 257.453 C 259.137 241.864,223.960 206.429,222.706 205.281 C 220.905 203.631,219.881 201.092,220.214 199.101 C 220.529 197.211,219.139 198.661,262.725 154.759 C 287.031 130.277,286.209 131.315,284.058 127.789 C 282.515 125.258,271.703 115.641,269.710 115.027 C 267.674 114.399,259.780 121.974,212.140 170.265 C 204.192 178.322,202.799 179.567,201.461 179.817 C 198.026 180.457,199.157 181.472,166.154 148.136 C 138.503 120.206,132.830 114.763,131.422 114.816 C 131.190 114.824,130.460 115.068,129.800 115.357 " stroke="none" fill-rule="evenodd"></path></g></svg>