<svg id="svg" version="1.1" xmlns="http://www.w3.org/2000/svg" xmlns:xlink="http://www.w3.org/1999/xlink" width="400" height="400" viewBox="0, 0, 400,400"><g id="svgg"><path id="path0" d="M197.800 102.858 C 196.555 103.534,103.622 196.463,102.974 197.680 C 102.658 198.274,102.400 199.532,102.400 200.476 L 102.400 202.192 150.098 249.896 C 200.561 300.366,198.600 298.538,201.497 297.812 C 202.825 297.479,213.179 287.406,214.850 284.822 C 217.082 281.371,219.476 284.172,183.958 248.671 C 150.914 215.642,150.620 215.335,151.022 214.287 C 151.500 213.041,153.691 212.997,225.335 212.800 L 298.069 212.600 299.035 211.478 L 300.000 210.355 300.000 200.210 C 300.000 194.631,299.888 189.774,299.752 189.418 C 299.026 187.526,302.033 187.600,225.920 187.598 C 153.079 187.595,152.043 187.574,151.239 186.072 C 150.630 184.935,150.467 185.107,183.862 151.690 C 218.593 116.935,216.891 118.854,215.432 116.080 C 215.119 115.486,212.002 112.165,208.504 108.700 C 201.662 101.923,200.597 101.342,197.800 102.858 " stroke="none" fill-rule="evenodd"></path></g></svg>