<svg id="svg" version="1.1" xmlns="http://www.w3.org/2000/svg" xmlns:xlink="http://www.w3.org/1999/xlink" width="400" height="400" viewBox="0, 0, 400,400"><g id="svgg"><path id="path0" d="M289.400 81.769 C 282.159 83.431,280.329 84.461,241.000 109.006 C 222.740 120.402,204.211 131.962,199.824 134.696 C 183.357 144.958,188.501 144.088,136.516 145.399 C 90.070 146.570,86.319 146.828,78.972 149.351 C 59.202 156.139,45.771 173.168,43.580 194.220 C 42.898 200.778,43.305 228.738,44.146 233.029 C 47.052 247.878,54.965 259.318,68.626 268.424 C 76.842 273.900,77.089 274.282,84.599 293.200 C 105.252 345.224,105.117 344.938,111.543 350.243 C 119.081 356.466,121.660 357.000,144.200 357.000 C 167.416 357.000,168.884 356.638,176.632 349.000 C 185.902 339.862,186.852 333.920,183.217 307.831 C 181.019 292.065,180.240 284.463,180.584 282.166 C 181.294 277.436,186.686 275.350,194.445 276.804 C 198.349 277.535,196.249 276.374,258.800 312.410 C 283.648 326.726,286.165 327.748,296.600 327.764 C 314.170 327.790,327.935 317.259,332.941 299.960 C 334.405 294.900,337.438 275.449,340.213 253.316 C 340.782 248.773,342.171 222.621,342.640 207.600 C 342.807 202.275,342.667 194.141,342.243 184.400 C 341.224 160.999,340.846 155.610,339.594 146.600 C 338.953 141.980,338.143 135.950,337.795 133.200 C 334.506 107.176,331.819 99.569,322.948 91.179 C 314.482 83.171,300.447 79.234,289.400 81.769 M301.091 111.265 C 305.743 113.459,307.205 117.696,309.589 135.900 C 310.259 141.016,311.155 147.586,311.582 150.500 C 313.731 165.194,314.767 196.366,313.850 218.712 C 312.676 247.277,312.845 245.429,308.778 274.424 C 305.933 294.714,303.795 298.800,296.028 298.800 C 291.931 298.800,291.785 298.726,262.800 282.006 C 255.650 277.882,241.430 269.689,231.200 263.800 C 205.791 249.173,206.310 249.586,205.203 243.159 C 204.335 238.121,204.851 169.816,205.776 167.403 C 206.964 164.302,209.745 161.935,219.000 156.146 C 264.235 127.852,287.833 113.225,290.044 112.110 C 294.470 109.879,297.636 109.637,301.091 111.265 M171.831 173.959 C 172.729 174.366,173.843 175.183,174.309 175.775 C 176.216 178.200,176.200 177.894,176.200 211.000 L 176.200 242.200 175.200 243.978 C 174.480 245.259,173.643 246.043,172.210 246.778 L 170.221 247.800 132.610 247.800 C 97.252 247.800,94.808 247.755,91.800 247.051 C 81.080 244.540,74.018 237.185,72.210 226.648 C 71.494 222.476,71.356 201.620,72.015 197.000 C 73.533 186.342,80.311 178.540,90.280 175.975 C 97.712 174.062,168.221 172.319,171.831 173.959 M130.800 280.193 C 150.885 281.360,151.201 281.565,152.808 294.485 C 153.254 298.068,154.177 304.870,154.859 309.600 C 157.512 327.990,156.881 329.004,142.800 328.994 C 128.890 328.985,129.688 329.815,119.891 305.200 C 111.271 283.546,111.081 281.332,117.724 280.019 C 120.101 279.549,119.607 279.543,130.800 280.193 " stroke="none" fill-rule="evenodd"></path></g></svg>