<svg id="svg" version="1.1" xmlns="http://www.w3.org/2000/svg" xmlns:xlink="http://www.w3.org/1999/xlink" width="400" height="400" viewBox="0, 0, 400,400"><g id="svgg"><path id="path0" d="M170.000 73.397 C 153.382 76.731,136.002 83.689,124.600 91.572 C 122.400 93.093,118.530 95.739,116.000 97.451 C 105.785 104.365,95.579 114.004,90.425 121.603 C 89.009 123.691,86.447 127.311,84.732 129.646 C 78.232 138.496,71.998 150.154,66.878 163.031 C 59.781 180.884,56.155 209.043,58.552 227.695 C 63.130 263.311,76.208 290.612,100.190 314.619 C 123.643 338.097,148.507 350.262,184.511 355.875 C 190.230 356.767,212.127 356.900,217.800 356.078 C 224.085 355.167,241.270 351.549,244.800 350.393 C 258.808 345.806,262.131 344.381,271.600 338.899 C 297.392 323.968,306.464 315.350,323.917 289.200 C 334.639 273.136,343.579 245.434,341.443 234.894 C 337.392 214.900,326.647 205.087,308.800 205.079 C 299.407 205.075,294.856 207.053,282.865 216.349 C 268.051 227.833,257.832 231.717,242.400 231.726 C 209.387 231.745,183.200 205.627,183.200 172.681 C 183.200 155.500,187.506 144.846,199.376 132.655 C 211.752 119.946,213.507 99.130,203.342 85.608 C 196.636 76.687,181.405 71.108,170.000 73.397 M177.641 102.508 C 181.869 105.332,181.221 108.750,174.971 116.600 C 148.831 149.434,147.814 193.011,172.437 225.220 C 202.968 265.159,258.611 271.836,297.800 240.263 C 310.826 229.768,316.671 234.682,311.049 251.400 C 299.712 285.110,269.489 314.016,235.200 323.943 C 210.592 331.068,181.910 329.800,158.911 320.572 C 77.486 287.898,60.513 180.778,127.800 124.217 C 145.099 109.676,171.292 98.267,177.641 102.508 " stroke="none" fill-rule="evenodd"></path></g></svg>