<svg id="svg" version="1.1" xmlns="http://www.w3.org/2000/svg" xmlns:xlink="http://www.w3.org/1999/xlink" width="400" height="400" viewBox="0, 0, 400,400"><g id="svgg"><path id="path0" d="M131.400 82.029 C 73.740 89.849,51.471 160.745,95.196 197.286 C 140.068 234.785,208.976 204.819,208.992 147.800 C 209.004 107.774,172.117 76.507,131.400 82.029 M150.882 111.139 C 186.755 120.668,191.536 165.787,158.345 181.578 C 124.709 197.582,88.293 164.039,104.303 131.800 C 112.416 115.463,132.920 106.368,150.882 111.139 M278.600 110.280 C 243.624 113.457,220.733 148.984,232.279 182.170 C 249.383 231.332,318.995 230.390,335.208 180.776 C 347.079 144.448,316.852 106.805,278.600 110.280 M290.512 139.761 C 313.152 146.957,315.518 177.426,294.226 187.588 C 272.572 197.922,249.752 174.124,260.842 152.772 C 266.414 142.042,279.556 136.279,290.512 139.761 M103.600 238.825 C 66.149 242.158,36.386 270.359,34.181 304.600 C 33.448 315.975,39.085 323.188,48.339 322.719 C 56.433 322.308,60.157 317.906,62.321 306.187 C 66.127 285.580,78.868 272.511,99.627 267.923 L 103.800 267.000 140.600 267.000 L 177.400 267.000 181.573 267.923 C 202.453 272.538,215.274 285.729,218.997 306.426 C 221.039 317.776,224.901 322.315,232.861 322.719 C 245.760 323.372,250.491 310.515,244.556 290.938 C 236.284 263.652,212.476 243.794,182.690 239.336 C 177.641 238.581,111.173 238.151,103.600 238.825 M270.155 243.778 C 258.368 246.426,254.366 259.128,262.847 266.979 C 267.416 271.209,270.007 271.591,294.200 271.600 C 316.653 271.608,319.667 271.933,328.288 275.269 C 341.973 280.565,349.665 290.601,352.393 306.719 C 354.230 317.575,358.855 322.799,366.629 322.800 C 379.593 322.801,383.902 309.535,377.399 289.641 C 369.297 264.852,348.161 247.972,320.200 243.960 C 315.119 243.230,273.269 243.079,270.155 243.778 " stroke="none" fill-rule="evenodd"></path></g></svg>