<svg id="svg" version="1.1" xmlns="http://www.w3.org/2000/svg" xmlns:xlink="http://www.w3.org/1999/xlink" width="400" height="362.5" viewBox="0, 0, 400,362.5"><g id="svgg"><path id="path0" d="M148.082 13.059 C 143.086 13.596,143.482 13.245,124.269 34.155 C 112.437 47.033,110.586 48.752,107.525 49.707 C 106.439 50.046,98.271 50.220,75.068 50.396 C 44.503 50.628,44.021 50.643,41.237 51.435 C 26.766 55.552,17.072 65.633,13.536 80.243 C 12.778 83.370,12.300 305.646,13.031 314.959 C 14.434 332.854,27.576 347.175,44.791 349.570 C 48.498 350.085,351.913 350.098,355.576 349.583 C 368.393 347.780,379.931 338.532,384.754 326.196 C 387.528 319.100,387.326 329.567,387.221 198.730 L 387.126 81.414 386.319 78.657 C 382.426 65.355,373.713 56.207,361.015 52.089 C 356.053 50.480,354.714 50.414,326.564 50.398 C 296.967 50.380,293.606 50.232,290.716 48.818 C 288.348 47.660,286.259 45.514,266.820 24.268 C 259.008 15.729,257.616 14.491,254.704 13.488 C 252.794 12.830,153.910 12.432,148.082 13.059 M210.517 107.020 C 269.753 113.172,308.606 175.179,288.450 231.396 C 263.335 301.444,170.124 316.066,125.641 256.936 C 76.092 191.072,128.501 98.503,210.517 107.020 M190.983 141.096 C 154.817 146.069,131.580 184.657,143.659 219.685 C 156.829 257.880,204.113 272.264,236.147 247.821 C 274.004 218.936,264.343 158.783,219.406 143.592 C 212.065 141.110,199.137 139.975,190.983 141.096 " stroke="none" fill-rule="evenodd"></path></g></svg>