<svg version="1.1" xmlns="http://www.w3.org/2000/svg" xmlns:xlink="http://www.w3.org/1999/xlink" width="400" height="400" viewBox="0, 0, 400,400"><g id="svgg"><path id="path0" d="M172.321 118.540 C 171.288 118.829,169.668 119.566,168.721 120.179 C 166.400 121.679,112.775 175.347,111.437 177.509 C 108.043 182.991,108.502 192.763,112.388 197.774 C 116.545 203.133,167.756 253.536,170.200 254.673 C 177.988 258.296,186.162 253.249,186.190 244.800 C 186.207 239.708,186.366 239.910,167.134 220.568 C 149.130 202.461,148.985 202.283,151.083 200.909 C 152.726 199.833,236.796 199.811,240.678 200.886 C 250.033 203.476,256.170 209.224,259.701 218.703 C 260.526 220.918,260.566 221.817,260.808 243.800 C 261.087 268.976,261.067 268.785,263.700 272.488 C 271.052 282.828,285.413 278.098,286.888 264.851 C 287.508 259.278,287.018 218.094,286.287 214.400 C 282.514 195.315,269.662 181.016,251.800 176.029 C 244.839 174.086,242.883 174.014,196.287 174.007 C 149.789 174.000,150.000 174.008,150.000 172.109 C 150.000 170.810,151.071 169.649,168.004 152.600 C 186.616 133.859,186.214 134.381,186.184 129.000 C 186.144 121.861,179.197 116.619,172.321 118.540 " stroke="none" fill-rule="evenodd"></path></g></svg>