<svg id="svg" version="1.1" xmlns="http://www.w3.org/2000/svg" xmlns:xlink="http://www.w3.org/1999/xlink" width="400" height="400" viewBox="0, 0, 400,400"><g id="svgg"><path id="path0" d="M112.163 71.983 C 91.239 74.373,81.775 82.732,78.032 102.130 C 66.886 159.886,106.959 239.734,173.800 292.953 C 201.008 314.616,244.337 336.604,271.600 342.584 C 290.709 346.775,323.485 339.418,331.635 329.108 C 338.631 320.258,343.993 296.723,341.795 284.515 C 336.455 254.857,326.568 244.959,294.200 236.867 C 277.510 232.695,268.634 232.651,255.200 236.676 C 242.406 240.509,227.104 255.349,220.448 270.379 C 215.482 281.594,212.083 281.334,195.400 268.469 C 176.379 253.801,162.925 239.986,146.895 218.663 C 132.297 199.245,131.742 195.023,143.127 190.012 C 162.262 181.590,176.919 159.967,180.367 135.071 C 183.511 112.367,168.082 80.228,151.390 74.711 C 143.399 72.071,123.508 70.687,112.163 71.983 M139.400 101.030 C 147.529 103.919,153.856 120.488,152.036 134.117 C 150.142 148.290,138.530 163.701,129.005 164.684 C 121.160 165.494,108.729 149.403,106.014 134.925 C 102.978 118.736,107.282 106.564,117.734 101.779 C 121.804 99.915,134.983 99.460,139.400 101.030 M284.703 263.029 C 297.514 265.656,307.995 271.269,310.941 277.083 C 315.740 286.553,314.845 303.310,309.197 309.743 C 302.598 317.258,274.476 315.661,260.548 306.980 C 243.269 296.211,240.617 289.039,249.227 276.360 C 257.746 263.815,268.615 259.731,284.703 263.029 " stroke="none" fill-rule="evenodd"></path></g></svg>