<svg id="svg" version="1.1" xmlns="http://www.w3.org/2000/svg" xmlns:xlink="http://www.w3.org/1999/xlink" width="400" height="400" viewBox="0, 0, 400,400"><g id="svgg"><path id="path0" d="M192.000 62.843 C 147.791 67.836,118.945 112.707,132.628 155.200 C 144.775 192.925,184.810 213.215,222.553 200.775 C 259.712 188.528,279.736 148.773,267.578 111.383 C 257.197 79.456,225.447 59.065,192.000 62.843 M210.154 92.178 C 233.626 98.132,247.997 122.965,240.928 145.352 C 228.204 185.643,172.962 186.194,159.641 146.162 C 149.387 115.349,178.566 84.165,210.154 92.178 M157.600 234.025 C 125.626 236.850,99.557 254.143,85.611 281.778 C 79.060 294.759,75.239 313.438,77.420 321.812 C 80.240 332.639,93.007 336.174,100.385 328.170 C 103.384 324.916,104.073 322.779,105.788 311.400 C 109.386 287.525,128.367 267.983,152.384 263.427 C 161.313 261.733,236.005 261.360,245.600 262.961 C 272.452 267.442,290.923 286.632,294.960 314.243 C 296.983 328.073,302.559 334.039,311.891 332.361 C 322.649 330.426,326.047 318.900,321.357 300.258 C 312.309 264.300,284.149 239.402,246.800 234.336 C 242.701 233.781,163.498 233.504,157.600 234.025 " stroke="none" fill-rule="evenodd"></path></g></svg>