<svg id="svg" version="1.1" xmlns="http://www.w3.org/2000/svg" xmlns:xlink="http://www.w3.org/1999/xlink" width="400" height="400" viewBox="0, 0, 400,400"><g id="svgg"><path id="path0" d="M194.875 67.260 C 176.253 69.928,161.963 92.757,168.367 109.609 C 180.147 140.612,219.853 140.612,231.633 109.609 C 239.672 88.453,218.357 63.897,194.875 67.260 M194.815 167.268 C 181.722 169.137,168.805 182.638,167.139 196.195 C 164.645 216.490,183.261 235.171,203.666 232.851 C 223.377 230.609,238.295 207.924,231.617 190.348 C 225.544 174.364,210.627 165.010,194.815 167.268 M194.875 267.260 C 176.233 269.931,161.960 292.748,168.373 309.627 C 179.083 337.812,214.629 341.208,228.803 315.400 C 241.766 291.798,221.758 263.409,194.875 267.260 " stroke="none" fill-rule="evenodd"></path></g></svg>