<svg id="svg" version="1.1" xmlns="http://www.w3.org/2000/svg" xmlns:xlink="http://www.w3.org/1999/xlink" width="400" height="400" viewBox="0, 0, 400,400"><g id="svgg"><path id="path0" d="M236.800 23.060 C 179.058 28.558,132.275 67.602,119.382 121.055 C 113.214 146.622,113.074 160.684,118.745 184.645 C 122.593 200.899,128.310 213.715,138.443 228.800 C 146.053 240.128,144.444 244.121,131.600 245.781 C 122.610 246.943,127.953 242.275,75.362 294.917 C 26.527 343.800,27.794 342.428,27.814 346.416 C 27.831 349.787,28.977 351.307,39.274 361.614 C 50.821 373.172,52.741 374.256,57.546 371.929 C 59.381 371.041,142.934 288.240,149.429 280.873 C 152.790 277.062,153.825 274.780,154.440 269.834 C 155.631 260.260,157.328 257.605,162.259 257.601 C 164.737 257.600,166.686 258.556,173.000 262.870 C 189.079 273.857,206.687 280.616,229.800 284.672 C 240.100 286.480,258.926 285.622,271.800 282.760 C 286.454 279.501,292.258 277.556,303.863 272.013 C 388.610 231.538,403.208 114.206,331.019 53.751 C 305.028 31.984,268.396 20.052,236.800 23.060 M252.200 63.228 C 317.247 68.922,355.908 134.449,328.648 192.800 C 305.112 243.177,242.034 260.679,195.912 229.630 C 141.707 193.140,141.857 114.346,196.200 78.177 C 212.347 67.431,234.042 61.639,252.200 63.228 " stroke="none" fill-rule="evenodd"></path></g></svg>