<svg width="400" height="400" viewBox="0, 0, 400,400"><path d="M192.600 43.480 C 181.602 43.965,170.158 45.517,163.600 47.414 C 161.070 48.145,157.110 49.220,154.800 49.802 C 142.609 52.873,120.795 63.490,110.600 71.313 C 93.492 84.441,84.424 93.509,71.312 110.600 C 63.487 120.800,52.873 142.610,49.802 154.800 C 49.220 157.110,48.145 161.070,47.414 163.600 C 42.120 181.905,42.116 218.394,47.405 236.800 C 48.132 239.330,49.296 243.560,49.992 246.200 C 50.688 248.840,52.120 253.070,53.175 255.600 C 54.230 258.130,55.463 261.204,55.915 262.432 C 58.166 268.539,66.700 283.675,71.346 289.800 C 83.860 306.297,94.207 316.595,111.409 329.675 C 120.010 336.215,143.904 347.944,152.800 349.992 C 154.010 350.271,157.700 351.264,161.000 352.199 C 170.477 354.884,173.202 355.349,185.600 356.397 C 195.541 357.237,220.396 356.280,226.986 354.803 C 236.641 352.639,240.615 341.908,234.154 335.445 C 230.216 331.506,226.545 331.096,208.317 332.563 C 189.556 334.074,174.955 331.846,153.559 324.207 C 142.477 320.251,126.789 311.570,124.787 308.285 C 122.181 304.012,127.195 293.004,135.157 285.513 C 149.434 272.082,159.194 269.621,199.800 269.211 C 227.987 268.926,227.918 268.933,231.686 265.617 C 238.042 260.022,235.712 248.989,227.577 246.158 C 224.321 245.024,169.314 244.991,162.940 246.118 C 139.075 250.339,121.473 261.060,108.958 279.000 C 103.324 287.076,102.142 287.551,97.743 283.511 C 91.560 277.831,80.688 259.712,76.795 248.600 C 75.871 245.960,74.859 243.183,74.548 242.429 C 73.840 240.716,69.855 225.882,69.042 221.932 C 66.681 210.472,66.737 189.224,69.159 178.000 C 73.229 159.135,78.389 145.789,87.775 129.857 C 96.444 115.140,115.140 96.444,129.857 87.775 C 145.786 78.391,159.175 73.214,177.990 69.162 C 205.856 63.162,246.022 71.516,272.045 88.726 C 288.198 99.407,303.890 115.349,312.337 129.659 C 320.238 143.046,321.207 145.000,326.085 157.398 C 328.535 163.625,332.234 182.108,332.810 191.000 C 333.351 199.337,333.819 202.423,334.890 204.701 C 339.126 213.713,352.476 213.316,355.819 204.078 C 357.722 198.821,356.443 177.208,353.578 166.200 C 350.472 154.263,348.789 148.653,347.219 145.000 C 346.273 142.800,345.163 140.028,344.751 138.841 C 343.459 135.114,333.599 117.537,328.780 110.371 C 326.404 106.836,316.084 94.630,310.401 88.632 C 307.699 85.780,298.001 77.765,288.735 70.726 C 278.282 62.785,258.652 53.346,244.707 49.555 C 231.289 45.908,229.588 45.534,223.000 44.784 C 210.980 43.417,202.395 43.048,192.600 43.480 M200.000 104.655 C 168.643 107.376,146.055 132.627,147.314 163.555 C 148.975 204.389,191.980 230.078,228.825 212.245 C 259.874 197.218,270.449 158.140,251.191 129.600 C 239.788 112.701,219.760 102.941,200.000 104.655 M211.600 129.419 C 243.269 138.941,244.853 179.214,214.069 192.171 C 196.013 199.771,172.960 184.090,171.727 163.370 C 170.442 141.778,191.910 123.499,211.600 129.419 M312.474 234.834 C 308.310 235.638,304.913 239.403,303.302 245.000 C 302.882 246.462,302.656 250.606,302.463 260.400 C 302.072 280.304,303.138 279.282,282.411 279.636 C 267.109 279.897,266.884 279.932,262.873 282.678 C 254.216 288.605,256.639 299.705,267.377 303.311 C 268.049 303.537,274.720 303.840,282.200 303.985 C 303.039 304.390,302.257 303.629,302.546 323.800 C 302.651 331.176,302.916 337.327,303.170 338.317 C 305.885 348.877,316.159 352.558,322.803 345.350 C 326.590 341.242,327.191 338.019,327.199 321.800 C 327.208 303.703,326.468 304.369,347.000 303.985 C 361.099 303.722,362.019 303.623,365.129 302.036 C 374.404 297.305,374.205 286.069,364.765 281.467 C 361.417 279.834,359.159 279.600,346.765 279.600 C 326.972 279.600,327.208 279.814,327.199 261.800 C 327.193 249.325,326.825 245.184,325.463 242.266 C 322.908 236.788,317.720 233.820,312.474 234.834 " stroke="none" fill-rule="evenodd"></path></svg>