<svg width="400" height="400" viewBox="0, 0, 400,400"><path d="M126.024 54.826 C 115.565 55.647,111.880 57.444,98.358 68.316 C 86.519 77.836,73.923 91.618,68.046 101.483 C 64.570 107.318,62.270 111.830,61.244 114.827 C 60.610 116.682,59.332 119.766,58.404 121.681 C 55.283 128.127,55.485 122.066,55.308 214.600 C 55.117 315.400,54.796 308.513,60.179 319.400 C 67.730 334.672,80.942 343.574,97.869 344.794 C 105.391 345.337,295.031 345.335,302.555 344.792 C 319.498 343.571,333.070 334.311,340.470 318.923 C 345.446 308.577,345.193 313.937,345.193 219.000 C 345.193 126.617,345.273 128.814,341.649 121.400 C 340.573 119.200,339.471 116.680,339.198 115.800 C 334.906 101.922,316.281 78.248,299.972 65.940 C 289.922 58.356,286.771 56.668,280.092 55.295 C 276.636 54.584,134.612 54.152,126.024 54.826 M275.829 79.434 C 278.570 80.562,282.922 83.421,288.099 87.496 C 296.948 94.462,298.550 97.996,293.705 99.865 C 290.733 101.012,110.467 101.012,107.495 99.865 C 102.703 98.016,104.084 94.970,112.930 87.876 C 121.787 80.773,124.241 79.331,128.400 78.785 C 129.610 78.626,162.820 78.519,202.200 78.548 L 273.800 78.600 275.829 79.434 M305.695 125.607 C 312.636 126.402,316.291 128.803,319.123 134.427 C 321.263 138.678,321.225 137.012,321.104 221.413 L 320.991 300.200 320.087 303.126 C 317.112 312.753,312.760 317.109,303.149 320.082 L 300.200 320.995 202.800 321.117 C 99.815 321.247,100.460 321.257,95.120 319.359 C 87.601 316.687,84.072 313.299,81.357 306.148 C 79.146 300.323,79.229 303.658,79.217 219.600 C 79.206 141.012,79.253 138.275,80.651 135.447 C 83.825 129.030,87.412 126.422,94.144 125.637 C 98.372 125.144,301.402 125.115,305.695 125.607 M198.132 153.167 C 194.803 154.005,191.160 156.604,190.023 158.953 C 188.350 162.409,188.313 163.246,188.052 203.671 C 187.801 242.536,187.796 242.748,186.960 243.871 C 184.695 246.918,182.771 245.605,167.781 230.778 C 154.663 217.804,153.573 216.942,149.121 216.023 C 141.897 214.530,135.198 219.818,135.213 227.000 C 135.224 232.501,136.339 233.827,164.864 262.242 C 193.507 290.775,193.051 290.429,201.400 289.894 C 208.296 289.451,207.834 289.825,235.536 262.238 C 264.818 233.077,265.459 232.303,265.102 226.542 C 264.579 218.079,255.866 213.367,247.757 217.161 C 245.412 218.259,243.741 219.759,232.854 230.547 C 216.840 246.414,214.984 247.572,212.916 242.986 C 212.250 241.508,212.186 238.706,211.982 202.000 C 211.753 160.865,211.791 161.672,209.960 158.414 C 208.037 154.992,201.826 152.237,198.132 153.167 " stroke="none" fill-rule="evenodd"></path></svg>