<svg width="400" height="400" viewBox="0, 0, 400,400"><path d="M71.800 62.752 C 64.968 64.539,60.816 72.212,63.336 78.392 C 64.755 81.870,67.270 84.535,102.804 120.200 C 137.427 154.952,140.027 157.703,140.803 160.412 C 142.010 164.620,140.669 164.910,118.600 165.217 C 99.624 165.481,98.848 165.549,95.511 167.247 C 85.712 172.234,88.080 186.101,99.200 188.855 C 102.903 189.772,171.154 189.644,175.144 188.712 C 181.827 187.152,187.101 181.944,188.680 175.345 C 189.257 172.932,189.355 168.233,189.493 136.453 C 189.694 90.150,189.598 88.979,185.303 85.198 C 178.774 79.451,169.004 81.855,166.347 89.862 C 165.460 92.537,165.433 93.111,165.201 114.800 C 165.071 127.010,164.821 137.360,164.646 137.800 C 163.190 141.459,161.556 141.873,157.686 139.560 C 156.869 139.071,140.090 122.621,120.400 103.004 C 100.710 83.387,83.862 66.772,82.959 66.081 C 79.253 63.246,74.889 61.945,71.800 62.752 M226.748 211.242 C 217.154 212.169,212.168 217.383,211.209 227.491 C 210.689 232.977,210.666 301.784,211.183 306.280 C 212.847 320.751,230.330 323.134,234.347 309.437 C 234.832 307.785,234.988 303.207,235.172 285.200 C 235.425 260.605,235.455 260.337,238.064 259.438 C 240.912 258.456,241.111 258.636,279.800 297.189 C 317.493 334.748,317.726 334.969,321.465 336.681 C 330.973 341.034,341.018 330.938,336.657 321.412 C 334.972 317.731,334.657 317.399,297.188 279.800 C 249.112 231.558,250.527 235.557,281.400 235.168 C 297.430 234.966,300.083 234.845,302.000 234.233 C 315.826 229.814,313.306 212.904,298.570 211.216 C 294.282 210.724,231.866 210.747,226.748 211.242 " stroke="none" fill-rule="evenodd"></path></svg>