<svg width="400" height="400" viewBox="0, 0, 400,400"><path d="M86.772 73.747 C 82.303 74.952,77.076 79.516,74.747 84.247 L 73.400 86.983 73.400 128.192 C 73.400 174.083,73.277 171.936,76.120 175.673 C 81.745 183.069,91.755 182.354,95.710 174.276 C 97.655 170.304,97.699 169.779,97.966 147.000 C 98.105 135.120,98.377 125.040,98.569 124.600 C 99.680 122.060,101.907 121.329,104.520 122.645 C 105.224 122.999,118.490 135.934,134.000 151.388 C 149.510 166.842,163.145 180.219,164.299 181.114 C 175.062 189.459,188.185 180.947,183.571 168.614 C 182.244 165.068,180.913 163.637,151.387 134.000 C 135.934 118.490,123.001 105.224,122.646 104.520 C 121.328 101.908,122.065 99.668,124.600 98.574 C 125.040 98.384,133.410 98.115,143.200 97.976 C 162.371 97.704,163.753 97.558,167.409 95.416 C 177.073 89.754,174.030 76.229,162.545 73.796 C 158.819 73.006,89.684 72.962,86.772 73.747 M224.768 216.004 C 216.813 217.351,213.504 225.706,217.720 233.800 C 218.766 235.808,223.714 240.966,248.035 265.400 C 279.722 297.234,279.573 297.062,277.988 300.022 C 276.863 302.125,276.359 302.183,257.000 302.429 C 239.896 302.646,238.868 302.701,236.339 303.532 C 222.796 307.988,224.760 324.721,239.069 326.789 C 242.812 327.330,305.363 327.329,309.471 326.788 C 318.627 325.581,325.581 318.627,326.788 309.471 C 327.335 305.315,327.332 235.237,326.784 231.400 C 325.016 219.018,310.970 215.149,305.000 225.400 C 302.693 229.361,302.673 229.582,302.427 253.200 C 302.182 276.727,302.171 276.838,300.022 277.988 C 297.061 279.573,297.229 279.718,265.400 248.034 C 233.842 216.618,234.270 216.995,229.027 216.035 C 227.721 215.796,226.641 215.621,226.627 215.647 C 226.612 215.673,225.776 215.834,224.768 216.004 " stroke="none" fill-rule="evenodd"></path></svg>