<svg width="400" height="400" viewBox="0, 0, 400,400"><path d="M188.000 51.056 C 175.715 52.172,159.860 55.738,149.243 59.772 C 129.255 67.367,109.457 80.089,94.773 94.773 C 82.635 106.911,74.195 119.011,64.460 138.231 C 51.537 163.745,47.386 199.645,53.848 230.000 C 57.627 247.751,60.356 254.875,70.448 273.324 C 81.189 292.960,100.053 313.281,118.400 324.984 C 121.138 326.730,134.517 334.068,139.577 336.599 C 164.924 349.275,201.343 352.937,232.600 345.953 C 248.607 342.377,256.589 339.178,275.200 328.885 C 302.854 313.589,328.020 284.002,339.954 252.754 C 352.797 219.126,352.881 182.160,340.191 148.186 C 337.814 141.822,336.200 138.495,329.940 127.064 C 319.544 108.079,303.487 90.482,283.980 76.696 C 281.351 74.838,268.543 67.688,261.543 64.171 C 242.414 54.559,211.035 48.963,188.000 51.056 M215.200 76.394 C 271.865 82.983,317.235 127.956,323.809 184.053 C 325.585 199.207,325.546 202.403,323.370 220.000 C 320.393 244.073,305.998 271.786,287.080 289.863 C 237.410 337.327,160.267 336.690,111.981 288.417 C 91.611 268.052,79.784 243.684,76.348 215.000 C 75.125 204.784,75.125 195.618,76.348 185.400 C 77.710 174.024,78.139 172.025,81.398 161.903 C 89.720 136.051,104.745 115.483,128.000 98.109 C 141.117 88.309,164.164 78.993,180.200 77.007 C 196.728 74.961,202.071 74.867,215.200 76.394 M195.513 128.562 C 184.372 131.560,180.694 146.277,189.009 154.591 C 195.530 161.112,204.845 161.068,211.428 154.485 C 222.843 143.070,211.323 124.307,195.513 128.562 M195.710 179.442 C 191.769 180.883,188.387 185.444,187.139 191.000 C 186.223 195.077,186.366 260.468,187.299 264.109 C 191.447 280.302,210.100 279.547,213.227 263.059 C 213.898 259.518,213.693 193.445,213.001 190.511 C 210.860 181.431,203.375 176.640,195.710 179.442 " stroke="none" fill-rule="evenodd"></path></svg>