<svg  width="400" height="400" viewBox="0, 0, 400,400"><path d="M90.200 76.417 C 65.451 78.069,50.439 93.065,48.416 118.158 C 47.859 125.069,47.853 271.665,48.410 279.386 C 50.054 302.197,63.864 317.891,85.271 321.274 C 90.150 322.045,205.855 322.044,210.735 321.273 C 226.640 318.760,240.247 307.648,244.973 293.313 C 248.648 282.168,249.301 258.582,246.131 251.518 C 242.265 242.904,230.906 242.134,226.198 250.168 C 224.030 253.867,223.919 254.606,223.574 267.600 C 223.016 288.598,220.198 293.735,207.617 296.691 C 202.964 297.784,93.036 297.784,88.383 296.691 C 80.683 294.882,75.791 290.675,73.440 283.842 L 72.600 281.400 72.493 200.306 C 72.377 111.790,72.273 116.120,74.627 111.310 C 76.687 107.098,80.962 103.357,85.832 101.502 L 88.200 100.600 146.488 100.492 C 215.343 100.365,210.893 100.025,217.237 105.899 C 222.157 110.454,223.103 113.653,223.590 127.400 C 224.025 139.666,224.566 141.517,228.835 145.356 C 235.921 151.726,245.173 147.450,247.450 136.751 C 248.385 132.357,247.997 116.561,246.819 111.084 C 242.711 91.979,229.536 79.625,210.200 76.744 C 206.430 76.183,98.137 75.888,90.200 76.417 M283.023 128.573 C 278.470 130.265,275.130 135.679,275.752 140.361 C 276.405 145.279,277.787 147.044,293.010 162.400 C 308.803 178.331,309.964 179.878,308.368 182.860 C 307.153 185.131,312.948 184.980,217.600 185.223 C 149.640 185.396,129.803 185.556,128.417 185.943 C 112.895 190.279,114.630 207.571,130.790 209.579 C 133.065 209.862,161.873 210.000,218.470 210.000 C 307.353 210.000,306.009 209.973,307.865 211.829 C 310.658 214.621,309.191 216.718,293.617 232.200 C 277.439 248.282,275.782 250.518,275.830 256.200 C 275.912 265.991,286.240 270.376,295.067 264.368 C 297.178 262.931,339.194 221.329,345.763 214.171 C 356.035 202.979,357.261 196.370,350.797 187.039 C 347.445 182.200,295.626 130.811,292.669 129.393 C 289.820 128.027,285.483 127.658,283.023 128.573 " stroke="none" fill-rule="evenodd"></path></svg>