<svg width="400" height="400" viewBox="0, 0, 400,400"><path d="M125.600 54.842 C 115.481 55.727,111.749 57.570,98.398 68.280 C 82.121 81.336,67.230 99.635,62.007 113.000 C 61.491 114.320,60.449 116.840,59.691 118.600 C 55.026 129.432,55.400 120.638,55.400 219.600 C 55.400 313.254,55.269 308.115,57.819 314.376 C 65.322 332.797,79.221 343.384,97.762 344.798 C 105.190 345.365,295.671 345.342,302.760 344.773 C 319.780 343.409,333.293 334.060,340.666 318.550 C 345.478 308.426,345.281 313.059,345.092 214.600 C 344.912 121.352,345.196 128.317,341.249 120.497 C 340.566 119.144,339.557 116.840,339.006 115.379 C 332.192 97.274,315.013 76.603,294.610 61.957 C 287.976 57.195,283.498 55.540,275.301 54.821 C 269.614 54.322,131.327 54.342,125.600 54.842 M271.336 78.786 C 276.749 79.356,280.674 81.470,289.382 88.506 C 297.828 95.331,298.125 99.290,290.275 100.426 C 286.740 100.937,114.164 100.895,110.614 100.381 C 102.440 99.200,103.331 95.636,113.947 87.056 C 121.721 80.773,124.328 79.384,129.400 78.820 C 133.459 78.369,267.066 78.337,271.336 78.786 M308.833 126.044 C 314.148 127.519,316.519 129.507,319.036 134.600 C 321.266 139.112,321.234 137.728,321.107 222.206 L 320.991 299.800 320.123 302.854 C 317.390 312.479,311.649 318.034,302.125 320.267 C 297.260 321.408,103.140 321.408,98.275 320.267 C 87.380 317.712,81.242 310.734,79.632 299.071 C 79.056 294.897,79.040 143.814,79.616 139.833 C 80.805 131.604,86.245 126.443,94.600 125.617 C 101.347 124.950,306.364 125.359,308.833 126.044 M191.000 158.548 C 189.900 159.065,187.920 160.310,186.600 161.315 C 182.434 164.486,136.372 211.095,134.878 213.652 C 131.800 218.915,131.800 225.885,134.878 231.148 C 136.372 233.705,182.434 280.314,186.600 283.485 C 196.054 290.682,206.566 286.637,206.592 275.792 C 206.606 270.072,205.897 269.059,192.183 255.200 C 178.643 241.517,176.757 238.975,178.320 236.516 C 179.540 234.595,179.162 234.615,220.400 234.386 C 255.367 234.193,259.192 234.108,261.035 233.490 C 272.334 229.701,272.046 214.917,260.600 211.165 C 259.345 210.754,250.678 210.593,220.400 210.420 C 168.204 210.122,170.387 211.681,191.802 190.000 C 205.934 175.693,206.606 174.739,206.592 169.008 C 206.572 160.553,198.400 155.070,191.000 158.548 " stroke="none" fill-rule="evenodd"></path></svg>