<svg width="400" height="400" viewBox="0, 0, 400,400"><path d="M125.600 54.842 C 115.481 55.727,111.749 57.570,98.398 68.280 C 82.121 81.336,67.230 99.635,62.007 113.000 C 61.491 114.320,60.449 116.840,59.691 118.600 C 55.026 129.432,55.400 120.638,55.400 219.600 C 55.400 313.254,55.269 308.115,57.819 314.376 C 65.322 332.797,79.221 343.384,97.762 344.798 C 105.190 345.365,295.671 345.342,302.760 344.773 C 319.780 343.409,333.293 334.060,340.666 318.550 C 345.478 308.426,345.281 313.059,345.092 214.600 C 344.912 121.352,345.196 128.317,341.249 120.497 C 340.566 119.144,339.557 116.840,339.006 115.379 C 332.192 97.274,315.013 76.603,294.610 61.957 C 287.976 57.195,283.498 55.540,275.301 54.821 C 269.614 54.322,131.327 54.342,125.600 54.842 M271.336 78.786 C 276.749 79.356,280.674 81.470,289.382 88.506 C 297.828 95.331,298.125 99.290,290.275 100.426 C 286.740 100.937,114.164 100.895,110.614 100.381 C 102.440 99.200,103.331 95.636,113.947 87.056 C 121.721 80.773,124.328 79.384,129.400 78.820 C 133.459 78.369,267.066 78.337,271.336 78.786 M308.833 126.044 C 314.148 127.519,316.519 129.507,319.036 134.600 C 321.266 139.112,321.234 137.728,321.107 222.206 L 320.991 299.800 320.123 302.854 C 317.390 312.479,311.649 318.034,302.125 320.267 C 297.260 321.408,103.140 321.408,98.275 320.267 C 87.380 317.712,81.242 310.734,79.632 299.071 C 79.056 294.897,79.040 143.814,79.616 139.833 C 80.805 131.604,86.245 126.443,94.600 125.617 C 101.347 124.950,306.364 125.359,308.833 126.044 M206.080 158.823 C 201.859 160.932,199.855 164.228,199.891 169.000 C 199.931 174.191,201.103 176.142,209.056 184.257 C 212.105 187.368,217.414 192.779,220.854 196.282 C 229.755 205.347,230.693 207.694,226.199 209.672 C 225.240 210.094,216.282 210.241,181.400 210.405 L 137.800 210.610 135.200 211.493 C 124.555 215.110,124.555 229.690,135.200 233.307 L 137.800 234.190 181.400 234.395 C 227.010 234.609,226.206 234.577,228.099 236.290 C 230.451 238.418,229.395 239.877,214.852 254.604 C 200.771 268.862,199.937 270.047,199.890 275.860 C 199.838 282.264,204.667 287.168,211.046 287.191 C 216.827 287.212,219.030 285.350,249.200 254.950 C 273.389 230.577,273.974 229.808,273.974 222.400 C 273.974 214.985,273.387 214.214,249.200 189.848 C 215.542 155.941,214.028 154.851,206.080 158.823 " stroke="none" fill-rule="evenodd"></path></svg>