<svg width="400" height="400" viewBox="0, 0, 400,400"><path d="M249.200 71.044 C 229.570 73.443,227.663 74.734,193.400 108.807 C 179.980 122.152,168.143 133.650,167.096 134.358 C 163.027 137.107,163.986 136.993,144.800 137.004 C 126.141 137.016,125.451 137.069,113.691 139.425 C 82.916 145.589,70.250 167.401,84.632 189.464 C 85.568 190.899,95.353 201.053,110.011 215.800 C 134.904 240.844,135.600 241.637,135.600 244.942 C 135.600 248.021,134.731 248.981,104.026 279.800 C 73.944 309.995,72.323 311.766,70.979 315.923 C 68.643 323.148,74.070 330.618,81.596 330.537 C 87.596 330.472,87.839 330.266,121.800 296.394 C 155.233 263.049,153.532 264.505,157.762 265.644 C 160.385 266.350,160.728 266.667,185.000 290.807 C 208.924 314.601,210.209 315.743,216.693 318.961 C 230.342 325.736,247.635 319.180,254.572 304.600 C 261.777 289.457,263.750 277.799,263.522 251.714 L 263.400 237.800 264.779 235.200 C 265.959 232.975,269.626 229.112,290.216 208.400 C 314.782 183.688,318.048 180.211,321.009 175.621 C 333.012 157.014,332.181 133.218,318.904 115.377 C 313.580 108.223,288.300 83.458,282.207 79.426 C 272.964 73.312,259.215 69.820,249.200 71.044 M261.200 96.340 C 264.285 97.336,269.261 100.168,272.600 102.828 C 275.540 105.171,295.761 125.431,297.923 128.200 C 307.541 140.522,307.537 153.613,297.909 165.800 C 297.040 166.900,283.957 180.227,268.835 195.416 C 245.124 219.232,241.180 223.360,240.170 225.416 L 239.000 227.800 239.000 251.400 C 239.000 277.171,239.025 276.837,236.533 284.307 C 233.067 294.693,229.574 297.595,224.112 294.622 C 221.550 293.228,106.435 178.107,105.496 176.000 C 103.080 170.580,105.443 167.650,115.025 164.181 C 122.685 161.408,122.785 161.400,149.000 161.400 L 172.600 161.400 174.585 160.485 C 176.186 159.747,182.027 154.133,204.785 131.457 C 236.294 100.062,237.724 98.835,245.800 96.277 C 250.026 94.939,256.945 94.967,261.200 96.340 " stroke="none" fill-rule="evenodd"></path></svg>