<svg width="400" height="400" viewBox="0, 0, 400,400"><path d="M126.024 54.826 C 115.565 55.647,111.880 57.444,98.358 68.316 C 86.519 77.836,73.923 91.618,68.046 101.483 C 64.570 107.318,62.270 111.830,61.244 114.827 C 60.610 116.682,59.332 119.766,58.404 121.681 C 55.283 128.127,55.485 122.066,55.308 214.600 C 55.117 315.400,54.796 308.513,60.179 319.400 C 67.730 334.672,80.942 343.574,97.869 344.794 C 105.391 345.337,295.031 345.335,302.555 344.792 C 319.498 343.571,333.070 334.311,340.470 318.923 C 345.446 308.577,345.193 313.937,345.193 219.000 C 345.193 126.617,345.273 128.814,341.649 121.400 C 340.573 119.200,339.471 116.680,339.198 115.800 C 334.906 101.922,316.281 78.248,299.972 65.940 C 289.922 58.356,286.771 56.668,280.092 55.295 C 276.636 54.584,134.612 54.152,126.024 54.826 M275.829 79.434 C 278.570 80.562,282.922 83.421,288.099 87.496 C 296.948 94.462,298.550 97.996,293.705 99.865 C 290.733 101.012,110.467 101.012,107.495 99.865 C 102.703 98.016,104.084 94.970,112.930 87.876 C 121.787 80.773,124.241 79.331,128.400 78.785 C 129.610 78.626,162.820 78.519,202.200 78.548 L 273.800 78.600 275.829 79.434 M305.695 125.607 C 312.636 126.402,316.291 128.803,319.123 134.427 C 321.263 138.678,321.225 137.012,321.104 221.413 L 320.991 300.200 320.087 303.126 C 317.112 312.753,312.760 317.109,303.149 320.082 L 300.200 320.995 202.800 321.117 C 99.815 321.247,100.460 321.257,95.120 319.359 C 87.601 316.687,84.072 313.299,81.357 306.148 C 79.146 300.323,79.229 303.658,79.217 219.600 C 79.206 141.012,79.253 138.275,80.651 135.447 C 83.825 129.030,87.412 126.422,94.144 125.637 C 98.372 125.144,301.402 125.115,305.695 125.607 M194.800 156.601 C 191.377 157.717,187.302 161.430,163.886 184.766 C 136.240 212.317,135.248 213.516,135.226 219.400 C 135.199 226.876,143.548 232.517,150.712 229.862 C 154.077 228.615,157.132 226.075,166.400 216.822 C 183.492 199.757,185.251 198.585,187.228 202.939 C 187.946 204.520,187.984 206.127,188.009 236.400 C 188.044 279.088,188.170 280.608,192.006 284.444 C 198.474 290.912,208.317 288.446,211.285 279.614 C 211.631 278.584,211.823 268.250,211.993 241.600 C 212.245 201.860,212.207 202.497,214.436 201.248 C 216.504 200.090,218.366 201.534,231.470 214.467 C 248.191 230.969,251.570 232.840,258.418 229.386 C 265.528 225.801,267.112 218.952,262.485 211.800 C 258.449 205.560,211.955 159.839,207.082 157.318 C 204.502 155.983,197.878 155.596,194.800 156.601 " stroke="none" fill-rule="evenodd"></path></svg>