<svg width="400" height="400" viewBox="0, 0, 400,400"><path d="M247.200 67.215 C 240.484 68.041,230.515 72.306,224.200 77.055 C 215.824 83.354,177.651 122.366,175.393 126.935 C 169.886 138.078,181.972 148.505,192.325 141.543 C 193.356 140.850,203.650 130.891,215.200 119.414 C 226.750 107.936,237.100 97.904,238.200 97.121 C 249.718 88.921,261.842 89.612,273.200 99.115 C 278.789 103.791,298.695 124.062,301.171 127.600 C 305.363 133.587,306.511 137.031,306.507 143.600 C 306.501 154.837,305.145 156.807,279.755 182.470 C 261.180 201.245,257.985 204.861,256.958 208.273 C 253.981 218.164,264.201 226.069,273.902 221.381 C 277.353 219.714,314.738 182.437,320.513 174.905 C 330.707 161.610,333.877 145.906,329.456 130.600 C 325.732 117.704,323.083 114.147,300.327 91.478 C 278.863 70.096,267.174 64.758,247.200 67.215 M76.469 84.508 C 68.924 86.922,67.016 96.422,72.565 103.943 C 74.073 105.987,284.469 316.438,286.926 318.360 C 298.425 327.357,311.813 315.137,304.134 302.652 C 302.950 300.728,93.027 90.535,89.290 87.532 C 85.223 84.264,80.621 83.179,76.469 84.508 M81.894 159.620 C 75.975 161.073,73.024 164.654,73.009 170.400 C 72.993 176.580,71.289 174.560,105.236 208.607 C 135.792 239.252,136.782 240.338,136.782 243.200 C 136.782 246.083,135.879 247.068,103.027 279.999 C 80.823 302.256,70.406 312.972,69.291 314.700 C 63.361 323.900,69.026 334.527,79.288 333.454 C 84.525 332.907,83.181 334.094,119.002 298.369 C 153.531 263.932,153.879 263.616,157.316 263.604 C 159.943 263.595,161.733 265.231,191.000 294.389 C 223.814 327.080,223.029 326.411,228.554 326.391 C 237.045 326.361,242.167 317.174,238.250 309.000 C 236.215 304.753,94.156 162.973,90.000 161.041 C 86.684 159.499,84.177 159.060,81.894 159.620 " stroke="none" fill-rule="evenodd"></path></svg>